<?xml version="1.0" encoding="UTF-8" standalone="no"?>
<!DOCTYPE svg PUBLIC "-//W3C//DTD SVG 1.1//EN"
 "http://www.w3.org/Graphics/SVG/1.1/DTD/svg11.dtd">
<!-- Generated by graphviz version 2.43.0 (0)
 -->
<!-- Title: packages Pages: 1 -->
<svg width="720pt" height="652pt"
 viewBox="0.00 0.00 720.00 651.59" xmlns="http://www.w3.org/2000/svg" xmlns:xlink="http://www.w3.org/1999/xlink">
<g id="graph0" class="graph" transform="scale(0.15985967872645124 0.15985967872645124) rotate(0) translate(4 4072)">
<title>packages</title>
<polygon fill="white" stroke="transparent" points="-4,4 -4,-4072 4499.95,-4072 4499.95,4 -4,4"/>
<g id="clust1" class="cluster">
<title>cluster modules/dart/at_libraries/packages</title>
<polygon fill="none" stroke="#5d6fbf" points="1871,-53.44 1871,-3513.58 2292,-3513.58 2292,-53.44 1871,-53.44"/>
<text text-anchor="middle" x="2081.5" y="-3498.38" font-family="Times,serif" font-size="14.00">modules/dart/at_libraries/packages</text>
</g>
<g id="clust2" class="cluster">
<title>cluster modules/dart/at_widgets/packages</title>
<polygon fill="none" stroke="#b80dd6" points="2875,-1977.22 2875,-4014.56 4060,-4014.56 4060,-1977.22 2875,-1977.22"/>
<text text-anchor="middle" x="3467.5" y="-3999.36" font-family="Times,serif" font-size="14.00">modules/dart/at_widgets/packages</text>
</g>
<g id="clust3" class="cluster">
<title>cluster modules/dart/at_tools/packages</title>
<polygon fill="none" stroke="#a24674" points="813,-2531.65 813,-3513.58 1491,-3513.58 1491,-2531.65 813,-2531.65"/>
<text text-anchor="middle" x="1152" y="-3498.38" font-family="Times,serif" font-size="14.00">modules/dart/at_tools/packages</text>
</g>
<g id="clust4" class="cluster">
<title>cluster modules/dart/at_client_sdk/packages</title>
<polygon fill="none" stroke="#0ace14" points="2589,-1496.28 2589,-2478.21 2867,-2478.21 2867,-1496.28 2589,-1496.28"/>
<text text-anchor="middle" x="2728" y="-2463.01" font-family="Times,serif" font-size="14.00">modules/dart/at_client_sdk/packages</text>
</g>
<g id="clust5" class="cluster">
<title>cluster modules/dart/at_services/packages</title>
<polygon fill="none" stroke="#d8a73c" points="8,-1977.22 8,-3513.58 493,-3513.58 493,-1977.22 8,-1977.22"/>
<text text-anchor="middle" x="250.5" y="-3498.38" font-family="Times,serif" font-size="14.00">modules/dart/at_services/packages</text>
</g>
<g id="clust6" class="cluster">
<title>cluster modules/dart/at_server/packages</title>
<polygon fill="none" stroke="#8b5078" points="683,-1015.33 683,-2478.21 1339,-2478.21 1339,-1015.33 683,-1015.33"/>
<text text-anchor="middle" x="1011" y="-2463.01" font-family="Times,serif" font-size="14.00">modules/dart/at_server/packages</text>
</g>
<!-- at_auth -->
<g id="node1" class="node">
<title>at_auth</title>
<polygon fill="none" stroke="#0f9477" points="2181,-2168.44 2111,-2168.44 2111,-2132.44 2181,-2132.44 2181,-2168.44"/>
<text text-anchor="middle" x="2146" y="-2146.74" font-family="Times,serif" font-size="14.00">at_auth</text>
</g>
<!-- at_chops -->
<g id="node4" class="node">
<title>at_chops</title>
<polygon fill="none" stroke="#8fb4d4" points="2096.5,-1207.44 2017.5,-1207.44 2017.5,-1171.44 2096.5,-1171.44 2096.5,-1207.44"/>
<text text-anchor="middle" x="2057" y="-1185.74" font-family="Times,serif" font-size="14.00">at_chops</text>
</g>
<!-- at_auth&#45;&gt;at_chops -->
<g id="edge3" class="edge">
<title>at_auth&#45;&gt;at_chops</title>
<path fill="none" stroke="#8fb4d4" d="M2144.42,-2132.39C2133.78,-2017.77 2072.72,-1359.82 2059.52,-1217.56"/>
<polygon fill="#8fb4d4" stroke="#8fb4d4" points="2062.99,-1217.14 2058.58,-1207.51 2056.02,-1217.79 2062.99,-1217.14"/>
</g>
<!-- at_commons -->
<g id="node10" class="node">
<title>at_commons</title>
<polygon fill="none" stroke="#7eceb0" points="1994.5,-245.44 1889.5,-245.44 1889.5,-209.44 1994.5,-209.44 1994.5,-245.44"/>
<text text-anchor="middle" x="1942" y="-223.74" font-family="Times,serif" font-size="14.00">at_commons</text>
</g>
<!-- at_auth&#45;&gt;at_commons -->
<g id="edge1" class="edge">
<title>at_auth&#45;&gt;at_commons</title>
<path fill="none" stroke="#7eceb0" d="M2142.98,-2132.16C2126.76,-2038.6 2049.09,-1582.93 2009,-1207.44 1968.83,-831.23 1947.93,-370.97 1943.1,-255.62"/>
<polygon fill="#7eceb0" stroke="#7eceb0" points="1946.59,-255.4 1942.68,-245.55 1939.6,-255.69 1946.59,-255.4"/>
</g>
<!-- at_lookup -->
<g id="node27" class="node">
<title>at_lookup</title>
<polygon fill="none" stroke="#94d42d" points="2030.5,-1688.44 1945.5,-1688.44 1945.5,-1652.44 2030.5,-1652.44 2030.5,-1688.44"/>
<text text-anchor="middle" x="1988" y="-1666.74" font-family="Times,serif" font-size="14.00">at_lookup</text>
</g>
<!-- at_auth&#45;&gt;at_lookup -->
<g id="edge2" class="edge">
<title>at_auth&#45;&gt;at_lookup</title>
<path fill="none" stroke="#94d42d" d="M2140.38,-2132.43C2116.82,-2061.15 2025.93,-1786.19 1996.94,-1698.49"/>
<polygon fill="#94d42d" stroke="#94d42d" points="2000.18,-1697.14 1993.72,-1688.75 1993.54,-1699.34 2000.18,-1697.14"/>
</g>
<!-- at_utils -->
<g id="node43" class="node">
<title>at_utils</title>
<polygon fill="none" stroke="#75e849" points="2189.5,-726.44 2120.5,-726.44 2120.5,-690.44 2189.5,-690.44 2189.5,-726.44"/>
<text text-anchor="middle" x="2155" y="-704.74" font-family="Times,serif" font-size="14.00">at_utils</text>
</g>
<!-- at_auth&#45;&gt;at_utils -->
<g id="edge4" class="edge">
<title>at_auth&#45;&gt;at_utils</title>
<path fill="none" stroke="#75e849" d="M2146.11,-2132.26C2147.03,-1984.09 2153.67,-922.68 2154.83,-737.09"/>
<polygon fill="#75e849" stroke="#75e849" points="2158.33,-736.85 2154.89,-726.83 2151.33,-736.81 2158.33,-736.85"/>
</g>
<!-- at_backupkey_flutter -->
<g id="node2" class="node">
<title>at_backupkey_flutter</title>
<polygon fill="none" stroke="#590b92" points="3729.5,-2723.44 3564.5,-2723.44 3564.5,-2687.44 3729.5,-2687.44 3729.5,-2723.44"/>
<text text-anchor="middle" x="3647" y="-2701.74" font-family="Times,serif" font-size="14.00">at_backupkey_flutter</text>
</g>
<!-- at_client_mobile -->
<g id="node8" class="node">
<title>at_client_mobile</title>
<polygon fill="none" stroke="#d9577c" points="2857,-2168.44 2725,-2168.44 2725,-2132.44 2857,-2132.44 2857,-2168.44"/>
<text text-anchor="middle" x="2791" y="-2146.74" font-family="Times,serif" font-size="14.00">at_client_mobile</text>
</g>
<!-- at_backupkey_flutter&#45;&gt;at_client_mobile -->
<g id="edge6" class="edge">
<title>at_backupkey_flutter&#45;&gt;at_client_mobile</title>
<path fill="none" stroke="#d9577c" d="M3620.44,-2687.28C3495.77,-2606.74 2968.67,-2266.22 2826.47,-2174.35"/>
<polygon fill="#d9577c" stroke="#d9577c" points="2827.97,-2171.15 2817.67,-2168.67 2824.17,-2177.03 2827.97,-2171.15"/>
</g>
<!-- at_backupkey_flutter&#45;&gt;at_utils -->
<g id="edge5" class="edge">
<title>at_backupkey_flutter&#45;&gt;at_utils</title>
<path fill="none" stroke="#75e849" d="M3640.31,-2687.32C3588.02,-2555.25 3233.19,-1689.43 2716,-1163.44 2533.86,-978.19 2278.74,-795.2 2188.35,-732.33"/>
<polygon fill="#75e849" stroke="#75e849" points="2190.09,-729.27 2179.88,-726.45 2186.1,-735.03 2190.09,-729.27"/>
</g>
<!-- at_chat_flutter -->
<g id="node3" class="node">
<title>at_chat_flutter</title>
<polygon fill="none" stroke="#463830" points="3179,-2723.44 3059,-2723.44 3059,-2687.44 3179,-2687.44 3179,-2723.44"/>
<text text-anchor="middle" x="3119" y="-2701.74" font-family="Times,serif" font-size="14.00">at_chat_flutter</text>
</g>
<!-- at_client -->
<g id="node7" class="node">
<title>at_client</title>
<polygon fill="none" stroke="#61d4fc" points="2674.5,-1688.44 2597.5,-1688.44 2597.5,-1652.44 2674.5,-1652.44 2674.5,-1688.44"/>
<text text-anchor="middle" x="2636" y="-1666.74" font-family="Times,serif" font-size="14.00">at_client</text>
</g>
<!-- at_chat_flutter&#45;&gt;at_client -->
<g id="edge7" class="edge">
<title>at_chat_flutter&#45;&gt;at_client</title>
<path fill="none" stroke="#61d4fc" d="M3129.37,-2687.25C3171.68,-2614.75 3324.28,-2328.28 3224,-2124.44 3107.81,-1888.25 2802.7,-1740.58 2684.11,-1690.53"/>
<polygon fill="#61d4fc" stroke="#61d4fc" points="2685.14,-1687.16 2674.56,-1686.54 2682.44,-1693.62 2685.14,-1687.16"/>
</g>
<!-- at_chat_flutter&#45;&gt;at_client_mobile -->
<g id="edge8" class="edge">
<title>at_chat_flutter&#45;&gt;at_client_mobile</title>
<path fill="none" stroke="#d9577c" d="M3108.82,-2687.28C3061.58,-2607.62 2863.49,-2273.66 2806.44,-2177.47"/>
<polygon fill="#d9577c" stroke="#d9577c" points="2809.33,-2175.48 2801.22,-2168.67 2803.31,-2179.05 2809.33,-2175.48"/>
</g>
<!-- at_common_flutter -->
<g id="node9" class="node">
<title>at_common_flutter</title>
<polygon fill="none" stroke="#bf681f" points="3214.5,-2168.44 3065.5,-2168.44 3065.5,-2132.44 3214.5,-2132.44 3214.5,-2168.44"/>
<text text-anchor="middle" x="3140" y="-2146.74" font-family="Times,serif" font-size="14.00">at_common_flutter</text>
</g>
<!-- at_chat_flutter&#45;&gt;at_common_flutter -->
<g id="edge9" class="edge">
<title>at_chat_flutter&#45;&gt;at_common_flutter</title>
<path fill="none" stroke="#bf681f" d="M3119.65,-2687.28C3122.66,-2608.03 3135.23,-2277.03 3138.96,-2178.94"/>
<polygon fill="#bf681f" stroke="#bf681f" points="3142.46,-2178.79 3139.35,-2168.67 3135.47,-2178.53 3142.46,-2178.79"/>
</g>
<!-- at_chat_flutter&#45;&gt;at_commons -->
<g id="edge10" class="edge">
<title>at_chat_flutter&#45;&gt;at_commons</title>
<path fill="none" stroke="#7eceb0" d="M3141.17,-2687.15C3255.58,-2595.77 3774,-2155.07 3774,-1671.44 3774,-1671.44 3774,-1671.44 3774,-1188.44 3774,-966.85 3890.09,-862.13 3750,-690.44 3519.5,-407.94 2296.68,-265.06 2004.66,-234.67"/>
<polygon fill="#7eceb0" stroke="#7eceb0" points="2004.98,-231.18 1994.67,-233.63 2004.26,-238.14 2004.98,-231.18"/>
</g>
<!-- at_contact -->
<g id="node11" class="node">
<title>at_contact</title>
<polygon fill="none" stroke="#250aa2" points="2284,-1207.44 2194,-1207.44 2194,-1171.44 2284,-1171.44 2284,-1207.44"/>
<text text-anchor="middle" x="2239" y="-1185.74" font-family="Times,serif" font-size="14.00">at_contact</text>
</g>
<!-- at_chat_flutter&#45;&gt;at_contact -->
<g id="edge11" class="edge">
<title>at_chat_flutter&#45;&gt;at_contact</title>
<path fill="none" stroke="#250aa2" d="M3113.76,-2687.15C3094.48,-2623.07 3026.53,-2392.89 2986,-2199.44 2934.81,-1955.06 3032.02,-1855.73 2899,-1644.44 2748.83,-1405.9 2422.75,-1260.5 2293.43,-1210.28"/>
<polygon fill="#250aa2" stroke="#250aa2" points="2294.68,-1207.01 2284.09,-1206.68 2292.17,-1213.54 2294.68,-1207.01"/>
</g>
<!-- at_chat_flutter&#45;&gt;at_lookup -->
<g id="edge12" class="edge">
<title>at_chat_flutter&#45;&gt;at_lookup</title>
<path fill="none" stroke="#94d42d" d="M3099.49,-2687.11C3027.23,-2622.89 2768.16,-2392.26 2557,-2199.44 2346.3,-2007.03 2094.91,-1771.72 2014.26,-1696.09"/>
<polygon fill="#94d42d" stroke="#94d42d" points="2016.25,-1693.16 2006.56,-1688.87 2011.46,-1698.26 2016.25,-1693.16"/>
</g>
<!-- at_chops&#45;&gt;at_commons -->
<g id="edge13" class="edge">
<title>at_chops&#45;&gt;at_commons</title>
<path fill="none" stroke="#7eceb0" d="M2055.34,-1171.22C2049.15,-1107.44 2026.64,-878.63 2004,-690.44 1984.1,-524.98 1956.1,-326.77 1945.9,-255.56"/>
<polygon fill="#7eceb0" stroke="#7eceb0" points="1949.36,-255.02 1944.48,-245.62 1942.43,-256.01 1949.36,-255.02"/>
</g>
<!-- at_chops&#45;&gt;at_utils -->
<g id="edge14" class="edge">
<title>at_chops&#45;&gt;at_utils</title>
<path fill="none" stroke="#75e849" d="M2060.49,-1171.39C2075.1,-1099.96 2131.48,-824.38 2149.46,-736.52"/>
<polygon fill="#75e849" stroke="#75e849" points="2152.93,-737.03 2151.5,-726.53 2146.07,-735.63 2152.93,-737.03"/>
</g>
<!-- at_cli -->
<g id="node5" class="node">
<title>at_cli</title>
<polygon fill="none" stroke="#34bd05" points="1182,-3204.44 1128,-3204.44 1128,-3168.44 1182,-3168.44 1182,-3204.44"/>
<text text-anchor="middle" x="1155" y="-3182.74" font-family="Times,serif" font-size="14.00">at_cli</text>
</g>
<!-- at_cli&#45;&gt;at_client -->
<g id="edge16" class="edge">
<title>at_cli&#45;&gt;at_client</title>
<path fill="none" stroke="#61d4fc" d="M1164.05,-3168.34C1229.22,-3045.7 1629.4,-2299.66 1814,-2124.44 2060.73,-1890.24 2451.73,-1736.75 2587.59,-1688.09"/>
<polygon fill="#61d4fc" stroke="#61d4fc" points="2589.06,-1691.28 2597.31,-1684.63 2586.71,-1684.69 2589.06,-1691.28"/>
</g>
<!-- at_cli&#45;&gt;at_commons -->
<g id="edge17" class="edge">
<title>at_cli&#45;&gt;at_commons</title>
<path fill="none" stroke="#7eceb0" d="M1144.13,-3168.18C1106.47,-3108.06 978.84,-2901.73 888,-2723.44 569.79,-2098.87 347.67,-1792.94 656,-1163.44 776.1,-918.24 835.33,-861.67 1048,-690.44 1327.8,-465.16 1734.85,-303.73 1884.25,-248.91"/>
<polygon fill="#7eceb0" stroke="#7eceb0" points="1885.52,-252.17 1893.71,-245.45 1883.12,-245.59 1885.52,-252.17"/>
</g>
<!-- at_cli&#45;&gt;at_lookup -->
<g id="edge15" class="edge">
<title>at_cli&#45;&gt;at_lookup</title>
<path fill="none" stroke="#94d42d" d="M1163.08,-3168.25C1191.61,-3107.52 1290.3,-2897.31 1371,-2723.44 1494.41,-2457.56 1496.67,-2376.08 1647,-2124.44 1751.09,-1950.2 1908.71,-1762.78 1966.11,-1696.43"/>
<polygon fill="#94d42d" stroke="#94d42d" points="1969,-1698.44 1972.91,-1688.59 1963.72,-1693.85 1969,-1698.44"/>
</g>
<!-- at_cli&#45;&gt;at_utils -->
<g id="edge18" class="edge">
<title>at_cli&#45;&gt;at_utils</title>
<path fill="none" stroke="#75e849" d="M1161.92,-3168.31C1244.6,-2963.6 2042.13,-988.91 2144.26,-736.04"/>
<polygon fill="#75e849" stroke="#75e849" points="2147.6,-737.11 2148.1,-726.53 2141.11,-734.49 2147.6,-737.11"/>
</g>
<!-- at_cli_commons -->
<g id="node6" class="node">
<title>at_cli_commons</title>
<polygon fill="none" stroke="#c99192" points="2284,-3204.44 2156,-3204.44 2156,-3168.44 2284,-3168.44 2284,-3204.44"/>
<text text-anchor="middle" x="2220" y="-3182.74" font-family="Times,serif" font-size="14.00">at_cli_commons</text>
</g>
<!-- at_cli_commons&#45;&gt;at_client -->
<g id="edge19" class="edge">
<title>at_cli_commons&#45;&gt;at_client</title>
<path fill="none" stroke="#61d4fc" d="M2218.71,-3168.23C2211.62,-3065.67 2182.89,-2525.96 2329,-2124.44 2395.67,-1941.22 2552.74,-1760.64 2612.43,-1696.21"/>
<polygon fill="#61d4fc" stroke="#61d4fc" points="2615.27,-1698.29 2619.54,-1688.59 2610.15,-1693.51 2615.27,-1698.29"/>
</g>
<!-- at_onboarding_cli -->
<g id="node29" class="node">
<title>at_onboarding_cli</title>
<polygon fill="none" stroke="#514d2d" points="2059,-2723.44 1917,-2723.44 1917,-2687.44 2059,-2687.44 2059,-2723.44"/>
<text text-anchor="middle" x="1988" y="-2701.74" font-family="Times,serif" font-size="14.00">at_onboarding_cli</text>
</g>
<!-- at_cli_commons&#45;&gt;at_onboarding_cli -->
<g id="edge20" class="edge">
<title>at_cli_commons&#45;&gt;at_onboarding_cli</title>
<path fill="none" stroke="#514d2d" d="M2211.74,-3168.39C2177.04,-3096.74 2042.85,-2819.69 2000.73,-2732.72"/>
<polygon fill="#514d2d" stroke="#514d2d" points="2003.79,-2731.01 1996.28,-2723.53 1997.49,-2734.06 2003.79,-2731.01"/>
</g>
<!-- at_cli_commons&#45;&gt;at_utils -->
<g id="edge21" class="edge">
<title>at_cli_commons&#45;&gt;at_utils</title>
<path fill="none" stroke="#75e849" d="M2219.55,-3168.31C2214.18,-2963.8 2162.44,-992.82 2155.72,-736.8"/>
<polygon fill="#75e849" stroke="#75e849" points="2159.21,-736.43 2155.45,-726.53 2152.21,-736.62 2159.21,-736.43"/>
</g>
<!-- at_client&#45;&gt;at_auth -->
<g id="edge26" class="edge">
<title>at_client&#45;&gt;at_auth</title>
<path fill="none" stroke="#0f9477" d="M2618.51,-1688.5C2544.53,-1760.66 2257.11,-2041.05 2170.7,-2125.34"/>
<polygon fill="#0f9477" stroke="#0f9477" points="2168.15,-2122.94 2163.44,-2132.43 2173.04,-2127.95 2168.15,-2122.94"/>
</g>
<!-- at_client&#45;&gt;at_chops -->
<g id="edge24" class="edge">
<title>at_client&#45;&gt;at_chops</title>
<path fill="none" stroke="#8fb4d4" d="M2615.39,-1652.39C2527.9,-1580.01 2187.08,-1298.05 2085.64,-1214.13"/>
<polygon fill="#8fb4d4" stroke="#8fb4d4" points="2087.6,-1211.21 2077.66,-1207.53 2083.14,-1216.6 2087.6,-1211.21"/>
</g>
<!-- at_client&#45;&gt;at_commons -->
<g id="edge22" class="edge">
<title>at_client&#45;&gt;at_commons</title>
<path fill="none" stroke="#7eceb0" d="M2597.42,-1654.81C2483.21,-1609.22 2146.29,-1457.53 2009,-1207.44 1825.77,-873.66 1911.41,-376.47 1936.11,-255.62"/>
<polygon fill="#7eceb0" stroke="#7eceb0" points="1939.56,-256.23 1938.17,-245.72 1932.7,-254.8 1939.56,-256.23"/>
</g>
<!-- at_client&#45;&gt;at_lookup -->
<g id="edge25" class="edge">
<title>at_client&#45;&gt;at_lookup</title>
<path fill="none" stroke="#94d42d" d="M2597.28,-1670.44C2411.84,-1670.44 2226.39,-1670.44 2040.95,-1670.44"/>
<polygon fill="#94d42d" stroke="#94d42d" points="2040.71,-1666.94 2030.71,-1670.44 2040.71,-1673.94 2040.71,-1666.94"/>
</g>
<!-- at_persistence_secondary_server -->
<g id="node32" class="node">
<title>at_persistence_secondary_server</title>
<polygon fill="none" stroke="#9760d3" points="1083,-1688.44 831,-1688.44 831,-1652.44 1083,-1652.44 1083,-1688.44"/>
<text text-anchor="middle" x="957" y="-1666.74" font-family="Times,serif" font-size="14.00">at_persistence_secondary_server</text>
</g>
<!-- at_client&#45;&gt;at_persistence_secondary_server -->
<g id="edge28" class="edge">
<title>at_client&#45;&gt;at_persistence_secondary_server</title>
<path fill="none" stroke="#9760d3" d="M2626.76,-1688.64C2601.75,-1735.57 2527.62,-1860.23 2424,-1906.44 1887.38,-2145.73 1614.81,-2193.23 1102,-1906.44 1021.31,-1861.31 980.04,-1750.86 964.49,-1698.66"/>
<polygon fill="#9760d3" stroke="#9760d3" points="967.76,-1697.38 961.63,-1688.74 961.03,-1699.31 967.76,-1697.38"/>
</g>
<!-- at_persistence_spec -->
<g id="node33" class="node">
<title>at_persistence_spec</title>
<polygon fill="none" stroke="#3bfcef" points="1331.5,-1207.44 1172.5,-1207.44 1172.5,-1171.44 1331.5,-1171.44 1331.5,-1207.44"/>
<text text-anchor="middle" x="1252" y="-1185.74" font-family="Times,serif" font-size="14.00">at_persistence_spec</text>
</g>
<!-- at_client&#45;&gt;at_persistence_spec -->
<g id="edge27" class="edge">
<title>at_client&#45;&gt;at_persistence_spec</title>
<path fill="none" stroke="#3bfcef" d="M2597.17,-1656C2403.84,-1589.09 1544.97,-1291.84 1311.02,-1210.86"/>
<polygon fill="#3bfcef" stroke="#3bfcef" points="1311.92,-1207.47 1301.33,-1207.51 1309.63,-1214.09 1311.92,-1207.47"/>
</g>
<!-- at_client&#45;&gt;at_utils -->
<g id="edge23" class="edge">
<title>at_client&#45;&gt;at_utils</title>
<path fill="none" stroke="#75e849" d="M2627.45,-1652.37C2569.84,-1537.4 2238.63,-876.35 2168.18,-735.73"/>
<polygon fill="#75e849" stroke="#75e849" points="2171.17,-733.9 2163.56,-726.52 2164.91,-737.03 2171.17,-733.9"/>
</g>
<!-- at_client_mobile&#45;&gt;at_auth -->
<g id="edge34" class="edge">
<title>at_client_mobile&#45;&gt;at_auth</title>
<path fill="none" stroke="#0f9477" d="M2724.91,-2150.44C2547.06,-2150.44 2369.21,-2150.44 2191.36,-2150.44"/>
<polygon fill="#0f9477" stroke="#0f9477" points="2191.27,-2146.94 2181.27,-2150.44 2191.27,-2153.94 2191.27,-2146.94"/>
</g>
<!-- at_client_mobile&#45;&gt;at_chops -->
<g id="edge31" class="edge">
<title>at_client_mobile&#45;&gt;at_chops</title>
<path fill="none" stroke="#8fb4d4" d="M2791.62,-2132.09C2793.25,-2063.89 2791.46,-1809.74 2684,-1644.44 2534.76,-1414.88 2225.95,-1263.16 2106.07,-1210.78"/>
<polygon fill="#8fb4d4" stroke="#8fb4d4" points="2107.32,-1207.51 2096.76,-1206.74 2104.54,-1213.93 2107.32,-1207.51"/>
</g>
<!-- at_client_mobile&#45;&gt;at_client -->
<g id="edge33" class="edge">
<title>at_client_mobile&#45;&gt;at_client</title>
<path fill="none" stroke="#61d4fc" d="M2785.48,-2132.43C2762.37,-2061.15 2673.21,-1786.19 2644.77,-1698.49"/>
<polygon fill="#61d4fc" stroke="#61d4fc" points="2648.03,-1697.18 2641.61,-1688.75 2641.37,-1699.34 2648.03,-1697.18"/>
</g>
<!-- at_client_mobile&#45;&gt;at_commons -->
<g id="edge29" class="edge">
<title>at_client_mobile&#45;&gt;at_commons</title>
<path fill="none" stroke="#7eceb0" d="M2790.84,-2132.03C2789.8,-2066.6 2782.29,-1829.7 2728,-1644.44 2547.72,-1029.27 2065.12,-386.71 1961.69,-253.48"/>
<polygon fill="#7eceb0" stroke="#7eceb0" points="1964.34,-251.19 1955.43,-245.45 1958.82,-255.49 1964.34,-251.19"/>
</g>
<!-- at_client_mobile&#45;&gt;at_lookup -->
<g id="edge32" class="edge">
<title>at_client_mobile&#45;&gt;at_lookup</title>
<path fill="none" stroke="#94d42d" d="M2762.42,-2132.43C2640.48,-2059.84 2163.65,-1776 2025.62,-1693.83"/>
<polygon fill="#94d42d" stroke="#94d42d" points="2027.04,-1690.6 2016.65,-1688.5 2023.46,-1696.62 2027.04,-1690.6"/>
</g>
<!-- at_client_mobile&#45;&gt;at_persistence_secondary_server -->
<g id="edge35" class="edge">
<title>at_client_mobile&#45;&gt;at_persistence_secondary_server</title>
<path fill="none" stroke="#9760d3" d="M2725.73,-2132.43C2444.01,-2059 1333.04,-1769.45 1032.38,-1691.08"/>
<polygon fill="#9760d3" stroke="#9760d3" points="1033.01,-1687.63 1022.45,-1688.5 1031.24,-1694.4 1033.01,-1687.63"/>
</g>
<!-- at_client_mobile&#45;&gt;at_utils -->
<g id="edge30" class="edge">
<title>at_client_mobile&#45;&gt;at_utils</title>
<path fill="none" stroke="#75e849" d="M2790.46,-2132.3C2787.95,-2066.88 2774.45,-1827.32 2708,-1644.44 2565.49,-1252.21 2256.18,-839.47 2174.89,-734.73"/>
<polygon fill="#75e849" stroke="#75e849" points="2177.49,-732.37 2168.59,-726.63 2171.97,-736.67 2177.49,-732.37"/>
</g>
<!-- at_contact&#45;&gt;at_client -->
<g id="edge36" class="edge">
<title>at_contact&#45;&gt;at_client</title>
<path fill="none" stroke="#61d4fc" d="M2253.17,-1207.53C2312.93,-1279.63 2544.58,-1559.13 2615.35,-1644.52"/>
<polygon fill="#61d4fc" stroke="#61d4fc" points="2612.79,-1646.92 2621.87,-1652.39 2618.18,-1642.46 2612.79,-1646.92"/>
</g>
<!-- at_contact&#45;&gt;at_commons -->
<g id="edge37" class="edge">
<title>at_contact&#45;&gt;at_commons</title>
<path fill="none" stroke="#7eceb0" d="M2240.21,-1171.19C2244.22,-1106.37 2253.9,-871.83 2199,-690.44 2144.29,-509.68 2011.5,-321.03 1961.49,-253.95"/>
<polygon fill="#7eceb0" stroke="#7eceb0" points="1964.07,-251.56 1955.27,-245.66 1958.47,-255.76 1964.07,-251.56"/>
</g>
<!-- at_contact&#45;&gt;at_utils -->
<g id="edge38" class="edge">
<title>at_contact&#45;&gt;at_utils</title>
<path fill="none" stroke="#75e849" d="M2236.01,-1171.39C2223.48,-1099.96 2175.16,-824.38 2159.75,-736.52"/>
<polygon fill="#75e849" stroke="#75e849" points="2163.17,-735.78 2158,-726.53 2156.28,-736.99 2163.17,-735.78"/>
</g>
<!-- at_contacts_flutter -->
<g id="node12" class="node">
<title>at_contacts_flutter</title>
<polygon fill="none" stroke="#1267b5" points="3346.5,-2723.44 3197.5,-2723.44 3197.5,-2687.44 3346.5,-2687.44 3346.5,-2723.44"/>
<text text-anchor="middle" x="3272" y="-2701.74" font-family="Times,serif" font-size="14.00">at_contacts_flutter</text>
</g>
<!-- at_contacts_flutter&#45;&gt;at_client -->
<g id="edge39" class="edge">
<title>at_contacts_flutter&#45;&gt;at_client</title>
<path fill="none" stroke="#61d4fc" d="M3276.35,-2687.42C3294.06,-2614.44 3354.83,-2322.63 3250,-2124.44 3122.91,-1884.16 2805.08,-1738.03 2683.94,-1689.49"/>
<polygon fill="#61d4fc" stroke="#61d4fc" points="2685.12,-1686.2 2674.53,-1685.76 2682.54,-1692.7 2685.12,-1686.2"/>
</g>
<!-- at_contacts_flutter&#45;&gt;at_client_mobile -->
<g id="edge40" class="edge">
<title>at_contacts_flutter&#45;&gt;at_client_mobile</title>
<path fill="none" stroke="#d9577c" d="M3257.08,-2687.28C3187.51,-2607.3 2894.96,-2270.96 2812.64,-2176.32"/>
<polygon fill="#d9577c" stroke="#d9577c" points="2815.19,-2173.92 2805.99,-2168.67 2809.91,-2178.51 2815.19,-2173.92"/>
</g>
<!-- at_contacts_flutter&#45;&gt;at_common_flutter -->
<g id="edge41" class="edge">
<title>at_contacts_flutter&#45;&gt;at_common_flutter</title>
<path fill="none" stroke="#bf681f" d="M3267.9,-2687.28C3248.97,-2607.94 3169.82,-2276.35 3146.49,-2178.64"/>
<polygon fill="#bf681f" stroke="#bf681f" points="3149.84,-2177.58 3144.11,-2168.67 3143.03,-2179.21 3149.84,-2177.58"/>
</g>
<!-- at_contacts_flutter&#45;&gt;at_commons -->
<g id="edge42" class="edge">
<title>at_contacts_flutter&#45;&gt;at_commons</title>
<path fill="none" stroke="#7eceb0" d="M3263.87,-2687.27C3233.9,-2623.63 3127.72,-2394.76 3057,-2199.44 2969.3,-1957.23 2980.06,-1885.77 2890,-1644.44 2808.07,-1424.88 2787.63,-1368.39 2674,-1163.44 2551.29,-942.11 2512.39,-890.18 2357,-690.44 2219.63,-513.86 2032.3,-320 1966.25,-252.89"/>
<polygon fill="#7eceb0" stroke="#7eceb0" points="1968.68,-250.36 1959.16,-245.7 1963.69,-255.28 1968.68,-250.36"/>
</g>
<!-- at_contacts_flutter&#45;&gt;at_contact -->
<g id="edge43" class="edge">
<title>at_contacts_flutter&#45;&gt;at_contact</title>
<path fill="none" stroke="#250aa2" d="M3261.35,-2687.31C3222.9,-2624.69 3090.12,-2401.33 3024,-2199.44 2946.01,-1961.32 3062.59,-1853.84 2925,-1644.44 2765.47,-1401.66 2426.36,-1258.06 2293.76,-1209.31"/>
<polygon fill="#250aa2" stroke="#250aa2" points="2294.79,-1205.96 2284.2,-1205.83 2292.4,-1212.54 2294.79,-1205.96"/>
</g>
<!-- at_contacts_flutter&#45;&gt;at_lookup -->
<g id="edge44" class="edge">
<title>at_contacts_flutter&#45;&gt;at_lookup</title>
<path fill="none" stroke="#94d42d" d="M3242.29,-2687.41C3141.75,-2628.86 2808.19,-2426.84 2585,-2199.44 2556.41,-2170.31 2559.7,-2154.42 2532,-2124.44 2359.48,-1937.69 2110.57,-1756.96 2021.37,-1694.46"/>
<polygon fill="#94d42d" stroke="#94d42d" points="2023.2,-1691.47 2013,-1688.61 2019.19,-1697.21 2023.2,-1691.47"/>
</g>
<!-- at_contacts_flutter&#45;&gt;at_utils -->
<g id="edge45" class="edge">
<title>at_contacts_flutter&#45;&gt;at_utils</title>
<path fill="none" stroke="#75e849" d="M3275.37,-2686.98C3288.48,-2615.67 3332.67,-2340.16 3278,-2124.44 3102.77,-1433.02 2352.55,-853.32 2187.29,-732.54"/>
<polygon fill="#75e849" stroke="#75e849" points="2189.13,-729.55 2178.99,-726.5 2185.01,-735.21 2189.13,-729.55"/>
</g>
<!-- at_contacts_group_flutter -->
<g id="node13" class="node">
<title>at_contacts_group_flutter</title>
<polygon fill="none" stroke="#dae1d2" points="3249,-3204.44 3051,-3204.44 3051,-3168.44 3249,-3168.44 3249,-3204.44"/>
<text text-anchor="middle" x="3150" y="-3182.74" font-family="Times,serif" font-size="14.00">at_contacts_group_flutter</text>
</g>
<!-- at_contacts_group_flutter&#45;&gt;at_client_mobile -->
<g id="edge46" class="edge">
<title>at_contacts_group_flutter&#45;&gt;at_client_mobile</title>
<path fill="none" stroke="#d9577c" d="M3130.27,-3168.2C3067.57,-3111.99 2872.92,-2925.87 2803,-2723.44 2734.19,-2524.22 2771.21,-2262.26 2785.89,-2178.45"/>
<polygon fill="#d9577c" stroke="#d9577c" points="2789.36,-2178.93 2787.68,-2168.47 2782.47,-2177.7 2789.36,-2178.93"/>
</g>
<!-- at_contacts_group_flutter&#45;&gt;at_common_flutter -->
<g id="edge47" class="edge">
<title>at_contacts_group_flutter&#45;&gt;at_common_flutter</title>
<path fill="none" stroke="#bf681f" d="M3161.61,-3168.43C3200.75,-3109.91 3327.81,-2910.18 3370,-2723.44 3420.07,-2501.83 3228.98,-2254.46 3162.23,-2176.41"/>
<polygon fill="#bf681f" stroke="#bf681f" points="3164.63,-2173.84 3155.44,-2168.57 3159.34,-2178.42 3164.63,-2173.84"/>
</g>
<!-- at_contacts_group_flutter&#45;&gt;at_commons -->
<g id="edge48" class="edge">
<title>at_contacts_group_flutter&#45;&gt;at_commons</title>
<path fill="none" stroke="#7eceb0" d="M3113.22,-3168.41C2894.56,-3064.37 1775,-2491.65 1775,-1671.44 1775,-1671.44 1775,-1671.44 1775,-1188.44 1775,-813.56 1900.14,-368.35 1933.76,-255.47"/>
<polygon fill="#7eceb0" stroke="#7eceb0" points="1937.21,-256.18 1936.73,-245.6 1930.5,-254.17 1937.21,-256.18"/>
</g>
<!-- at_contacts_group_flutter&#45;&gt;at_contact -->
<g id="edge49" class="edge">
<title>at_contacts_group_flutter&#45;&gt;at_contact</title>
<path fill="none" stroke="#250aa2" d="M3134.82,-3168.18C3085.14,-3110.4 2927.58,-2916.55 2874,-2723.44 2745.79,-2261.34 3090.46,-2070.84 2871,-1644.44 2745.82,-1401.22 2423.31,-1258.73 2293.91,-1209.78"/>
<polygon fill="#250aa2" stroke="#250aa2" points="2294.79,-1206.37 2284.2,-1206.15 2292.34,-1212.93 2294.79,-1206.37"/>
</g>
<!-- at_contacts_group_flutter&#45;&gt;at_contacts_flutter -->
<g id="edge50" class="edge">
<title>at_contacts_group_flutter&#45;&gt;at_contacts_flutter</title>
<path fill="none" stroke="#1267b5" d="M3154.34,-3168.39C3172.55,-3096.88 3242.87,-2820.82 3265.17,-2733.25"/>
<polygon fill="#1267b5" stroke="#1267b5" points="3268.57,-2734.09 3267.65,-2723.53 3261.79,-2732.36 3268.57,-2734.09"/>
</g>
<!-- at_contacts_group_flutter&#45;&gt;at_utils -->
<g id="edge51" class="edge">
<title>at_contacts_group_flutter&#45;&gt;at_utils</title>
<path fill="none" stroke="#75e849" d="M3249.03,-3176.86C3511.26,-3149.11 4195.72,-3041.38 4077,-2679.44 3732.38,-1628.83 2440.41,-867.95 2195.29,-731.41"/>
<polygon fill="#75e849" stroke="#75e849" points="2196.8,-728.25 2186.35,-726.46 2193.4,-734.37 2196.8,-728.25"/>
</g>
<!-- at_cram -->
<g id="node14" class="node">
<title>at_cram</title>
<polygon fill="none" stroke="#c89a29" points="1358,-3204.44 1284,-3204.44 1284,-3168.44 1358,-3168.44 1358,-3204.44"/>
<text text-anchor="middle" x="1321" y="-3182.74" font-family="Times,serif" font-size="14.00">at_cram</text>
</g>
<!-- at_daemon_cli -->
<g id="node15" class="node">
<title>at_daemon_cli</title>
<polygon fill="none" stroke="#8e17d5" points="484.5,-3204.44 367.5,-3204.44 367.5,-3168.44 484.5,-3168.44 484.5,-3204.44"/>
<text text-anchor="middle" x="426" y="-3182.74" font-family="Times,serif" font-size="14.00">at_daemon_cli</text>
</g>
<!-- at_daemon_cli&#45;&gt;at_client -->
<g id="edge52" class="edge">
<title>at_daemon_cli&#45;&gt;at_client</title>
<path fill="none" stroke="#61d4fc" d="M435.58,-3168.26C474.52,-3099.62 627.52,-2840.93 809,-2679.44 1119.44,-2403.19 2340.82,-1812.5 2591.06,-1692.84"/>
<polygon fill="#61d4fc" stroke="#61d4fc" points="2592.71,-1695.93 2600.23,-1688.46 2589.69,-1689.61 2592.71,-1695.93"/>
</g>
<!-- at_daemon_cli&#45;&gt;at_commons -->
<g id="edge57" class="edge">
<title>at_daemon_cli&#45;&gt;at_commons</title>
<path fill="none" stroke="#7eceb0" d="M411.16,-3168.09C362.55,-3110.04 208.1,-2915.44 152,-2723.44 80.67,-2479.28 133,-2405.8 133,-2151.44 133,-2151.44 133,-2151.44 133,-1188.44 133,-952.48 143.86,-850.75 317,-690.44 556.84,-468.37 1610.83,-282.78 1879.5,-238.48"/>
<polygon fill="#7eceb0" stroke="#7eceb0" points="1880.17,-241.92 1889.47,-236.84 1879.03,-235.01 1880.17,-241.92"/>
</g>
<!-- at_daemon_core -->
<g id="node17" class="node">
<title>at_daemon_core</title>
<polygon fill="none" stroke="#c16272" points="386.5,-2168.44 255.5,-2168.44 255.5,-2132.44 386.5,-2132.44 386.5,-2168.44"/>
<text text-anchor="middle" x="321" y="-2146.74" font-family="Times,serif" font-size="14.00">at_daemon_core</text>
</g>
<!-- at_daemon_cli&#45;&gt;at_daemon_core -->
<g id="edge54" class="edge">
<title>at_daemon_cli&#45;&gt;at_daemon_core</title>
<path fill="none" stroke="#c16272" d="M417.69,-3168.43C395.69,-3108.27 340.52,-2899.72 321,-2723.44 297.93,-2515.13 306.78,-2261.57 315.64,-2178.91"/>
<polygon fill="#c16272" stroke="#c16272" points="319.13,-2179.17 316.83,-2168.83 312.18,-2178.35 319.13,-2179.17"/>
</g>
<!-- at_daemon_cli&#45;&gt;at_daemon_core -->
<g id="edge58" class="edge">
<title>at_daemon_cli&#45;&gt;at_daemon_core</title>
<path fill="none" stroke="#c16272" stroke-dasharray="1,5" d="M424.8,-3168.43C413.69,-3108.27 358.52,-2899.72 339,-2723.44 315.93,-2515.13 324.78,-2261.57 323.56,-2178.91"/>
<polygon fill="#c16272" stroke="#c16272" points="327.06,-2178.75 323.33,-2168.83 320.06,-2178.91 327.06,-2178.75"/>
</g>
<!-- at_daemon_server -->
<g id="node19" class="node">
<title>at_daemon_server</title>
<polygon fill="none" stroke="#4bd261" points="485,-2723.44 339,-2723.44 339,-2687.44 485,-2687.44 485,-2723.44"/>
<text text-anchor="middle" x="412" y="-2701.74" font-family="Times,serif" font-size="14.00">at_daemon_server</text>
</g>
<!-- at_daemon_cli&#45;&gt;at_daemon_server -->
<g id="edge55" class="edge">
<title>at_daemon_cli&#45;&gt;at_daemon_server</title>
<path fill="none" stroke="#4bd261" d="M422.79,-3168.39C415.54,-3097.03 407.29,-2821.94 409.45,-2733.79"/>
<polygon fill="#4bd261" stroke="#4bd261" points="412.96,-2733.64 409.78,-2723.53 405.96,-2733.41 412.96,-2733.64"/>
</g>
<!-- at_daemon_cli&#45;&gt;at_daemon_server -->
<g id="edge59" class="edge">
<title>at_daemon_cli&#45;&gt;at_daemon_server</title>
<path fill="none" stroke="#4bd261" stroke-dasharray="1,5" d="M428.21,-3168.39C431.29,-3096.96 423.45,-2821.38 416.13,-2733.52"/>
<polygon fill="#4bd261" stroke="#4bd261" points="419.61,-2733.17 415.21,-2723.53 412.64,-2733.81 419.61,-2733.17"/>
</g>
<!-- at_daemon_cli&#45;&gt;at_onboarding_cli -->
<g id="edge53" class="edge">
<title>at_daemon_cli&#45;&gt;at_onboarding_cli</title>
<path fill="none" stroke="#514d2d" d="M481.59,-3168.39C721.17,-3094.92 1664.92,-2805.51 1922.66,-2726.48"/>
<polygon fill="#514d2d" stroke="#514d2d" points="1923.73,-2729.81 1932.26,-2723.53 1921.67,-2723.12 1923.73,-2729.81"/>
</g>
<!-- at_daemon_cli&#45;&gt;at_utils -->
<g id="edge56" class="edge">
<title>at_daemon_cli&#45;&gt;at_utils</title>
<path fill="none" stroke="#75e849" d="M430.5,-3168.38C446.23,-3108.05 499.35,-2899.03 527,-2723.44 581.18,-2379.37 458.7,-1433.23 679,-1163.44 871.58,-927.59 1884.43,-752.85 2110.31,-716.45"/>
<polygon fill="#75e849" stroke="#75e849" points="2111.15,-719.86 2120.46,-714.82 2110.04,-712.95 2111.15,-719.86"/>
</g>
<!-- at_daemon_client -->
<g id="node16" class="node">
<title>at_daemon_client</title>
<polygon fill="none" stroke="#dbe812" points="301,-2723.44 161,-2723.44 161,-2687.44 301,-2687.44 301,-2723.44"/>
<text text-anchor="middle" x="231" y="-2701.74" font-family="Times,serif" font-size="14.00">at_daemon_client</text>
</g>
<!-- at_daemon_client&#45;&gt;at_daemon_core -->
<g id="edge60" class="edge">
<title>at_daemon_client&#45;&gt;at_daemon_core</title>
<path fill="none" stroke="#c16272" d="M231.24,-2687.28C238.76,-2607.94 292.53,-2276.35 313.43,-2178.64"/>
<polygon fill="#c16272" stroke="#c16272" points="316.9,-2179.19 315.64,-2168.67 310.06,-2177.68 316.9,-2179.19"/>
</g>
<!-- at_daemon_client&#45;&gt;at_daemon_core -->
<g id="edge61" class="edge">
<title>at_daemon_client&#45;&gt;at_daemon_core</title>
<path fill="none" stroke="#c16272" stroke-dasharray="1,5" d="M236.34,-2687.28C254.65,-2607.94 308.81,-2276.35 319.71,-2178.64"/>
<polygon fill="#c16272" stroke="#c16272" points="323.19,-2178.98 320.75,-2168.67 316.23,-2178.25 323.19,-2178.98"/>
</g>
<!-- at_daemon_core&#45;&gt;at_commons -->
<g id="edge63" class="edge">
<title>at_daemon_core&#45;&gt;at_commons</title>
<path fill="none" stroke="#7eceb0" d="M314.65,-2132.4C267.52,-2002.78 -16.03,-1164.69 347,-690.44 542.39,-435.18 1607.74,-274.05 1879.09,-236.76"/>
<polygon fill="#7eceb0" stroke="#7eceb0" points="1879.73,-240.21 1889.16,-235.39 1878.78,-233.27 1879.73,-240.21"/>
</g>
<!-- at_daemon_core&#45;&gt;at_utils -->
<g id="edge62" class="edge">
<title>at_daemon_core&#45;&gt;at_utils</title>
<path fill="none" stroke="#75e849" d="M321.67,-2132.17C326.67,-2013.06 361.63,-1313.61 499,-1163.44 728.99,-912.02 1868.73,-747.6 2110.06,-715.29"/>
<polygon fill="#75e849" stroke="#75e849" points="2110.77,-718.72 2120.22,-713.93 2109.84,-711.78 2110.77,-718.72"/>
</g>
<!-- at_daemon_desktop -->
<g id="node18" class="node">
<title>at_daemon_desktop</title>
<polygon fill="none" stroke="#89d485" points="349.5,-3204.44 192.5,-3204.44 192.5,-3168.44 349.5,-3168.44 349.5,-3204.44"/>
<text text-anchor="middle" x="271" y="-3182.74" font-family="Times,serif" font-size="14.00">at_daemon_desktop</text>
</g>
<!-- at_daemon_server&#45;&gt;at_client -->
<g id="edge64" class="edge">
<title>at_daemon_server&#45;&gt;at_client</title>
<path fill="none" stroke="#61d4fc" d="M446.07,-2687.38C587.77,-2616.53 1144.78,-2339.2 1609,-2124.44 1983.25,-1951.3 2440.48,-1754.88 2587.82,-1691.96"/>
<polygon fill="#61d4fc" stroke="#61d4fc" points="2589.25,-1695.16 2597.07,-1688.01 2586.5,-1688.72 2589.25,-1695.16"/>
</g>
<!-- at_daemon_server&#45;&gt;at_daemon_core -->
<g id="edge65" class="edge">
<title>at_daemon_server&#45;&gt;at_daemon_core</title>
<path fill="none" stroke="#c16272" d="M406.63,-2687.28C388.17,-2607.94 333.41,-2276.35 322.34,-2178.64"/>
<polygon fill="#c16272" stroke="#c16272" points="325.82,-2178.24 321.28,-2168.67 318.86,-2178.98 325.82,-2178.24"/>
</g>
<!-- at_daemon_server&#45;&gt;at_daemon_core -->
<g id="edge68" class="edge">
<title>at_daemon_server&#45;&gt;at_daemon_core</title>
<path fill="none" stroke="#c16272" stroke-dasharray="1,5" d="M411.72,-2687.28C404.07,-2607.94 349.7,-2276.35 328.61,-2178.64"/>
<polygon fill="#c16272" stroke="#c16272" points="331.98,-2177.67 326.39,-2168.67 325.15,-2179.19 331.98,-2177.67"/>
</g>
<!-- at_daemon_server&#45;&gt;at_onboarding_cli -->
<g id="edge67" class="edge">
<title>at_daemon_server&#45;&gt;at_onboarding_cli</title>
<path fill="none" stroke="#514d2d" d="M432.95,-2723.57C489.94,-2771.54 654.44,-2901.13 818,-2945.94 1214.07,-3054.44 1361.71,-3100.95 1742,-2945.94 1849.97,-2901.93 1936.31,-2785.2 1971.24,-2732.24"/>
<polygon fill="#514d2d" stroke="#514d2d" points="1974.26,-2734.01 1976.78,-2723.71 1968.39,-2730.19 1974.26,-2734.01"/>
</g>
<!-- at_server_spec -->
<g id="node39" class="node">
<title>at_server_spec</title>
<polygon fill="none" stroke="#e6f023" points="813,-1688.44 691,-1688.44 691,-1652.44 813,-1652.44 813,-1688.44"/>
<text text-anchor="middle" x="752" y="-1666.74" font-family="Times,serif" font-size="14.00">at_server_spec</text>
</g>
<!-- at_daemon_server&#45;&gt;at_server_spec -->
<g id="edge66" class="edge">
<title>at_daemon_server&#45;&gt;at_server_spec</title>
<path fill="none" stroke="#e6f023" d="M417.62,-2687.37C457.2,-2567.1 694.04,-1847.54 743.11,-1698.46"/>
<polygon fill="#e6f023" stroke="#e6f023" points="746.51,-1699.32 746.31,-1688.73 739.86,-1697.14 746.51,-1699.32"/>
</g>
<!-- at_dump_atKeys -->
<g id="node20" class="node">
<title>at_dump_atKeys</title>
<polygon fill="none" stroke="#80b159" points="1109.5,-3204.44 976.5,-3204.44 976.5,-3168.44 1109.5,-3168.44 1109.5,-3204.44"/>
<text text-anchor="middle" x="1043" y="-3182.74" font-family="Times,serif" font-size="14.00">at_dump_atKeys</text>
</g>
<!-- at_pkam -->
<g id="node34" class="node">
<title>at_pkam</title>
<polygon fill="none" stroke="#d549ec" points="1081.5,-2723.44 1004.5,-2723.44 1004.5,-2687.44 1081.5,-2687.44 1081.5,-2723.44"/>
<text text-anchor="middle" x="1043" y="-2701.74" font-family="Times,serif" font-size="14.00">at_pkam</text>
</g>
<!-- at_dump_atKeys&#45;&gt;at_pkam -->
<g id="edge69" class="edge">
<title>at_dump_atKeys&#45;&gt;at_pkam</title>
<path fill="none" stroke="#d549ec" stroke-dasharray="1,5" d="M1043,-3168.39C1043,-3097.03 1043,-2821.94 1043,-2733.79"/>
<polygon fill="#d549ec" stroke="#d549ec" points="1046.5,-2733.53 1043,-2723.53 1039.5,-2733.53 1046.5,-2733.53"/>
</g>
<!-- at_events_flutter -->
<g id="node21" class="node">
<title>at_events_flutter</title>
<polygon fill="none" stroke="#5b74f7" points="3218.5,-3705.44 3081.5,-3705.44 3081.5,-3669.44 3218.5,-3669.44 3218.5,-3705.44"/>
<text text-anchor="middle" x="3150" y="-3683.74" font-family="Times,serif" font-size="14.00">at_events_flutter</text>
</g>
<!-- at_events_flutter&#45;&gt;at_client -->
<g id="edge70" class="edge">
<title>at_events_flutter&#45;&gt;at_client</title>
<path fill="none" stroke="#61d4fc" d="M3191.01,-3669.31C3396.25,-3580.95 4292.99,-3162.02 4061,-2679.44 3767.29,-2068.48 2898.8,-1755.59 2684.31,-1686.35"/>
<polygon fill="#61d4fc" stroke="#61d4fc" points="2685.18,-1682.96 2674.59,-1683.24 2683.05,-1689.62 2685.18,-1682.96"/>
</g>
<!-- at_events_flutter&#45;&gt;at_client_mobile -->
<g id="edge71" class="edge">
<title>at_events_flutter&#45;&gt;at_client_mobile</title>
<path fill="none" stroke="#d9577c" d="M3115.95,-3669.42C3018.52,-3618.74 2737.62,-3458.33 2613,-3235.44 2491.29,-3017.74 2481.55,-2922.61 2537,-2679.44 2584.28,-2472.1 2723.73,-2251.28 2773.28,-2177.27"/>
<polygon fill="#d9577c" stroke="#d9577c" points="2776.44,-2178.84 2779.13,-2168.59 2770.64,-2174.93 2776.44,-2178.84"/>
</g>
<!-- at_events_flutter&#45;&gt;at_common_flutter -->
<g id="edge72" class="edge">
<title>at_events_flutter&#45;&gt;at_common_flutter</title>
<path fill="none" stroke="#bf681f" d="M3174.64,-3669.3C3307.95,-3574.39 3929.88,-3102.15 3739,-2679.44 3620.82,-2417.73 3301.72,-2233.85 3184.22,-2173.2"/>
<polygon fill="#bf681f" stroke="#bf681f" points="3185.62,-2169.98 3175.12,-2168.54 3182.43,-2176.21 3185.62,-2169.98"/>
</g>
<!-- at_events_flutter&#45;&gt;at_commons -->
<g id="edge73" class="edge">
<title>at_events_flutter&#45;&gt;at_commons</title>
<path fill="none" stroke="#7eceb0" d="M3218.52,-3671.41C3453,-3618.47 4216.48,-3433.12 4355,-3235.44 4487.2,-3046.77 4372.61,-1373.94 4279,-1163.44 4168.41,-914.74 4120.94,-834.49 3890,-690.44 3238.44,-284.02 2260.58,-235 2004.95,-229.19"/>
<polygon fill="#7eceb0" stroke="#7eceb0" points="2004.81,-225.69 1994.74,-228.98 2004.66,-232.69 2004.81,-225.69"/>
</g>
<!-- at_events_flutter&#45;&gt;at_contact -->
<g id="edge74" class="edge">
<title>at_events_flutter&#45;&gt;at_contact</title>
<path fill="none" stroke="#250aa2" d="M3081.47,-3673.22C2834.46,-3624.12 1995.98,-3444.21 1837,-3235.44 1407.76,-2671.76 1623.66,-2279.89 1937,-1644.44 2023.32,-1469.38 2166.49,-1281.81 2218.95,-1215.44"/>
<polygon fill="#250aa2" stroke="#250aa2" points="2221.7,-1217.61 2225.17,-1207.6 2216.21,-1213.26 2221.7,-1217.61"/>
</g>
<!-- at_events_flutter&#45;&gt;at_contacts_flutter -->
<g id="edge75" class="edge">
<title>at_events_flutter&#45;&gt;at_contacts_flutter</title>
<path fill="none" stroke="#1267b5" d="M3155.56,-3669.06C3174.31,-3609.46 3235.38,-3407.46 3258,-3235.44 3283.06,-3044.87 3276.51,-2812.48 3273.28,-2733.89"/>
<polygon fill="#1267b5" stroke="#1267b5" points="3276.76,-2733.28 3272.83,-2723.44 3269.76,-2733.58 3276.76,-2733.28"/>
</g>
<!-- at_events_flutter&#45;&gt;at_contacts_group_flutter -->
<g id="edge76" class="edge">
<title>at_events_flutter&#45;&gt;at_contacts_group_flutter</title>
<path fill="none" stroke="#dae1d2" d="M3150,-3669.26C3150,-3595.48 3150,-3305.14 3150,-3214.57"/>
<polygon fill="#dae1d2" stroke="#dae1d2" points="3153.5,-3214.54 3150,-3204.54 3146.5,-3214.54 3153.5,-3214.54"/>
</g>
<!-- at_location_flutter -->
<g id="node25" class="node">
<title>at_location_flutter</title>
<polygon fill="none" stroke="#283e9c" points="3029,-3204.44 2883,-3204.44 2883,-3168.44 3029,-3168.44 3029,-3204.44"/>
<text text-anchor="middle" x="2956" y="-3182.74" font-family="Times,serif" font-size="14.00">at_location_flutter</text>
</g>
<!-- at_events_flutter&#45;&gt;at_location_flutter -->
<g id="edge77" class="edge">
<title>at_events_flutter&#45;&gt;at_location_flutter</title>
<path fill="none" stroke="#283e9c" d="M3143.32,-3669.26C3114.58,-3595.33 3001.3,-3303.95 2966.33,-3214.02"/>
<polygon fill="#283e9c" stroke="#283e9c" points="2969.54,-3212.6 2962.65,-3204.54 2963.01,-3215.13 2969.54,-3212.6"/>
</g>
<!-- at_events_flutter&#45;&gt;at_lookup -->
<g id="edge78" class="edge">
<title>at_events_flutter&#45;&gt;at_lookup</title>
<path fill="none" stroke="#94d42d" d="M3081.48,-3673.01C2837.54,-3623.68 2017.96,-3444.45 1870,-3235.44 1685.95,-2975.46 1936.86,-1884.4 1981.43,-1698.44"/>
<polygon fill="#94d42d" stroke="#94d42d" points="1984.85,-1699.19 1983.79,-1688.65 1978.05,-1697.55 1984.85,-1699.19"/>
</g>
<!-- at_events_flutter&#45;&gt;at_utils -->
<g id="edge79" class="edge">
<title>at_events_flutter&#45;&gt;at_utils</title>
<path fill="none" stroke="#75e849" d="M3218.81,-3670.36C3448.9,-3615.11 4184.75,-3425.92 4322,-3235.44 4459.59,-3044.49 4346,-2941.79 4346,-2706.44 4346,-2706.44 4346,-2706.44 4346,-2149.44 4346,-1689.26 4393.41,-1445.74 4030,-1163.44 3725.91,-927.22 2455.42,-749.07 2199.89,-715.25"/>
<polygon fill="#75e849" stroke="#75e849" points="2200.22,-711.77 2189.85,-713.93 2199.31,-718.71 2200.22,-711.77"/>
</g>
<!-- at_follows_flutter -->
<g id="node22" class="node">
<title>at_follows_flutter</title>
<polygon fill="none" stroke="#13b24b" points="3023,-3705.44 2883,-3705.44 2883,-3669.44 3023,-3669.44 3023,-3705.44"/>
<text text-anchor="middle" x="2953" y="-3683.74" font-family="Times,serif" font-size="14.00">at_follows_flutter</text>
</g>
<!-- at_follows_flutter&#45;&gt;at_client -->
<g id="edge80" class="edge">
<title>at_follows_flutter&#45;&gt;at_client</title>
<path fill="none" stroke="#61d4fc" d="M2925.37,-3669.3C2842.16,-3616.15 2592.19,-3445.08 2470,-3235.44 2352.15,-3033.24 2374.52,-2955.84 2347,-2723.44 2325.67,-2543.31 2125.11,-2947.21 2367,-2124.44 2419.96,-1944.3 2560.96,-1761.77 2614.75,-1696.52"/>
<polygon fill="#61d4fc" stroke="#61d4fc" points="2617.75,-1698.38 2621.45,-1688.45 2612.37,-1693.91 2617.75,-1698.38"/>
</g>
<!-- at_follows_flutter&#45;&gt;at_client_mobile -->
<g id="edge81" class="edge">
<title>at_follows_flutter&#45;&gt;at_client_mobile</title>
<path fill="none" stroke="#d9577c" d="M2923.89,-3669.41C2838.49,-3617.51 2588.96,-3451.61 2499,-3235.44 2404.06,-3007.29 2437.25,-2918.71 2499,-2679.44 2553.71,-2467.45 2713.72,-2249.67 2770.62,-2176.86"/>
<polygon fill="#d9577c" stroke="#d9577c" points="2773.6,-2178.73 2777.04,-2168.7 2768.1,-2174.4 2773.6,-2178.73"/>
</g>
<!-- at_follows_flutter&#45;&gt;at_commons -->
<g id="edge82" class="edge">
<title>at_follows_flutter&#45;&gt;at_commons</title>
<path fill="none" stroke="#7eceb0" d="M3023.07,-3675.23C3211.53,-3641.76 3735.98,-3526.2 4047,-3235.44 4238.52,-3056.4 4308,-2968.61 4308,-2706.44 4308,-2706.44 4308,-2706.44 4308,-2149.44 4308,-1470.85 4422.91,-1066.42 3858,-690.44 3229.01,-271.81 2259.59,-231.63 2004.99,-228.5"/>
<polygon fill="#7eceb0" stroke="#7eceb0" points="2004.85,-225 1994.82,-228.39 2004.78,-232 2004.85,-225"/>
</g>
<!-- at_follows_flutter&#45;&gt;at_lookup -->
<g id="edge83" class="edge">
<title>at_follows_flutter&#45;&gt;at_lookup</title>
<path fill="none" stroke="#94d42d" d="M2882.72,-3683.3C2678.28,-3669.92 2082.82,-3599.92 1837,-3235.44 1484.4,-2712.65 1891.69,-1858.77 1974.05,-1697.99"/>
<polygon fill="#94d42d" stroke="#94d42d" points="1977.31,-1699.3 1978.79,-1688.81 1971.09,-1696.09 1977.31,-1699.3"/>
</g>
<!-- at_server_status -->
<g id="node40" class="node">
<title>at_server_status</title>
<polygon fill="none" stroke="#320113" points="2093,-2168.44 1959,-2168.44 1959,-2132.44 2093,-2132.44 2093,-2168.44"/>
<text text-anchor="middle" x="2026" y="-2146.74" font-family="Times,serif" font-size="14.00">at_server_status</text>
</g>
<!-- at_follows_flutter&#45;&gt;at_server_status -->
<g id="edge84" class="edge">
<title>at_follows_flutter&#45;&gt;at_server_status</title>
<path fill="none" stroke="#320113" d="M2914.29,-3669.41C2805.5,-3619.55 2494.65,-3462.88 2336,-3235.44 2207.77,-3051.6 2060.87,-2329.14 2031.33,-2178.9"/>
<polygon fill="#320113" stroke="#320113" points="2034.69,-2177.85 2029.34,-2168.71 2027.82,-2179.2 2034.69,-2177.85"/>
</g>
<!-- at_follows_flutter&#45;&gt;at_utils -->
<g id="edge85" class="edge">
<title>at_follows_flutter&#45;&gt;at_utils</title>
<path fill="none" stroke="#75e849" d="M3023.34,-3671.06C3296.26,-3606.85 4270,-3333.8 4270,-2706.44 4270,-2706.44 4270,-2706.44 4270,-2149.44 4270,-1694.49 4343.57,-1455.8 3995,-1163.44 3705.33,-920.48 2452.91,-747.86 2199.72,-715.09"/>
<polygon fill="#75e849" stroke="#75e849" points="2200.14,-711.62 2189.78,-713.81 2199.25,-718.56 2200.14,-711.62"/>
</g>
<!-- at_hive_recovery -->
<g id="node23" class="node">
<title>at_hive_recovery</title>
<polygon fill="none" stroke="#f0efbc" points="958.5,-3204.44 821.5,-3204.44 821.5,-3168.44 958.5,-3168.44 958.5,-3204.44"/>
<text text-anchor="middle" x="890" y="-3182.74" font-family="Times,serif" font-size="14.00">at_hive_recovery</text>
</g>
<!-- at_hive_recovery&#45;&gt;at_persistence_secondary_server -->
<g id="edge86" class="edge">
<title>at_hive_recovery&#45;&gt;at_persistence_secondary_server</title>
<path fill="none" stroke="#9760d3" d="M890.75,-3168.44C897.49,-3016.26 947.35,-1889.59 955.79,-1698.84"/>
<polygon fill="#9760d3" stroke="#9760d3" points="959.29,-1698.95 956.23,-1688.8 952.29,-1698.64 959.29,-1698.95"/>
</g>
<!-- at_invitation_flutter -->
<g id="node24" class="node">
<title>at_invitation_flutter</title>
<polygon fill="none" stroke="#b653c9" points="3041,-2723.44 2883,-2723.44 2883,-2687.44 3041,-2687.44 3041,-2723.44"/>
<text text-anchor="middle" x="2962" y="-2701.74" font-family="Times,serif" font-size="14.00">at_invitation_flutter</text>
</g>
<!-- at_invitation_flutter&#45;&gt;at_client_mobile -->
<g id="edge87" class="edge">
<title>at_invitation_flutter&#45;&gt;at_client_mobile</title>
<path fill="none" stroke="#d9577c" d="M2956.69,-2687.28C2932.14,-2607.86 2829.42,-2275.68 2799.32,-2178.35"/>
<polygon fill="#d9577c" stroke="#d9577c" points="2802.63,-2177.19 2796.33,-2168.67 2795.94,-2179.26 2802.63,-2177.19"/>
</g>
<!-- at_invitation_flutter&#45;&gt;at_common_flutter -->
<g id="edge88" class="edge">
<title>at_invitation_flutter&#45;&gt;at_common_flutter</title>
<path fill="none" stroke="#bf681f" d="M2967.52,-2687.28C2993.09,-2607.86 3100.01,-2275.68 3131.34,-2178.35"/>
<polygon fill="#bf681f" stroke="#bf681f" points="3134.72,-2179.26 3134.45,-2168.67 3128.06,-2177.11 3134.72,-2179.26"/>
</g>
<!-- at_invitation_flutter&#45;&gt;at_commons -->
<g id="edge89" class="edge">
<title>at_invitation_flutter&#45;&gt;at_commons</title>
<path fill="none" stroke="#7eceb0" d="M2963.52,-2687.31C2971.98,-2585.26 3008.09,-2048 2871,-1644.44 2655.63,-1010.45 2088.27,-383.87 1965.6,-253.23"/>
<polygon fill="#7eceb0" stroke="#7eceb0" points="1967.89,-250.56 1958.49,-245.68 1962.8,-255.36 1967.89,-250.56"/>
</g>
<!-- at_invitation_flutter&#45;&gt;at_lookup -->
<g id="edge90" class="edge">
<title>at_invitation_flutter&#45;&gt;at_lookup</title>
<path fill="none" stroke="#94d42d" d="M2945.91,-2687.37C2831.94,-2566.49 2147.24,-1840.33 2011.41,-1696.27"/>
<polygon fill="#94d42d" stroke="#94d42d" points="2013.71,-1693.61 2004.3,-1688.73 2008.62,-1698.41 2013.71,-1693.61"/>
</g>
<!-- at_invitation_flutter&#45;&gt;at_utils -->
<g id="edge91" class="edge">
<title>at_invitation_flutter&#45;&gt;at_utils</title>
<path fill="none" stroke="#75e849" d="M2980.1,-2687.43C3050.69,-2618.93 3299.96,-2355.93 3224,-2124.44 3005.44,-1458.34 2329.99,-857.75 2183.3,-733.08"/>
<polygon fill="#75e849" stroke="#75e849" points="2185.45,-730.31 2175.55,-726.52 2180.92,-735.65 2185.45,-730.31"/>
</g>
<!-- at_location_flutter&#45;&gt;at_client -->
<g id="edge92" class="edge">
<title>at_location_flutter&#45;&gt;at_client</title>
<path fill="none" stroke="#61d4fc" d="M2946.32,-3168.04C2913.54,-3108.25 2805.91,-2904.93 2755,-2723.44 2644.05,-2327.86 2636.13,-1821.06 2635.9,-1698.84"/>
<polygon fill="#61d4fc" stroke="#61d4fc" points="2639.4,-1698.53 2635.9,-1688.53 2632.4,-1698.53 2639.4,-1698.53"/>
</g>
<!-- at_location_flutter&#45;&gt;at_client_mobile -->
<g id="edge93" class="edge">
<title>at_location_flutter&#45;&gt;at_client_mobile</title>
<path fill="none" stroke="#d9577c" d="M2945.91,-3168.18C2911.87,-3108.87 2801.43,-2906.89 2765,-2723.44 2724.01,-2517 2768.6,-2260.79 2785.26,-2178.33"/>
<polygon fill="#d9577c" stroke="#d9577c" points="2788.69,-2179.01 2787.28,-2168.51 2781.83,-2177.6 2788.69,-2179.01"/>
</g>
<!-- at_location_flutter&#45;&gt;at_common_flutter -->
<g id="edge94" class="edge">
<title>at_location_flutter&#45;&gt;at_common_flutter</title>
<path fill="none" stroke="#bf681f" d="M2979.9,-3168.25C3053.63,-3113.56 3277.26,-2934.69 3356,-2723.44 3435.04,-2511.4 3232.66,-2255.86 3162.74,-2176.3"/>
<polygon fill="#bf681f" stroke="#bf681f" points="3165.28,-2173.89 3156.03,-2168.73 3160.05,-2178.54 3165.28,-2173.89"/>
</g>
<!-- at_location_flutter&#45;&gt;at_commons -->
<g id="edge95" class="edge">
<title>at_location_flutter&#45;&gt;at_commons</title>
<path fill="none" stroke="#7eceb0" d="M2910.47,-3168.4C2778.2,-3117.24 2387.14,-2954.16 2131,-2723.44 1919.17,-2532.63 1847.27,-2471.17 1761,-2199.44 1558.06,-1560.21 1636.51,-1349.45 1761,-690.44 1793.91,-516.22 1890.9,-323.51 1927.66,-254.65"/>
<polygon fill="#7eceb0" stroke="#7eceb0" points="1930.78,-256.24 1932.43,-245.77 1924.61,-252.92 1930.78,-256.24"/>
</g>
<!-- at_location_flutter&#45;&gt;at_contact -->
<g id="edge96" class="edge">
<title>at_location_flutter&#45;&gt;at_contact</title>
<path fill="none" stroke="#250aa2" d="M2946.98,-3168.15C2915.75,-3107.92 2810.33,-2901.29 2740,-2723.44 2503.94,-2126.53 2288.9,-1369.34 2246.54,-1217.61"/>
<polygon fill="#250aa2" stroke="#250aa2" points="2249.84,-1216.43 2243.79,-1207.74 2243.1,-1218.31 2249.84,-1216.43"/>
</g>
<!-- at_location_flutter&#45;&gt;at_contacts_flutter -->
<g id="edge97" class="edge">
<title>at_location_flutter&#45;&gt;at_contacts_flutter</title>
<path fill="none" stroke="#1267b5" d="M2967.25,-3168.39C3014.66,-3096.52 3198.4,-2818.01 3255.18,-2731.93"/>
<polygon fill="#1267b5" stroke="#1267b5" points="3258.14,-2733.81 3260.72,-2723.53 3252.3,-2729.95 3258.14,-2733.81"/>
</g>
<!-- at_location_flutter&#45;&gt;at_lookup -->
<g id="edge98" class="edge">
<title>at_location_flutter&#45;&gt;at_lookup</title>
<path fill="none" stroke="#94d42d" d="M2939.9,-3168.3C2884.97,-3109.36 2701.37,-2908.44 2575,-2723.44 2310.23,-2335.83 2058.53,-1819.26 2000.49,-1697.79"/>
<polygon fill="#94d42d" stroke="#94d42d" points="2003.52,-1696.01 1996.06,-1688.49 1997.2,-1699.02 2003.52,-1696.01"/>
</g>
<!-- at_location_flutter&#45;&gt;at_utils -->
<g id="edge99" class="edge">
<title>at_location_flutter&#45;&gt;at_utils</title>
<path fill="none" stroke="#75e849" d="M3029.26,-3169.06C3288.08,-3109.25 4139.85,-2894.79 4061,-2679.44 4023.08,-2575.86 2859.79,-1238.53 2779,-1163.44 2575.4,-974.18 2291.92,-793.47 2191.8,-731.78"/>
<polygon fill="#75e849" stroke="#75e849" points="2193.59,-728.78 2183.24,-726.52 2189.93,-734.74 2193.59,-728.78"/>
</g>
<!-- at_login_flutter -->
<g id="node26" class="node">
<title>at_login_flutter</title>
<polygon fill="none" stroke="#7ceee7" points="3361.5,-3705.44 3236.5,-3705.44 3236.5,-3669.44 3361.5,-3669.44 3361.5,-3705.44"/>
<text text-anchor="middle" x="3299" y="-3683.74" font-family="Times,serif" font-size="14.00">at_login_flutter</text>
</g>
<!-- at_login_flutter&#45;&gt;at_client -->
<g id="edge100" class="edge">
<title>at_login_flutter&#45;&gt;at_client</title>
<path fill="none" stroke="#61d4fc" d="M3272.76,-3669.32C3193.25,-3615.9 2953.59,-3443.43 2842,-3235.44 2543.9,-2679.83 2615.37,-1858.64 2632.78,-1698.91"/>
<polygon fill="#61d4fc" stroke="#61d4fc" points="2636.3,-1698.9 2633.93,-1688.57 2629.35,-1698.12 2636.3,-1698.9"/>
</g>
<!-- at_login_flutter&#45;&gt;at_client_mobile -->
<g id="edge101" class="edge">
<title>at_login_flutter&#45;&gt;at_client_mobile</title>
<path fill="none" stroke="#d9577c" d="M3275.71,-3669.25C3203.54,-3614.67 2982.01,-3436.94 2874,-3235.44 2673.42,-2861.24 2761.25,-2307.7 2785.51,-2178.91"/>
<polygon fill="#d9577c" stroke="#d9577c" points="2789.02,-2179.22 2787.46,-2168.74 2782.14,-2177.9 2789.02,-2179.22"/>
</g>
<!-- at_login_flutter&#45;&gt;at_commons -->
<g id="edge102" class="edge">
<title>at_login_flutter&#45;&gt;at_commons</title>
<path fill="none" stroke="#7eceb0" d="M3361.77,-3683.09C3557.38,-3668.93 4158.55,-3596.54 4422,-3235.44 4560.93,-3045.02 4460,-2942.16 4460,-2706.44 4460,-2706.44 4460,-2706.44 4460,-1188.44 4460,-865.21 4214.99,-842.93 3930,-690.44 3239.74,-321.1 2260.19,-245.15 2004.82,-231.28"/>
<polygon fill="#7eceb0" stroke="#7eceb0" points="2004.79,-227.77 1994.62,-230.74 2004.42,-234.76 2004.79,-227.77"/>
</g>
<!-- at_login_flutter&#45;&gt;at_server_status -->
<g id="edge103" class="edge">
<title>at_login_flutter&#45;&gt;at_server_status</title>
<path fill="none" stroke="#320113" d="M3255.44,-3669.32C3133.46,-3619.49 2783.73,-3463.46 2575,-3235.44 2253.26,-2883.95 2071.87,-2308.79 2033.65,-2178.32"/>
<polygon fill="#320113" stroke="#320113" points="2037.01,-2177.34 2030.86,-2168.72 2030.29,-2179.29 2037.01,-2177.34"/>
</g>
<!-- at_login_flutter&#45;&gt;at_utils -->
<g id="edge104" class="edge">
<title>at_login_flutter&#45;&gt;at_utils</title>
<path fill="none" stroke="#75e849" d="M3361.58,-3683.37C3556.4,-3670.06 4153.63,-3599.87 4398,-3235.44 4496.5,-3088.55 4400.36,-1814.27 4351,-1644.44 4281.65,-1405.83 4266.11,-1310.75 4066,-1163.44 3749.93,-930.77 2457.24,-749.46 2199.74,-715.26"/>
<polygon fill="#75e849" stroke="#75e849" points="2200,-711.76 2189.63,-713.92 2199.09,-718.7 2200,-711.76"/>
</g>
<!-- at_lookup&#45;&gt;at_chops -->
<g id="edge107" class="edge">
<title>at_lookup&#45;&gt;at_chops</title>
<path fill="none" stroke="#8fb4d4" d="M1990.46,-1652.39C2000.75,-1580.96 2040.44,-1305.38 2053.1,-1217.52"/>
<polygon fill="#8fb4d4" stroke="#8fb4d4" points="2056.58,-1217.93 2054.54,-1207.53 2049.65,-1216.93 2056.58,-1217.93"/>
</g>
<!-- at_lookup&#45;&gt;at_commons -->
<g id="edge106" class="edge">
<title>at_lookup&#45;&gt;at_commons</title>
<path fill="none" stroke="#7eceb0" d="M1987.45,-1652.25C1982.72,-1503.97 1948.81,-441.83 1942.88,-256.11"/>
<polygon fill="#7eceb0" stroke="#7eceb0" points="1946.37,-255.73 1942.56,-245.84 1939.38,-255.95 1946.37,-255.73"/>
</g>
<!-- at_lookup&#45;&gt;at_utils -->
<g id="edge105" class="edge">
<title>at_lookup&#45;&gt;at_utils</title>
<path fill="none" stroke="#75e849" d="M1987.05,-1652.22C1983.83,-1587.46 1975.3,-1352.57 2009,-1163.44 2038.83,-996.02 2114.78,-804.99 2143.64,-736.02"/>
<polygon fill="#75e849" stroke="#75e849" points="2146.89,-737.32 2147.54,-726.74 2140.44,-734.6 2146.89,-737.32"/>
</g>
<!-- at_notify_flutter -->
<g id="node28" class="node">
<title>at_notify_flutter</title>
<polygon fill="none" stroke="#19e4c3" points="3899.5,-2723.44 3768.5,-2723.44 3768.5,-2687.44 3899.5,-2687.44 3899.5,-2723.44"/>
<text text-anchor="middle" x="3834" y="-2701.74" font-family="Times,serif" font-size="14.00">at_notify_flutter</text>
</g>
<!-- at_notify_flutter&#45;&gt;at_client -->
<g id="edge108" class="edge">
<title>at_notify_flutter&#45;&gt;at_client</title>
<path fill="none" stroke="#61d4fc" d="M3821.29,-2687.37C3766.3,-2614.17 3541.32,-2321.59 3314,-2124.44 3092.4,-1932.24 2785.34,-1754.39 2676.35,-1693.59"/>
<polygon fill="#61d4fc" stroke="#61d4fc" points="2677.77,-1690.37 2667.33,-1688.57 2674.36,-1696.49 2677.77,-1690.37"/>
</g>
<!-- at_notify_flutter&#45;&gt;at_client_mobile -->
<g id="edge109" class="edge">
<title>at_notify_flutter&#45;&gt;at_client_mobile</title>
<path fill="none" stroke="#d9577c" d="M3799.5,-2687.25C3673.81,-2624.44 3229.01,-2400.49 2871,-2199.44 2856.52,-2191.31 2840.8,-2181.99 2827.17,-2173.74"/>
<polygon fill="#d9577c" stroke="#d9577c" points="2828.9,-2170.7 2818.54,-2168.49 2825.27,-2176.68 2828.9,-2170.7"/>
</g>
<!-- at_notify_flutter&#45;&gt;at_common_flutter -->
<g id="edge110" class="edge">
<title>at_notify_flutter&#45;&gt;at_common_flutter</title>
<path fill="none" stroke="#bf681f" d="M3812.47,-2687.28C3711.59,-2606.9 3285.75,-2267.58 3169.45,-2174.91"/>
<polygon fill="#bf681f" stroke="#bf681f" points="3171.62,-2172.16 3161.62,-2168.67 3167.26,-2177.64 3171.62,-2172.16"/>
</g>
<!-- at_notify_flutter&#45;&gt;at_commons -->
<g id="edge111" class="edge">
<title>at_notify_flutter&#45;&gt;at_commons</title>
<path fill="none" stroke="#7eceb0" d="M3833.68,-2687.4C3831.88,-2589.06 3823,-2083.94 3823,-1671.44 3823,-1671.44 3823,-1671.44 3823,-1188.44 3823,-966.08 3919.94,-859.07 3775,-690.44 3534.12,-410.19 2298.52,-265.48 2004.74,-234.72"/>
<polygon fill="#7eceb0" stroke="#7eceb0" points="2004.99,-231.23 1994.69,-233.67 2004.27,-238.19 2004.99,-231.23"/>
</g>
<!-- at_onboarding_cli&#45;&gt;at_auth -->
<g id="edge112" class="edge">
<title>at_onboarding_cli&#45;&gt;at_auth</title>
<path fill="none" stroke="#0f9477" d="M1992.9,-2687.28C2015.59,-2607.86 2110.5,-2275.68 2138.31,-2178.35"/>
<polygon fill="#0f9477" stroke="#0f9477" points="2141.7,-2179.24 2141.08,-2168.67 2134.96,-2177.32 2141.7,-2179.24"/>
</g>
<!-- at_onboarding_cli&#45;&gt;at_chops -->
<g id="edge113" class="edge">
<title>at_onboarding_cli&#45;&gt;at_chops</title>
<path fill="none" stroke="#8fb4d4" d="M1984.78,-2687.17C1966.47,-2586.44 1878.4,-2064.59 1937,-1644.44 1960.14,-1478.55 2023.43,-1286.51 2047.52,-1217.15"/>
<polygon fill="#8fb4d4" stroke="#8fb4d4" points="2050.91,-1218.05 2050.91,-1207.45 2044.3,-1215.74 2050.91,-1218.05"/>
</g>
<!-- at_onboarding_cli&#45;&gt;at_client -->
<g id="edge114" class="edge">
<title>at_onboarding_cli&#45;&gt;at_client</title>
<path fill="none" stroke="#61d4fc" d="M1995.67,-2687.25C2027.78,-2615.89 2156.02,-2336.82 2291,-2124.44 2400.33,-1952.42 2557.34,-1763.64 2614.31,-1696.68"/>
<polygon fill="#61d4fc" stroke="#61d4fc" points="2617.23,-1698.65 2621.06,-1688.77 2611.91,-1694.11 2617.23,-1698.65"/>
</g>
<!-- at_onboarding_cli&#45;&gt;at_commons -->
<g id="edge115" class="edge">
<title>at_onboarding_cli&#45;&gt;at_commons</title>
<path fill="none" stroke="#7eceb0" d="M1984.83,-2687.15C1966.99,-2588.41 1880,-2085.72 1880,-1671.44 1880,-1671.44 1880,-1671.44 1880,-1188.44 1880,-818.3 1926.47,-369.56 1938.95,-255.7"/>
<polygon fill="#7eceb0" stroke="#7eceb0" points="1942.46,-255.78 1940.08,-245.46 1935.5,-255.01 1942.46,-255.78"/>
</g>
<!-- at_onboarding_cli&#45;&gt;at_lookup -->
<g id="edge116" class="edge">
<title>at_onboarding_cli&#45;&gt;at_lookup</title>
<path fill="none" stroke="#94d42d" d="M1984.57,-2687.39C1970.94,-2617.69 1921.99,-2347.52 1935,-2124.44 1944.45,-1962.37 1972.76,-1769.33 1983.66,-1698.88"/>
<polygon fill="#94d42d" stroke="#94d42d" points="1987.17,-1699.08 1985.25,-1688.66 1980.25,-1698 1987.17,-1699.08"/>
</g>
<!-- at_onboarding_cli&#45;&gt;at_persistence_secondary_server -->
<g id="edge119" class="edge">
<title>at_onboarding_cli&#45;&gt;at_persistence_secondary_server</title>
<path fill="none" stroke="#9760d3" d="M1916.83,-2688.78C1738.44,-2645.55 1270.73,-2506.8 1049,-2199.44 933.6,-2039.47 946.23,-1782.39 953.99,-1698.71"/>
<polygon fill="#9760d3" stroke="#9760d3" points="957.5,-1698.81 954.99,-1688.51 950.53,-1698.12 957.5,-1698.81"/>
</g>
<!-- at_onboarding_cli&#45;&gt;at_server_status -->
<g id="edge117" class="edge">
<title>at_onboarding_cli&#45;&gt;at_server_status</title>
<path fill="none" stroke="#320113" d="M1989.18,-2687.28C1994.63,-2607.94 2017.42,-2276.35 2024.13,-2178.64"/>
<polygon fill="#320113" stroke="#320113" points="2027.62,-2178.88 2024.82,-2168.67 2020.64,-2178.4 2027.62,-2178.88"/>
</g>
<!-- at_onboarding_cli&#45;&gt;at_utils -->
<g id="edge118" class="edge">
<title>at_onboarding_cli&#45;&gt;at_utils</title>
<path fill="none" stroke="#75e849" d="M1986.21,-2687.02C1979.69,-2622.51 1957.2,-2390.97 1950,-2199.44 1948.75,-2166.13 1946.61,-2157.6 1950,-2124.44 1970.1,-1927.6 2006.53,-1883.45 2040,-1688.44 2076.5,-1475.77 2080.76,-1421.74 2106,-1207.44 2127.11,-1028.17 2146.23,-811.84 2152.69,-736.71"/>
<polygon fill="#75e849" stroke="#75e849" points="2156.18,-736.93 2153.55,-726.67 2149.21,-736.33 2156.18,-736.93"/>
</g>
<!-- at_onboarding_flutter -->
<g id="node30" class="node">
<title>at_onboarding_flutter</title>
<polygon fill="none" stroke="#a801a6" points="3510,-3204.44 3340,-3204.44 3340,-3168.44 3510,-3168.44 3510,-3204.44"/>
<text text-anchor="middle" x="3425" y="-3182.74" font-family="Times,serif" font-size="14.00">at_onboarding_flutter</text>
</g>
<!-- at_onboarding_flutter&#45;&gt;at_auth -->
<g id="edge127" class="edge">
<title>at_onboarding_flutter&#45;&gt;at_auth</title>
<path fill="none" stroke="#0f9477" d="M3395.01,-3168.43C3295.55,-3111.43 2969.16,-2919.72 2727,-2723.44 2490.75,-2531.95 2241.83,-2259 2167.9,-2176.19"/>
<polygon fill="#0f9477" stroke="#0f9477" points="2170.37,-2173.7 2161.1,-2168.56 2165.14,-2178.35 2170.37,-2173.7"/>
</g>
<!-- at_onboarding_flutter&#45;&gt;at_backupkey_flutter -->
<g id="edge120" class="edge">
<title>at_onboarding_flutter&#45;&gt;at_backupkey_flutter</title>
<path fill="none" stroke="#590b92" d="M3432.9,-3168.39C3466.11,-3096.74 3594.51,-2819.69 3634.82,-2732.72"/>
<polygon fill="#590b92" stroke="#590b92" points="3638.05,-2734.08 3639.08,-2723.53 3631.7,-2731.13 3638.05,-2734.08"/>
</g>
<!-- at_onboarding_flutter&#45;&gt;at_client -->
<g id="edge121" class="edge">
<title>at_onboarding_flutter&#45;&gt;at_client</title>
<path fill="none" stroke="#61d4fc" d="M3390.72,-3168.35C3290.34,-3116.48 2995,-2950.38 2849,-2723.44 2733.67,-2544.18 2654.37,-1845.17 2638.8,-1698.52"/>
<polygon fill="#61d4fc" stroke="#61d4fc" points="2642.28,-1698.14 2637.75,-1688.56 2635.32,-1698.88 2642.28,-1698.14"/>
</g>
<!-- at_onboarding_flutter&#45;&gt;at_client_mobile -->
<g id="edge122" class="edge">
<title>at_onboarding_flutter&#45;&gt;at_client_mobile</title>
<path fill="none" stroke="#d9577c" d="M3390.74,-3168.41C3291.34,-3117 3001.8,-2952.69 2874,-2723.44 2769.98,-2536.84 2781.57,-2265.01 2788.42,-2178.76"/>
<polygon fill="#d9577c" stroke="#d9577c" points="2791.91,-2178.99 2789.26,-2168.73 2784.94,-2178.4 2791.91,-2178.99"/>
</g>
<!-- at_onboarding_flutter&#45;&gt;at_commons -->
<g id="edge123" class="edge">
<title>at_onboarding_flutter&#45;&gt;at_commons</title>
<path fill="none" stroke="#7eceb0" d="M3475.12,-3168.28C3605.69,-3120.77 3957.42,-2974.17 4120,-2723.44 4248.48,-2525.3 4188.38,-2434.77 4208,-2199.44 4265.48,-1510.12 4349.04,-1144.25 3827,-690.44 3540.66,-441.52 2299.34,-273.02 2004.84,-236.08"/>
<polygon fill="#7eceb0" stroke="#7eceb0" points="2005.12,-232.59 1994.77,-234.82 2004.25,-239.53 2005.12,-232.59"/>
</g>
<!-- at_onboarding_flutter&#45;&gt;at_server_status -->
<g id="edge124" class="edge">
<title>at_onboarding_flutter&#45;&gt;at_server_status</title>
<path fill="none" stroke="#320113" d="M3392.89,-3168.39C3286.36,-3111.28 2936.37,-2919.25 2672,-2723.44 2413.12,-2531.69 2133.29,-2258.42 2050.41,-2175.93"/>
<polygon fill="#320113" stroke="#320113" points="2052.57,-2173.14 2043.02,-2168.55 2047.63,-2178.09 2052.57,-2173.14"/>
</g>
<!-- at_sync_ui_flutter -->
<g id="node41" class="node">
<title>at_sync_ui_flutter</title>
<polygon fill="none" stroke="#27d02d" points="3546,-2723.44 3404,-2723.44 3404,-2687.44 3546,-2687.44 3546,-2723.44"/>
<text text-anchor="middle" x="3475" y="-2701.74" font-family="Times,serif" font-size="14.00">at_sync_ui_flutter</text>
</g>
<!-- at_onboarding_flutter&#45;&gt;at_sync_ui_flutter -->
<g id="edge125" class="edge">
<title>at_onboarding_flutter&#45;&gt;at_sync_ui_flutter</title>
<path fill="none" stroke="#27d02d" d="M3426.78,-3168.39C3434.24,-3096.96 3463,-2821.38 3472.17,-2733.52"/>
<polygon fill="#27d02d" stroke="#27d02d" points="3475.66,-2733.84 3473.22,-2723.53 3468.7,-2733.11 3475.66,-2733.84"/>
</g>
<!-- at_onboarding_flutter&#45;&gt;at_utils -->
<g id="edge126" class="edge">
<title>at_onboarding_flutter&#45;&gt;at_utils</title>
<path fill="none" stroke="#75e849" d="M3471.47,-3168.39C3595.77,-3120.17 3937.17,-2970.09 4095,-2723.44 4234.06,-2506.12 4194,-2409.44 4194,-2151.44 4194,-2151.44 4194,-2151.44 4194,-1669.44 4194,-755.91 2497.94,-710.19 2199.55,-709.21"/>
<polygon fill="#75e849" stroke="#75e849" points="2199.54,-705.71 2189.54,-709.19 2199.53,-712.71 2199.54,-705.71"/>
</g>
<!-- at_persistence_root_server -->
<g id="node31" class="node">
<title>at_persistence_root_server</title>
<polygon fill="none" stroke="#831d2e" points="1310.5,-1688.44 1101.5,-1688.44 1101.5,-1652.44 1310.5,-1652.44 1310.5,-1688.44"/>
<text text-anchor="middle" x="1206" y="-1666.74" font-family="Times,serif" font-size="14.00">at_persistence_root_server</text>
</g>
<!-- at_persistence_root_server&#45;&gt;at_commons -->
<g id="edge128" class="edge">
<title>at_persistence_root_server&#45;&gt;at_commons</title>
<path fill="none" stroke="#7eceb0" d="M1198.1,-1652.18C1169.12,-1586.33 1073.73,-1345.37 1141,-1163.44 1304.6,-721.02 1781.36,-346.56 1909.81,-251.66"/>
<polygon fill="#7eceb0" stroke="#7eceb0" points="1912.12,-254.3 1918.1,-245.56 1907.97,-248.66 1912.12,-254.3"/>
</g>
<!-- at_persistence_root_server&#45;&gt;at_persistence_spec -->
<g id="edge130" class="edge">
<title>at_persistence_root_server&#45;&gt;at_persistence_spec</title>
<path fill="none" stroke="#3bfcef" d="M1207.64,-1652.39C1214.5,-1580.96 1240.96,-1305.38 1249.4,-1217.52"/>
<polygon fill="#3bfcef" stroke="#3bfcef" points="1252.89,-1217.82 1250.36,-1207.53 1245.92,-1217.15 1252.89,-1217.82"/>
</g>
<!-- at_persistence_root_server&#45;&gt;at_utils -->
<g id="edge129" class="edge">
<title>at_persistence_root_server&#45;&gt;at_utils</title>
<path fill="none" stroke="#75e849" d="M1197.74,-1652.38C1166.04,-1584.2 1059.01,-1327.01 1164,-1163.44 1386.55,-816.69 1947.34,-731.36 2110.08,-713.6"/>
<polygon fill="#75e849" stroke="#75e849" points="2110.64,-717.06 2120.22,-712.52 2109.9,-710.1 2110.64,-717.06"/>
</g>
<!-- redis -->
<g id="node47" class="node">
<title>redis</title>
<polygon fill="none" stroke="#5cceca" points="1933,-3204.44 1879,-3204.44 1879,-3168.44 1933,-3168.44 1933,-3204.44"/>
<text text-anchor="middle" x="1906" y="-3182.74" font-family="Times,serif" font-size="14.00">redis</text>
</g>
<!-- at_persistence_root_server&#45;&gt;redis -->
<g id="edge131" class="edge">
<title>at_persistence_root_server&#45;&gt;redis</title>
<path fill="none" stroke="#5cceca" d="M1214.03,-1688.8C1285.19,-1842.73 1807.58,-2972.57 1893.93,-3159.33"/>
<polygon fill="#5cceca" stroke="#5cceca" points="1890.77,-3160.83 1898.14,-3168.44 1897.12,-3157.89 1890.77,-3160.83"/>
</g>
<!-- at_persistence_secondary_server&#45;&gt;at_commons -->
<g id="edge132" class="edge">
<title>at_persistence_secondary_server&#45;&gt;at_commons</title>
<path fill="none" stroke="#7eceb0" d="M961.22,-1652.33C977.63,-1587.01 1040.52,-1347.71 1125,-1163.44 1227.09,-940.75 1250.49,-878.06 1408,-690.44 1571.24,-495.99 1819.85,-313.79 1908.86,-251.28"/>
<polygon fill="#7eceb0" stroke="#7eceb0" points="1911.03,-254.04 1917.22,-245.44 1907.02,-248.3 1911.03,-254.04"/>
</g>
<!-- at_persistence_secondary_server&#45;&gt;at_persistence_spec -->
<g id="edge134" class="edge">
<title>at_persistence_secondary_server&#45;&gt;at_persistence_spec</title>
<path fill="none" stroke="#3bfcef" d="M967.5,-1652.39C1011.72,-1580.59 1182.94,-1302.57 1236.14,-1216.19"/>
<polygon fill="#3bfcef" stroke="#3bfcef" points="1239.21,-1217.88 1241.47,-1207.53 1233.25,-1214.21 1239.21,-1217.88"/>
</g>
<!-- at_persistence_secondary_server&#45;&gt;at_utils -->
<g id="edge133" class="edge">
<title>at_persistence_secondary_server&#45;&gt;at_utils</title>
<path fill="none" stroke="#75e849" d="M958.49,-1652.13C965.4,-1581.89 1000.29,-1314.69 1141,-1163.44 1425.14,-858 1952.93,-744.61 2109.87,-716.78"/>
<polygon fill="#75e849" stroke="#75e849" points="2110.84,-720.16 2120.09,-714.99 2109.64,-713.26 2110.84,-720.16"/>
</g>
<!-- at_repl -->
<g id="node35" class="node">
<title>at_repl</title>
<polygon fill="none" stroke="#1494d0" points="1266,-3204.44 1200,-3204.44 1200,-3168.44 1266,-3168.44 1266,-3204.44"/>
<text text-anchor="middle" x="1233" y="-3182.74" font-family="Times,serif" font-size="14.00">at_repl</text>
</g>
<!-- at_repl&#45;&gt;at_client -->
<g id="edge135" class="edge">
<title>at_repl&#45;&gt;at_client</title>
<path fill="none" stroke="#61d4fc" d="M1255.48,-3168.31C1327.34,-3112.4 1553.82,-2927.11 1675,-2723.44 1817.95,-2483.19 1692.45,-2342.82 1867,-2124.44 2068.98,-1871.74 2452.97,-1729.92 2587.77,-1686.2"/>
<polygon fill="#61d4fc" stroke="#61d4fc" points="2588.96,-1689.49 2597.41,-1683.1 2586.82,-1682.83 2588.96,-1689.49"/>
</g>
<!-- at_repl&#45;&gt;at_commons -->
<g id="edge136" class="edge">
<title>at_repl&#45;&gt;at_commons</title>
<path fill="none" stroke="#7eceb0" d="M1219.18,-3168.4C1145.84,-3076.76 800.92,-2630.71 679,-2199.44 553.74,-1756.36 472.2,-1574.83 679,-1163.44 946.01,-632.26 1673.62,-327.9 1884.19,-249.09"/>
<polygon fill="#7eceb0" stroke="#7eceb0" points="1885.67,-252.28 1893.82,-245.51 1883.23,-245.72 1885.67,-252.28"/>
</g>
<!-- at_repl&#45;&gt;at_onboarding_cli -->
<g id="edge137" class="edge">
<title>at_repl&#45;&gt;at_onboarding_cli</title>
<path fill="none" stroke="#514d2d" d="M1259.87,-3168.39C1374.41,-3095.72 1821.95,-2811.78 1952.23,-2729.13"/>
<polygon fill="#514d2d" stroke="#514d2d" points="1954.49,-2731.84 1961.06,-2723.53 1950.74,-2725.93 1954.49,-2731.84"/>
</g>
<!-- at_repl&#45;&gt;at_utils -->
<g id="edge138" class="edge">
<title>at_repl&#45;&gt;at_utils</title>
<path fill="none" stroke="#75e849" d="M1239.38,-3168.31C1315.61,-2963.6 2050.93,-988.91 2145.09,-736.04"/>
<polygon fill="#75e849" stroke="#75e849" points="2148.43,-737.12 2148.64,-726.53 2141.87,-734.68 2148.43,-737.12"/>
</g>
<!-- at_root_server -->
<g id="node36" class="node">
<title>at_root_server</title>
<polygon fill="none" stroke="#9dd431" points="1176.5,-2168.44 1057.5,-2168.44 1057.5,-2132.44 1176.5,-2132.44 1176.5,-2168.44"/>
<text text-anchor="middle" x="1117" y="-2146.74" font-family="Times,serif" font-size="14.00">at_root_server</text>
</g>
<!-- at_root_server&#45;&gt;at_commons -->
<g id="edge139" class="edge">
<title>at_root_server&#45;&gt;at_commons</title>
<path fill="none" stroke="#7eceb0" d="M1079,-2132.27C961.13,-2076.2 612.9,-1887.99 669,-1644.44 783.33,-1148.1 930.34,-1036.57 1304,-690.44 1512.41,-497.39 1802.68,-313.44 1904.73,-250.93"/>
<polygon fill="#7eceb0" stroke="#7eceb0" points="1906.74,-253.8 1913.45,-245.6 1903.09,-247.83 1906.74,-253.8"/>
</g>
<!-- at_root_server&#45;&gt;at_persistence_root_server -->
<g id="edge142" class="edge">
<title>at_root_server&#45;&gt;at_persistence_root_server</title>
<path fill="none" stroke="#831d2e" d="M1120.17,-2132.43C1133.43,-2061.22 1184.53,-1786.75 1200.91,-1698.76"/>
<polygon fill="#831d2e" stroke="#831d2e" points="1204.39,-1699.22 1202.78,-1688.75 1197.51,-1697.94 1204.39,-1699.22"/>
</g>
<!-- at_root_server&#45;&gt;at_server_spec -->
<g id="edge141" class="edge">
<title>at_root_server&#45;&gt;at_server_spec</title>
<path fill="none" stroke="#e6f023" d="M1104.01,-2132.43C1049.25,-2060.71 837.06,-1782.83 771.45,-1696.9"/>
<polygon fill="#e6f023" stroke="#e6f023" points="774.07,-1694.57 765.22,-1688.75 768.5,-1698.82 774.07,-1694.57"/>
</g>
<!-- at_root_server&#45;&gt;at_utils -->
<g id="edge140" class="edge">
<title>at_root_server&#45;&gt;at_utils</title>
<path fill="none" stroke="#75e849" d="M1126.09,-2132.36C1157.44,-2072.83 1262.26,-1868.29 1320,-1688.44 1392.88,-1461.45 1293.64,-1358.99 1430,-1163.44 1608.44,-907.55 1982.19,-765.92 2110.58,-723.33"/>
<polygon fill="#75e849" stroke="#75e849" points="2112.05,-726.53 2120.46,-720.09 2109.87,-719.88 2112.05,-726.53"/>
</g>
<!-- at_secondary -->
<g id="node37" class="node">
<title>at_secondary</title>
<polygon fill="none" stroke="#1b8948" points="1329,-2168.44 1219,-2168.44 1219,-2132.44 1329,-2132.44 1329,-2168.44"/>
<text text-anchor="middle" x="1274" y="-2146.74" font-family="Times,serif" font-size="14.00">at_secondary</text>
</g>
<!-- at_secondary&#45;&gt;at_chops -->
<g id="edge145" class="edge">
<title>at_secondary&#45;&gt;at_chops</title>
<path fill="none" stroke="#8fb4d4" d="M1287.92,-2132.39C1381.98,-2017.19 1924.1,-1353.21 2036.57,-1215.46"/>
<polygon fill="#8fb4d4" stroke="#8fb4d4" points="2039.45,-1217.47 2043.06,-1207.51 2034.03,-1213.04 2039.45,-1217.47"/>
</g>
<!-- at_secondary&#45;&gt;at_commons -->
<g id="edge143" class="edge">
<title>at_secondary&#45;&gt;at_commons</title>
<path fill="none" stroke="#7eceb0" d="M1218.72,-2133.65C1056.59,-2083.96 598.79,-1917.6 682,-1644.44 899.93,-929 1724.03,-367.81 1906.21,-250.89"/>
<polygon fill="#7eceb0" stroke="#7eceb0" points="1908.09,-253.84 1914.64,-245.51 1904.32,-247.94 1908.09,-253.84"/>
</g>
<!-- at_secondary&#45;&gt;at_lookup -->
<g id="edge146" class="edge">
<title>at_secondary&#45;&gt;at_lookup</title>
<path fill="none" stroke="#94d42d" d="M1299.41,-2132.43C1407.73,-2059.91 1830.97,-1776.56 1954.18,-1694.08"/>
<polygon fill="#94d42d" stroke="#94d42d" points="1956.16,-1696.97 1962.52,-1688.5 1952.26,-1691.15 1956.16,-1696.97"/>
</g>
<!-- at_secondary&#45;&gt;at_persistence_secondary_server -->
<g id="edge149" class="edge">
<title>at_secondary&#45;&gt;at_persistence_secondary_server</title>
<path fill="none" stroke="#9760d3" d="M1262.72,-2132.43C1215.21,-2060.79 1031.25,-1783.39 974.06,-1697.17"/>
<polygon fill="#9760d3" stroke="#9760d3" points="976.92,-1695.15 968.48,-1688.75 971.09,-1699.01 976.92,-1695.15"/>
</g>
<!-- at_secondary&#45;&gt;at_persistence_spec -->
<g id="edge148" class="edge">
<title>at_secondary&#45;&gt;at_persistence_spec</title>
<path fill="none" stroke="#3bfcef" d="M1277.68,-2132.01C1290.87,-2067.46 1334.25,-1835.83 1320,-1644.44 1307.86,-1481.48 1271.55,-1288.33 1257.57,-1217.88"/>
<polygon fill="#3bfcef" stroke="#3bfcef" points="1260.92,-1216.77 1255.53,-1207.65 1254.05,-1218.14 1260.92,-1216.77"/>
</g>
<!-- at_secondary&#45;&gt;at_server_spec -->
<g id="edge147" class="edge">
<title>at_secondary&#45;&gt;at_server_spec</title>
<path fill="none" stroke="#e6f023" d="M1255.42,-2132.43C1176.63,-2060.27 869.89,-1779.39 778.1,-1695.33"/>
<polygon fill="#e6f023" stroke="#e6f023" points="780.37,-1692.67 770.63,-1688.5 775.64,-1697.83 780.37,-1692.67"/>
</g>
<!-- at_secondary&#45;&gt;at_utils -->
<g id="edge144" class="edge">
<title>at_secondary&#45;&gt;at_utils</title>
<path fill="none" stroke="#75e849" d="M1277.99,-2132.34C1292.03,-2071.89 1340.06,-1862.58 1373,-1688.44 1416.95,-1456.12 1329.9,-1361.53 1459,-1163.44 1623.89,-910.43 1984.49,-767.63 2110.48,-723.98"/>
<polygon fill="#75e849" stroke="#75e849" points="2111.87,-727.2 2120.19,-720.65 2109.6,-720.58 2111.87,-727.2"/>
</g>
<!-- at_secondary_proxy -->
<g id="node38" class="node">
<title>at_secondary_proxy</title>
<polygon fill="none" stroke="#35c7f7" points="174,-3204.44 16,-3204.44 16,-3168.44 174,-3168.44 174,-3204.44"/>
<text text-anchor="middle" x="95" y="-3182.74" font-family="Times,serif" font-size="14.00">at_secondary_proxy</text>
</g>
<!-- at_secondary_proxy&#45;&gt;at_commons -->
<g id="edge150" class="edge">
<title>at_secondary_proxy&#45;&gt;at_commons</title>
<path fill="none" stroke="#7eceb0" d="M95,-3168.38C95,-3069.94 95,-2564.32 95,-2151.44 95,-2151.44 95,-2151.44 95,-1188.44 95,-951.86 108.41,-850.09 283,-690.44 529.16,-465.35 1606.55,-281.66 1879.15,-238.2"/>
<polygon fill="#7eceb0" stroke="#7eceb0" points="1879.94,-241.62 1889.26,-236.59 1878.84,-234.71 1879.94,-241.62"/>
</g>
<!-- at_secondary_proxy&#45;&gt;at_lookup -->
<g id="edge152" class="edge">
<title>at_secondary_proxy&#45;&gt;at_lookup</title>
<path fill="none" stroke="#94d42d" d="M116.87,-3168.39C239.1,-3073.05 849.71,-2596.16 1343,-2199.44 1582.76,-2006.61 1869.17,-1769.88 1959.36,-1695.18"/>
<polygon fill="#94d42d" stroke="#94d42d" points="1961.76,-1697.74 1967.23,-1688.66 1957.29,-1692.35 1961.76,-1697.74"/>
</g>
<!-- at_secondary_proxy&#45;&gt;at_utils -->
<g id="edge151" class="edge">
<title>at_secondary_proxy&#45;&gt;at_utils</title>
<path fill="none" stroke="#75e849" d="M118.17,-3168.27C190.22,-3113.29 410.51,-2932.88 494,-2723.44 538.44,-2611.95 528.6,-1763.46 544,-1644.44 572.04,-1427.62 498.83,-1324.2 647,-1163.44 857.67,-934.87 1883.77,-754.17 2110.57,-716.62"/>
<polygon fill="#75e849" stroke="#75e849" points="2111.16,-720.07 2120.46,-714.99 2110.02,-713.17 2111.16,-720.07"/>
</g>
<!-- at_server_spec&#45;&gt;at_commons -->
<g id="edge153" class="edge">
<title>at_server_spec&#45;&gt;at_commons</title>
<path fill="none" stroke="#7eceb0" d="M760.36,-1652.25C809.51,-1552.24 1069.38,-1037.6 1378,-690.44 1552.14,-494.55 1813.57,-313.29 1907.15,-251.15"/>
<polygon fill="#7eceb0" stroke="#7eceb0" points="1909.26,-253.95 1915.67,-245.51 1905.4,-248.11 1909.26,-253.95"/>
</g>
<!-- at_server_status&#45;&gt;at_commons -->
<g id="edge154" class="edge">
<title>at_server_status&#45;&gt;at_commons</title>
<path fill="none" stroke="#7eceb0" d="M2021.39,-2132.03C2005.6,-2071.4 1953.76,-1863.71 1937,-1688.44 1881.9,-1112.38 1929.05,-402.62 1939.9,-255.78"/>
<polygon fill="#7eceb0" stroke="#7eceb0" points="1943.42,-255.7 1940.67,-245.46 1936.44,-255.18 1943.42,-255.7"/>
</g>
<!-- at_server_status&#45;&gt;at_lookup -->
<g id="edge156" class="edge">
<title>at_server_status&#45;&gt;at_lookup</title>
<path fill="none" stroke="#94d42d" d="M2024.65,-2132.43C2018.99,-2061.22 1997.17,-1786.75 1990.17,-1698.76"/>
<polygon fill="#94d42d" stroke="#94d42d" points="1993.66,-1698.44 1989.38,-1688.75 1986.68,-1698.99 1993.66,-1698.44"/>
</g>
<!-- at_server_status&#45;&gt;at_utils -->
<g id="edge155" class="edge">
<title>at_server_status&#45;&gt;at_utils</title>
<path fill="none" stroke="#75e849" d="M2027.89,-2132.42C2038.17,-2039.32 2088.15,-1582.05 2120,-1207.44 2135.26,-1028 2148.8,-811.78 2153.37,-736.69"/>
<polygon fill="#75e849" stroke="#75e849" points="2156.86,-736.85 2153.97,-726.65 2149.88,-736.43 2156.86,-736.85"/>
</g>
<!-- at_sync_ui_flutter&#45;&gt;at_client -->
<g id="edge157" class="edge">
<title>at_sync_ui_flutter&#45;&gt;at_client</title>
<path fill="none" stroke="#61d4fc" d="M3473.07,-2687.23C3463.99,-2612.85 3419.82,-2314.18 3278,-2124.44 3111.22,-1901.3 2801.98,-1745.89 2683.7,-1692.15"/>
<polygon fill="#61d4fc" stroke="#61d4fc" points="2685.07,-1688.93 2674.52,-1688.01 2682.2,-1695.31 2685.07,-1688.93"/>
</g>
<!-- at_sync_ui_flutter&#45;&gt;at_client_mobile -->
<g id="edge158" class="edge">
<title>at_sync_ui_flutter&#45;&gt;at_client_mobile</title>
<path fill="none" stroke="#d9577c" d="M3453.78,-2687.28C3354.46,-2606.98 2935.49,-2268.25 2820.37,-2175.19"/>
<polygon fill="#d9577c" stroke="#d9577c" points="2822.29,-2172.23 2812.31,-2168.67 2817.89,-2177.68 2822.29,-2172.23"/>
</g>
<!-- at_sync_ui_flutter&#45;&gt;at_common_flutter -->
<g id="edge159" class="edge">
<title>at_sync_ui_flutter&#45;&gt;at_common_flutter</title>
<path fill="none" stroke="#bf681f" d="M3464.61,-2687.28C3416.35,-2607.62 3214.04,-2273.66 3155.77,-2177.47"/>
<polygon fill="#bf681f" stroke="#bf681f" points="3158.61,-2175.41 3150.44,-2168.67 3152.63,-2179.03 3158.61,-2175.41"/>
</g>
<!-- at_theme_flutter -->
<g id="node42" class="node">
<title>at_theme_flutter</title>
<polygon fill="none" stroke="#2ec850" points="4052,-2723.44 3918,-2723.44 3918,-2687.44 4052,-2687.44 4052,-2723.44"/>
<text text-anchor="middle" x="3985" y="-2701.74" font-family="Times,serif" font-size="14.00">at_theme_flutter</text>
</g>
<!-- at_theme_flutter&#45;&gt;at_client_mobile -->
<g id="edge160" class="edge">
<title>at_theme_flutter&#45;&gt;at_client_mobile</title>
<path fill="none" stroke="#d9577c" d="M3942.96,-2687.44C3793.98,-2626.76 3278.37,-2413.09 2871,-2199.44 2856.06,-2191.6 2840.03,-2182.19 2826.27,-2173.79"/>
<polygon fill="#d9577c" stroke="#d9577c" points="2827.94,-2170.71 2817.59,-2168.44 2824.27,-2176.67 2827.94,-2170.71"/>
</g>
<!-- at_theme_flutter&#45;&gt;at_common_flutter -->
<g id="edge161" class="edge">
<title>at_theme_flutter&#45;&gt;at_common_flutter</title>
<path fill="none" stroke="#bf681f" d="M3958.78,-2687.28C3835.71,-2606.74 3315.39,-2266.22 3175.02,-2174.35"/>
<polygon fill="#bf681f" stroke="#bf681f" points="3176.61,-2171.22 3166.33,-2168.67 3172.78,-2177.07 3176.61,-2171.22"/>
</g>
<!-- at_theme_flutter&#45;&gt;at_commons -->
<g id="edge162" class="edge">
<title>at_theme_flutter&#45;&gt;at_commons</title>
<path fill="none" stroke="#7eceb0" d="M3983.21,-2687.42C3973.05,-2589.2 3923,-2084.66 3923,-1671.44 3923,-1671.44 3923,-1671.44 3923,-1188.44 3923,-960.45 3961.08,-851.77 3800,-690.44 3535.55,-425.57 2298.5,-269.18 2004.71,-235.39"/>
<polygon fill="#7eceb0" stroke="#7eceb0" points="2004.99,-231.9 1994.66,-234.24 2004.2,-238.85 2004.99,-231.9"/>
</g>
<!-- at_theme_flutter&#45;&gt;at_utils -->
<g id="edge163" class="edge">
<title>at_theme_flutter&#45;&gt;at_utils</title>
<path fill="none" stroke="#75e849" d="M3971.69,-2687.35C3847.63,-2528.15 2894.75,-1306.86 2748,-1163.44 2555.79,-975.6 2286.07,-794.3 2190.37,-732.1"/>
<polygon fill="#75e849" stroke="#75e849" points="2192.22,-729.13 2181.93,-726.63 2188.42,-735 2192.22,-729.13"/>
</g>
<!-- at_utils&#45;&gt;at_commons -->
<g id="edge164" class="edge">
<title>at_utils&#45;&gt;at_commons</title>
<path fill="none" stroke="#7eceb0" d="M2147.42,-690.39C2115.56,-618.74 1992.36,-341.69 1953.69,-254.72"/>
<polygon fill="#7eceb0" stroke="#7eceb0" points="1956.86,-253.25 1949.6,-245.53 1950.47,-256.09 1956.86,-253.25"/>
</g>
<!-- at_ve_doctor -->
<g id="node44" class="node">
<title>at_ve_doctor</title>
<polygon fill="none" stroke="#193e4e" points="1483.5,-3204.44 1376.5,-3204.44 1376.5,-3168.44 1483.5,-3168.44 1483.5,-3204.44"/>
<text text-anchor="middle" x="1430" y="-3182.74" font-family="Times,serif" font-size="14.00">at_ve_doctor</text>
</g>
<!-- at_ve_doctor&#45;&gt;at_server_status -->
<g id="edge165" class="edge">
<title>at_ve_doctor&#45;&gt;at_server_status</title>
<path fill="none" stroke="#320113" d="M1440.84,-3168.42C1479.09,-3108.24 1610.91,-2899.64 1713,-2723.44 1833.52,-2515.43 1969.48,-2258.9 2012.33,-2177.5"/>
<polygon fill="#320113" stroke="#320113" points="2015.52,-2178.93 2017.08,-2168.45 2009.33,-2175.67 2015.52,-2178.93"/>
</g>
<!-- base2e15 -->
<g id="node45" class="node">
<title>base2e15</title>
<polygon fill="none" stroke="#2bcf07" points="2137.5,-3204.44 2052.5,-3204.44 2052.5,-3168.44 2137.5,-3168.44 2137.5,-3204.44"/>
<text text-anchor="middle" x="2095" y="-3182.74" font-family="Times,serif" font-size="14.00">base2e15</text>
</g>
<!-- dart_utf7 -->
<g id="node46" class="node">
<title>dart_utf7</title>
<polygon fill="none" stroke="#f889f9" points="2034.5,-3204.44 1951.5,-3204.44 1951.5,-3168.44 2034.5,-3168.44 2034.5,-3204.44"/>
<text text-anchor="middle" x="1993" y="-3182.74" font-family="Times,serif" font-size="14.00">dart_utf7</text>
</g>
</g>
</svg>
