<?xml version="1.0" encoding="UTF-8" standalone="no"?>
<!DOCTYPE svg PUBLIC "-//W3C//DTD SVG 1.1//EN"
 "http://www.w3.org/Graphics/SVG/1.1/DTD/svg11.dtd">
<!-- Generated by graphviz version 2.43.0 (0)
 -->
<!-- Title: packages Pages: 1 -->
<svg width="720pt" height="599pt"
 viewBox="0.00 0.00 720.00 598.54" xmlns="http://www.w3.org/2000/svg" xmlns:xlink="http://www.w3.org/1999/xlink">
<g id="graph0" class="graph" transform="scale(0.13823094688221707 0.13823094688221707) rotate(0) translate(4 4326)">
<title>packages</title>
<polygon fill="white" stroke="transparent" points="-4,4 -4,-4326 5204.63,-4326 5204.63,4 -4,4"/>
<g id="clust1" class="cluster">
<title>cluster modules/dart/at_libraries/packages</title>
<polygon fill="none" stroke="#5d6fbf" points="2221.45,-56.78 2221.45,-4265.22 2623.45,-4265.22 2623.45,-56.78 2221.45,-56.78"/>
<text text-anchor="middle" x="2422.45" y="-4250.02" font-family="Times,serif" font-size="14.00">modules/dart/at_libraries/packages</text>
</g>
<g id="clust2" class="cluster">
<title>cluster modules/dart/at_widgets/packages</title>
<polygon fill="none" stroke="#b80dd6" points="3359.45,-2100.68 3359.45,-4265.22 4542.45,-4265.22 4542.45,-2100.68 3359.45,-2100.68"/>
<text text-anchor="middle" x="3950.95" y="-4250.02" font-family="Times,serif" font-size="14.00">modules/dart/at_widgets/packages</text>
</g>
<g id="clust3" class="cluster">
<title>cluster modules/dart/at_tools/packages</title>
<polygon fill="none" stroke="#a24674" points="1535.45,-2689.72 1535.45,-3732.96 2213.45,-3732.96 2213.45,-2689.72 1535.45,-2689.72"/>
<text text-anchor="middle" x="1874.45" y="-3717.76" font-family="Times,serif" font-size="14.00">modules/dart/at_tools/packages</text>
</g>
<g id="clust4" class="cluster">
<title>cluster modules/dart/at_client_sdk/packages</title>
<polygon fill="none" stroke="#0ace14" points="3073.45,-1589.7 3073.45,-2632.94 3351.45,-2632.94 3351.45,-1589.7 3073.45,-1589.7"/>
<text text-anchor="middle" x="3212.45" y="-2617.74" font-family="Times,serif" font-size="14.00">modules/dart/at_client_sdk/packages</text>
</g>
<g id="clust5" class="cluster">
<title>cluster modules/dart/at_services/packages</title>
<polygon fill="none" stroke="#d8a73c" points="900.45,-2100.68 900.45,-3732.96 1385.45,-3732.96 1385.45,-2100.68 900.45,-2100.68"/>
<text text-anchor="middle" x="1142.95" y="-3717.76" font-family="Times,serif" font-size="14.00">modules/dart/at_services/packages</text>
</g>
<g id="clust6" class="cluster">
<title>cluster modules/dart/at_server/packages</title>
<polygon fill="none" stroke="#8b5078" points="236.45,-1078.73 236.45,-2632.94 892.45,-2632.94 892.45,-1078.73 236.45,-1078.73"/>
<text text-anchor="middle" x="564.45" y="-2617.74" font-family="Times,serif" font-size="14.00">modules/dart/at_server/packages</text>
</g>
<!-- at_auth -->
<g id="node1" class="node">
<title>at_auth</title>
<polygon fill="none" stroke="#0f9477" points="2571.45,-2302.78 2501.45,-2302.78 2501.45,-2266.78 2571.45,-2266.78 2571.45,-2302.78"/>
<text text-anchor="middle" x="2536.45" y="-2281.08" font-family="Times,serif" font-size="14.00">at_auth</text>
</g>
<!-- at_chops -->
<g id="node4" class="node">
<title>at_chops</title>
<polygon fill="none" stroke="#8fb4d4" points="2467.95,-1280.78 2388.95,-1280.78 2388.95,-1244.78 2467.95,-1244.78 2467.95,-1280.78"/>
<text text-anchor="middle" x="2428.45" y="-1259.08" font-family="Times,serif" font-size="14.00">at_chops</text>
</g>
<!-- at_auth&#45;&gt;at_chops -->
<g id="edge3" class="edge">
<title>at_auth&#45;&gt;at_chops</title>
<path fill="none" stroke="#8fb4d4" d="M2534.62,-2266.5C2521.92,-2146.59 2446.97,-1438.73 2431.32,-1290.85"/>
<polygon fill="#8fb4d4" stroke="#8fb4d4" points="2434.79,-1290.39 2430.25,-1280.81 2427.83,-1291.13 2434.79,-1290.39"/>
</g>
<!-- at_commons -->
<g id="node10" class="node">
<title>at_commons</title>
<polygon fill="none" stroke="#7eceb0" points="2531.95,-259.78 2426.95,-259.78 2426.95,-223.78 2531.95,-223.78 2531.95,-259.78"/>
<text text-anchor="middle" x="2479.45" y="-238.08" font-family="Times,serif" font-size="14.00">at_commons</text>
</g>
<!-- at_auth&#45;&gt;at_commons -->
<g id="edge1" class="edge">
<title>at_auth&#45;&gt;at_commons</title>
<path fill="none" stroke="#7eceb0" d="M2530.61,-2266.61C2509.58,-2203.96 2437.33,-1981.43 2406.45,-1791.78 2330.88,-1327.66 2353.43,-1201.33 2403.45,-733.78 2422.47,-555.97 2460.52,-344.16 2474.31,-270.01"/>
<polygon fill="#7eceb0" stroke="#7eceb0" points="2477.77,-270.57 2476.16,-260.09 2470.89,-269.28 2477.77,-270.57"/>
</g>
<!-- at_lookup -->
<g id="node27" class="node">
<title>at_lookup</title>
<polygon fill="none" stroke="#94d42d" points="2578.95,-1791.78 2493.95,-1791.78 2493.95,-1755.78 2578.95,-1755.78 2578.95,-1791.78"/>
<text text-anchor="middle" x="2536.45" y="-1770.08" font-family="Times,serif" font-size="14.00">at_lookup</text>
</g>
<!-- at_auth&#45;&gt;at_lookup -->
<g id="edge2" class="edge">
<title>at_auth&#45;&gt;at_lookup</title>
<path fill="none" stroke="#94d42d" d="M2536.45,-2266.55C2536.45,-2191.71 2536.45,-1894.41 2536.45,-1802.2"/>
<polygon fill="#94d42d" stroke="#94d42d" points="2539.95,-1802 2536.45,-1792 2532.95,-1802 2539.95,-1802"/>
</g>
<!-- at_utils -->
<g id="node44" class="node">
<title>at_utils</title>
<polygon fill="none" stroke="#75e849" points="2486.95,-769.78 2417.95,-769.78 2417.95,-733.78 2486.95,-733.78 2486.95,-769.78"/>
<text text-anchor="middle" x="2452.45" y="-748.08" font-family="Times,serif" font-size="14.00">at_utils</text>
</g>
<!-- at_auth&#45;&gt;at_utils -->
<g id="edge4" class="edge">
<title>at_auth&#45;&gt;at_utils</title>
<path fill="none" stroke="#75e849" d="M2530.98,-2266.61C2500.04,-2167.53 2349.27,-1658.31 2380.45,-1236.78 2393.42,-1061.5 2432.45,-853.43 2446.95,-780.04"/>
<polygon fill="#75e849" stroke="#75e849" points="2450.46,-780.31 2448.98,-769.82 2443.6,-778.94 2450.46,-780.31"/>
</g>
<!-- at_backupkey_flutter -->
<g id="node2" class="node">
<title>at_backupkey_flutter</title>
<polygon fill="none" stroke="#590b92" points="4232.95,-2891.78 4067.95,-2891.78 4067.95,-2855.78 4232.95,-2855.78 4232.95,-2891.78"/>
<text text-anchor="middle" x="4150.45" y="-2870.08" font-family="Times,serif" font-size="14.00">at_backupkey_flutter</text>
</g>
<!-- at_client_mobile -->
<g id="node8" class="node">
<title>at_client_mobile</title>
<polygon fill="none" stroke="#d9577c" points="3291.45,-2302.78 3159.45,-2302.78 3159.45,-2266.78 3291.45,-2266.78 3291.45,-2302.78"/>
<text text-anchor="middle" x="3225.45" y="-2281.08" font-family="Times,serif" font-size="14.00">at_client_mobile</text>
</g>
<!-- at_backupkey_flutter&#45;&gt;at_client_mobile -->
<g id="edge6" class="edge">
<title>at_backupkey_flutter&#45;&gt;at_client_mobile</title>
<path fill="none" stroke="#d9577c" d="M4123.52,-2855.68C3991.32,-2771.79 3411.42,-2403.79 3261.13,-2308.41"/>
<polygon fill="#d9577c" stroke="#d9577c" points="3262.98,-2305.45 3252.66,-2303.04 3259.23,-2311.36 3262.98,-2305.45"/>
</g>
<!-- at_backupkey_flutter&#45;&gt;at_utils -->
<g id="edge5" class="edge">
<title>at_backupkey_flutter&#45;&gt;at_utils</title>
<path fill="none" stroke="#75e849" d="M4144.26,-2855.73C4117.43,-2782.43 4007.08,-2487.39 3887.45,-2258.78 3620.9,-1749.38 3520.95,-1622.31 3094.45,-1236.78 2877.59,-1040.74 2585.88,-841.53 2486.93,-775.54"/>
<polygon fill="#75e849" stroke="#75e849" points="2488.77,-772.56 2478.5,-769.93 2484.89,-778.38 2488.77,-772.56"/>
</g>
<!-- at_chat_flutter -->
<g id="node3" class="node">
<title>at_chat_flutter</title>
<polygon fill="none" stroke="#463830" points="3653.45,-2891.78 3533.45,-2891.78 3533.45,-2855.78 3653.45,-2855.78 3653.45,-2891.78"/>
<text text-anchor="middle" x="3593.45" y="-2870.08" font-family="Times,serif" font-size="14.00">at_chat_flutter</text>
</g>
<!-- at_client -->
<g id="node7" class="node">
<title>at_client</title>
<polygon fill="none" stroke="#61d4fc" points="3158.95,-1791.78 3081.95,-1791.78 3081.95,-1755.78 3158.95,-1755.78 3158.95,-1791.78"/>
<text text-anchor="middle" x="3120.45" y="-1770.08" font-family="Times,serif" font-size="14.00">at_client</text>
</g>
<!-- at_chat_flutter&#45;&gt;at_client -->
<g id="edge7" class="edge">
<title>at_chat_flutter&#45;&gt;at_client</title>
<path fill="none" stroke="#61d4fc" d="M3595.97,-2855.75C3606.22,-2781.31 3640.03,-2478.44 3547.45,-2258.78 3457.52,-2045.39 3234.53,-1861.12 3151.91,-1798.01"/>
<polygon fill="#61d4fc" stroke="#61d4fc" points="3153.99,-1795.19 3143.9,-1791.94 3149.76,-1800.77 3153.99,-1795.19"/>
</g>
<!-- at_chat_flutter&#45;&gt;at_client_mobile -->
<g id="edge8" class="edge">
<title>at_chat_flutter&#45;&gt;at_client_mobile</title>
<path fill="none" stroke="#d9577c" d="M3582.64,-2855.53C3530.43,-2772.24 3304.39,-2411.69 3241.65,-2311.62"/>
<polygon fill="#d9577c" stroke="#d9577c" points="3244.54,-2309.64 3236.26,-2303.03 3238.61,-2313.36 3244.54,-2309.64"/>
</g>
<!-- at_common_flutter -->
<g id="node9" class="node">
<title>at_common_flutter</title>
<polygon fill="none" stroke="#bf681f" points="3515.95,-2302.78 3366.95,-2302.78 3366.95,-2266.78 3515.95,-2266.78 3515.95,-2302.78"/>
<text text-anchor="middle" x="3441.45" y="-2281.08" font-family="Times,serif" font-size="14.00">at_common_flutter</text>
</g>
<!-- at_chat_flutter&#45;&gt;at_common_flutter -->
<g id="edge9" class="edge">
<title>at_chat_flutter&#45;&gt;at_common_flutter</title>
<path fill="none" stroke="#bf681f" d="M3588.98,-2855.53C3567.51,-2772.58 3474.81,-2414.59 3448.46,-2312.84"/>
<polygon fill="#bf681f" stroke="#bf681f" points="3451.81,-2311.83 3445.92,-2303.03 3445.04,-2313.58 3451.81,-2311.83"/>
</g>
<!-- at_chat_flutter&#45;&gt;at_commons -->
<g id="edge10" class="edge">
<title>at_chat_flutter&#45;&gt;at_commons</title>
<path fill="none" stroke="#7eceb0" d="M3595.2,-2855.7C3605.45,-2753.78 3657.45,-2215.39 3657.45,-1774.78 3657.45,-1774.78 3657.45,-1774.78 3657.45,-1261.78 3657.45,-666 2784.93,-340.95 2541.72,-261.92"/>
<polygon fill="#7eceb0" stroke="#7eceb0" points="2542.56,-258.52 2531.97,-258.78 2540.41,-265.18 2542.56,-258.52"/>
</g>
<!-- at_contact -->
<g id="node11" class="node">
<title>at_contact</title>
<polygon fill="none" stroke="#250aa2" points="2615.45,-1280.78 2525.45,-1280.78 2525.45,-1244.78 2615.45,-1244.78 2615.45,-1280.78"/>
<text text-anchor="middle" x="2570.45" y="-1259.08" font-family="Times,serif" font-size="14.00">at_contact</text>
</g>
<!-- at_chat_flutter&#45;&gt;at_contact -->
<g id="edge11" class="edge">
<title>at_chat_flutter&#45;&gt;at_contact</title>
<path fill="none" stroke="#250aa2" d="M3570.81,-2855.59C3490.88,-2793.83 3218.79,-2574.02 3069.45,-2333.78 2923.54,-2099.07 2979.47,-1997.67 2861.45,-1747.78 2774.52,-1563.71 2637.19,-1359.85 2588.39,-1289.38"/>
<polygon fill="#250aa2" stroke="#250aa2" points="2591.2,-1287.29 2582.62,-1281.08 2585.45,-1291.29 2591.2,-1287.29"/>
</g>
<!-- at_chat_flutter&#45;&gt;at_lookup -->
<g id="edge12" class="edge">
<title>at_chat_flutter&#45;&gt;at_lookup</title>
<path fill="none" stroke="#94d42d" d="M3572.67,-2855.57C3494.65,-2790.61 3213.01,-2552.82 3003.45,-2333.78 2817.05,-2138.93 2617.17,-1880.85 2555.59,-1800.05"/>
<polygon fill="#94d42d" stroke="#94d42d" points="2558.26,-1797.78 2549.42,-1791.94 2552.69,-1802.02 2558.26,-1797.78"/>
</g>
<!-- at_chops&#45;&gt;at_commons -->
<g id="edge13" class="edge">
<title>at_chops&#45;&gt;at_commons</title>
<path fill="none" stroke="#7eceb0" d="M2426.48,-1244.43C2419.25,-1178.1 2395.24,-934.15 2409.45,-733.78 2422.08,-555.72 2460.16,-344.06 2474.19,-269.99"/>
<polygon fill="#7eceb0" stroke="#7eceb0" points="2477.64,-270.55 2476.08,-260.07 2470.76,-269.24 2477.64,-270.55"/>
</g>
<!-- at_chops&#45;&gt;at_utils -->
<g id="edge14" class="edge">
<title>at_chops&#45;&gt;at_utils</title>
<path fill="none" stroke="#75e849" d="M2429.26,-1244.55C2432.79,-1169.71 2446.81,-872.41 2451.16,-780.2"/>
<polygon fill="#75e849" stroke="#75e849" points="2454.66,-780.15 2451.64,-770 2447.67,-779.82 2454.66,-780.15"/>
</g>
<!-- at_cli -->
<g id="node5" class="node">
<title>at_cli</title>
<polygon fill="none" stroke="#34bd05" points="1904.45,-3402.78 1850.45,-3402.78 1850.45,-3366.78 1904.45,-3366.78 1904.45,-3402.78"/>
<text text-anchor="middle" x="1877.45" y="-3381.08" font-family="Times,serif" font-size="14.00">at_cli</text>
</g>
<!-- at_cli&#45;&gt;at_client -->
<g id="edge16" class="edge">
<title>at_cli&#45;&gt;at_client</title>
<path fill="none" stroke="#61d4fc" d="M1877.22,-3366.69C1876.57,-3255.25 1886.44,-2625.13 2182.45,-2258.78 2428.16,-1954.68 2915.8,-1821.29 3071.47,-1785.28"/>
<polygon fill="#61d4fc" stroke="#61d4fc" points="3072.7,-1788.59 3081.67,-1782.95 3071.14,-1781.77 3072.7,-1788.59"/>
</g>
<!-- at_cli&#45;&gt;at_commons -->
<g id="edge17" class="edge">
<title>at_cli&#45;&gt;at_commons</title>
<path fill="none" stroke="#7eceb0" d="M1864.87,-3366.7C1793.38,-3267.89 1441.45,-2757.51 1441.45,-2285.78 1441.45,-2285.78 1441.45,-2285.78 1441.45,-1261.78 1441.45,-704.05 2214.01,-350.22 2426.13,-263.58"/>
<polygon fill="#7eceb0" stroke="#7eceb0" points="2427.56,-266.78 2435.51,-259.78 2424.93,-260.29 2427.56,-266.78"/>
</g>
<!-- at_cli&#45;&gt;at_lookup -->
<g id="edge15" class="edge">
<title>at_cli&#45;&gt;at_lookup</title>
<path fill="none" stroke="#94d42d" d="M1877.73,-3366.46C1880.03,-3240.51 1898.34,-2464.4 2003.45,-2258.78 2120.52,-2029.74 2393.8,-1856.17 2496.49,-1796.9"/>
<polygon fill="#94d42d" stroke="#94d42d" points="2498.38,-1799.85 2505.32,-1791.84 2494.9,-1793.78 2498.38,-1799.85"/>
</g>
<!-- at_cli&#45;&gt;at_utils -->
<g id="edge18" class="edge">
<title>at_cli&#45;&gt;at_utils</title>
<path fill="none" stroke="#75e849" d="M1877.56,-3366.67C1878.2,-3264.63 1881.45,-2725.65 1881.45,-2285.78 1881.45,-2285.78 1881.45,-2285.78 1881.45,-1772.78 1881.45,-1320.42 2314.34,-882.51 2426.28,-776.83"/>
<polygon fill="#75e849" stroke="#75e849" points="2428.88,-779.2 2433.78,-769.8 2424.09,-774.09 2428.88,-779.2"/>
</g>
<!-- at_cli_commons -->
<g id="node6" class="node">
<title>at_cli_commons</title>
<polygon fill="none" stroke="#c99192" points="2407.45,-3402.78 2279.45,-3402.78 2279.45,-3366.78 2407.45,-3366.78 2407.45,-3402.78"/>
<text text-anchor="middle" x="2343.45" y="-3381.08" font-family="Times,serif" font-size="14.00">at_cli_commons</text>
</g>
<!-- at_cli_commons&#45;&gt;at_client -->
<g id="edge19" class="edge">
<title>at_cli_commons&#45;&gt;at_client</title>
<path fill="none" stroke="#61d4fc" d="M2337.41,-3366.6C2300.02,-3257.13 2109.24,-2649.04 2340.45,-2258.78 2511.6,-1969.89 2929.37,-1828.68 3071.89,-1787.74"/>
<polygon fill="#61d4fc" stroke="#61d4fc" points="3073,-1791.07 3081.67,-1784.97 3071.09,-1784.33 3073,-1791.07"/>
</g>
<!-- at_onboarding_cli -->
<g id="node29" class="node">
<title>at_onboarding_cli</title>
<polygon fill="none" stroke="#514d2d" points="2459.45,-2891.78 2317.45,-2891.78 2317.45,-2855.78 2459.45,-2855.78 2459.45,-2891.78"/>
<text text-anchor="middle" x="2388.45" y="-2870.08" font-family="Times,serif" font-size="14.00">at_onboarding_cli</text>
</g>
<!-- at_cli_commons&#45;&gt;at_onboarding_cli -->
<g id="edge20" class="edge">
<title>at_cli_commons&#45;&gt;at_onboarding_cli</title>
<path fill="none" stroke="#514d2d" d="M2344.97,-3366.55C2351.59,-3291.71 2377.87,-2994.41 2386.03,-2902.2"/>
<polygon fill="#514d2d" stroke="#514d2d" points="2389.53,-2902.27 2386.93,-2892 2382.56,-2901.65 2389.53,-2902.27"/>
</g>
<!-- at_cli_commons&#45;&gt;at_utils -->
<g id="edge21" class="edge">
<title>at_cli_commons&#45;&gt;at_utils</title>
<path fill="none" stroke="#75e849" d="M2340.18,-3366.38C2312.34,-3215.35 2119.8,-2110.59 2275.45,-1236.78 2307.89,-1054.64 2403.4,-850.97 2438.93,-779.38"/>
<polygon fill="#75e849" stroke="#75e849" points="2442.19,-780.68 2443.53,-770.17 2435.93,-777.55 2442.19,-780.68"/>
</g>
<!-- at_client&#45;&gt;at_auth -->
<g id="edge26" class="edge">
<title>at_client&#45;&gt;at_auth</title>
<path fill="none" stroke="#0f9477" d="M3100.69,-1792C3013.69,-1867.82 2664.67,-2172.02 2563.85,-2259.89"/>
<polygon fill="#0f9477" stroke="#0f9477" points="2561.45,-2257.34 2556.22,-2266.55 2566.05,-2262.62 2561.45,-2257.34"/>
</g>
<!-- at_client&#45;&gt;at_chops -->
<g id="edge24" class="edge">
<title>at_client&#45;&gt;at_chops</title>
<path fill="none" stroke="#8fb4d4" d="M3097.03,-1755.55C2993.73,-1679.56 2578.71,-1374.3 2460.2,-1287.13"/>
<polygon fill="#8fb4d4" stroke="#8fb4d4" points="2461.99,-1284.1 2451.86,-1281 2457.85,-1289.74 2461.99,-1284.1"/>
</g>
<!-- at_client&#45;&gt;at_commons -->
<g id="edge22" class="edge">
<title>at_client&#45;&gt;at_commons</title>
<path fill="none" stroke="#7eceb0" d="M3121.45,-1755.45C3126.69,-1652.28 3143.94,-1110.72 2955.45,-733.78 2845.61,-514.11 2602.48,-328.85 2513.19,-265.82"/>
<polygon fill="#7eceb0" stroke="#7eceb0" points="2514.99,-262.81 2504.79,-259.93 2510.97,-268.54 2514.99,-262.81"/>
</g>
<!-- at_client&#45;&gt;at_lookup -->
<g id="edge25" class="edge">
<title>at_client&#45;&gt;at_lookup</title>
<path fill="none" stroke="#94d42d" d="M3081.87,-1773.78C2917.75,-1773.78 2753.64,-1773.78 2589.53,-1773.78"/>
<polygon fill="#94d42d" stroke="#94d42d" points="2589.22,-1770.28 2579.22,-1773.78 2589.22,-1777.28 2589.22,-1770.28"/>
</g>
<!-- at_persistence_secondary_server -->
<g id="node32" class="node">
<title>at_persistence_secondary_server</title>
<polygon fill="none" stroke="#9760d3" points="884.45,-1791.78 632.45,-1791.78 632.45,-1755.78 884.45,-1755.78 884.45,-1791.78"/>
<text text-anchor="middle" x="758.45" y="-1770.08" font-family="Times,serif" font-size="14.00">at_persistence_secondary_server</text>
</g>
<!-- at_client&#45;&gt;at_persistence_secondary_server -->
<g id="edge28" class="edge">
<title>at_client&#45;&gt;at_persistence_secondary_server</title>
<path fill="none" stroke="#9760d3" d="M3122.59,-1791.92C3127.06,-1839.48 3131.55,-1968.01 3058.45,-2025.28 2767.36,-2253.32 2594.9,-2056.61 2226.45,-2025.28 1697.13,-1980.26 1071.94,-1845.52 845.66,-1794.06"/>
<polygon fill="#9760d3" stroke="#9760d3" points="846.36,-1790.63 835.83,-1791.82 844.8,-1797.45 846.36,-1790.63"/>
</g>
<!-- at_persistence_spec -->
<g id="node33" class="node">
<title>at_persistence_spec</title>
<polygon fill="none" stroke="#3bfcef" points="884.95,-1280.78 725.95,-1280.78 725.95,-1244.78 884.95,-1244.78 884.95,-1280.78"/>
<text text-anchor="middle" x="805.45" y="-1259.08" font-family="Times,serif" font-size="14.00">at_persistence_spec</text>
</g>
<!-- at_client&#45;&gt;at_persistence_spec -->
<g id="edge27" class="edge">
<title>at_client&#45;&gt;at_persistence_spec</title>
<path fill="none" stroke="#3bfcef" d="M3081.72,-1764.26C2817.44,-1706.15 1278.54,-1367.79 893.01,-1283.03"/>
<polygon fill="#3bfcef" stroke="#3bfcef" points="893.54,-1279.56 883.03,-1280.83 892.04,-1286.4 893.54,-1279.56"/>
</g>
<!-- at_client&#45;&gt;at_utils -->
<g id="edge23" class="edge">
<title>at_client&#45;&gt;at_utils</title>
<path fill="none" stroke="#75e849" d="M3109.14,-1755.5C3030.37,-1635.23 2564.24,-923.47 2469.32,-778.53"/>
<polygon fill="#75e849" stroke="#75e849" points="2472.02,-776.26 2463.61,-769.81 2466.16,-780.1 2472.02,-776.26"/>
</g>
<!-- at_client_mobile&#45;&gt;at_auth -->
<g id="edge34" class="edge">
<title>at_client_mobile&#45;&gt;at_auth</title>
<path fill="none" stroke="#0f9477" d="M3159.38,-2284.78C2966.86,-2284.78 2774.34,-2284.78 2581.82,-2284.78"/>
<polygon fill="#0f9477" stroke="#0f9477" points="2581.77,-2281.28 2571.77,-2284.78 2581.77,-2288.28 2581.77,-2281.28"/>
</g>
<!-- at_client_mobile&#45;&gt;at_chops -->
<g id="edge31" class="edge">
<title>at_client_mobile&#45;&gt;at_chops</title>
<path fill="none" stroke="#8fb4d4" d="M3211.95,-2266.5C3117.88,-2146.11 2560.72,-1433.05 2448.24,-1289.1"/>
<polygon fill="#8fb4d4" stroke="#8fb4d4" points="2450.68,-1286.54 2441.76,-1280.81 2445.16,-1290.85 2450.68,-1286.54"/>
</g>
<!-- at_client_mobile&#45;&gt;at_client -->
<g id="edge33" class="edge">
<title>at_client_mobile&#45;&gt;at_client</title>
<path fill="none" stroke="#61d4fc" d="M3221.9,-2266.55C3206.44,-2191.63 3145,-1893.81 3126.05,-1801.92"/>
<polygon fill="#61d4fc" stroke="#61d4fc" points="3129.45,-1801.08 3124,-1792 3122.6,-1802.5 3129.45,-1801.08"/>
</g>
<!-- at_client_mobile&#45;&gt;at_commons -->
<g id="edge29" class="edge">
<title>at_client_mobile&#45;&gt;at_commons</title>
<path fill="none" stroke="#7eceb0" d="M3226.77,-2266.4C3235.89,-2135.78 3280.52,-1297.62 2973.45,-733.78 2853.69,-513.88 2604.46,-328.47 2513.57,-265.63"/>
<polygon fill="#7eceb0" stroke="#7eceb0" points="2515.5,-262.71 2505.27,-259.93 2511.54,-268.48 2515.5,-262.71"/>
</g>
<!-- at_client_mobile&#45;&gt;at_lookup -->
<g id="edge32" class="edge">
<title>at_client_mobile&#45;&gt;at_lookup</title>
<path fill="none" stroke="#94d42d" d="M3202.13,-2266.55C3099.28,-2190.56 2686.06,-1885.3 2568.06,-1798.13"/>
<polygon fill="#94d42d" stroke="#94d42d" points="2569.89,-1795.12 2559.76,-1792 2565.73,-1800.75 2569.89,-1795.12"/>
</g>
<!-- at_client_mobile&#45;&gt;at_persistence_secondary_server -->
<g id="edge35" class="edge">
<title>at_client_mobile&#45;&gt;at_persistence_secondary_server</title>
<path fill="none" stroke="#9760d3" d="M3159.14,-2270.09C2816.8,-2199.46 1249.86,-1876.16 851.02,-1793.87"/>
<polygon fill="#9760d3" stroke="#9760d3" points="851.47,-1790.39 840.97,-1791.8 850.06,-1797.25 851.47,-1790.39"/>
</g>
<!-- at_client_mobile&#45;&gt;at_utils -->
<g id="edge30" class="edge">
<title>at_client_mobile&#45;&gt;at_utils</title>
<path fill="none" stroke="#75e849" d="M3226.74,-2266.37C3231.21,-2197.72 3241.91,-1940.1 3168.45,-1747.78 2999.73,-1306.04 2584.52,-881.56 2477.79,-777.14"/>
<polygon fill="#75e849" stroke="#75e849" points="2479.97,-774.38 2470.36,-769.91 2475.09,-779.39 2479.97,-774.38"/>
</g>
<!-- at_contact&#45;&gt;at_client -->
<g id="edge36" class="edge">
<title>at_contact&#45;&gt;at_client</title>
<path fill="none" stroke="#61d4fc" d="M2589.06,-1281C2670.91,-1356.74 2999.03,-1660.41 3094.36,-1748.63"/>
<polygon fill="#61d4fc" stroke="#61d4fc" points="3092.12,-1751.32 3101.84,-1755.55 3096.87,-1746.19 3092.12,-1751.32"/>
</g>
<!-- at_contact&#45;&gt;at_commons -->
<g id="edge37" class="edge">
<title>at_contact&#45;&gt;at_commons</title>
<path fill="none" stroke="#7eceb0" d="M2568.91,-1244.52C2558.21,-1124.72 2495.06,-417.55 2481.87,-269.82"/>
<polygon fill="#7eceb0" stroke="#7eceb0" points="2485.35,-269.45 2480.97,-259.8 2478.37,-270.07 2485.35,-269.45"/>
</g>
<!-- at_contact&#45;&gt;at_utils -->
<g id="edge38" class="edge">
<title>at_contact&#45;&gt;at_utils</title>
<path fill="none" stroke="#75e849" d="M2566.46,-1244.55C2549.09,-1169.63 2480.04,-871.81 2458.74,-779.92"/>
<polygon fill="#75e849" stroke="#75e849" points="2462.11,-778.95 2456.44,-770 2455.29,-780.53 2462.11,-778.95"/>
</g>
<!-- at_contacts_flutter -->
<g id="node12" class="node">
<title>at_contacts_flutter</title>
<polygon fill="none" stroke="#1267b5" points="3515.95,-2891.78 3366.95,-2891.78 3366.95,-2855.78 3515.95,-2855.78 3515.95,-2891.78"/>
<text text-anchor="middle" x="3441.45" y="-2870.08" font-family="Times,serif" font-size="14.00">at_contacts_flutter</text>
</g>
<!-- at_contacts_flutter&#45;&gt;at_client -->
<g id="edge39" class="edge">
<title>at_contacts_flutter&#45;&gt;at_client</title>
<path fill="none" stroke="#61d4fc" d="M3449.59,-2855.54C3483.38,-2781.48 3607.17,-2483.78 3525.45,-2258.78 3448.22,-2046.14 3232.11,-1861.65 3151.38,-1798.23"/>
<polygon fill="#61d4fc" stroke="#61d4fc" points="3153.15,-1795.17 3143.11,-1791.79 3148.85,-1800.69 3153.15,-1795.17"/>
</g>
<!-- at_contacts_flutter&#45;&gt;at_client_mobile -->
<g id="edge40" class="edge">
<title>at_contacts_flutter&#45;&gt;at_client_mobile</title>
<path fill="none" stroke="#d9577c" d="M3435.1,-2855.53C3404.55,-2772.5 3272.58,-2413.87 3235.3,-2312.53"/>
<polygon fill="#d9577c" stroke="#d9577c" points="3238.54,-2311.2 3231.8,-2303.03 3231.97,-2313.62 3238.54,-2311.2"/>
</g>
<!-- at_contacts_flutter&#45;&gt;at_common_flutter -->
<g id="edge41" class="edge">
<title>at_contacts_flutter&#45;&gt;at_common_flutter</title>
<path fill="none" stroke="#bf681f" d="M3441.45,-2855.53C3441.45,-2772.66 3441.45,-2415.31 3441.45,-2313.15"/>
<polygon fill="#bf681f" stroke="#bf681f" points="3444.95,-2313.03 3441.45,-2303.03 3437.95,-2313.03 3444.95,-2313.03"/>
</g>
<!-- at_contacts_flutter&#45;&gt;at_commons -->
<g id="edge42" class="edge">
<title>at_contacts_flutter&#45;&gt;at_commons</title>
<path fill="none" stroke="#7eceb0" d="M3425.89,-2855.67C3368.85,-2791.99 3169.3,-2560.64 3069.45,-2333.78 2966.78,-2100.49 2941.45,-2029.65 2941.45,-1774.78 2941.45,-1774.78 2941.45,-1774.78 2941.45,-1261.78 2941.45,-828.73 2591.07,-377.11 2500.57,-267.7"/>
<polygon fill="#7eceb0" stroke="#7eceb0" points="2503.13,-265.3 2494.04,-259.85 2497.75,-269.78 2503.13,-265.3"/>
</g>
<!-- at_contacts_flutter&#45;&gt;at_contact -->
<g id="edge43" class="edge">
<title>at_contacts_flutter&#45;&gt;at_contact</title>
<path fill="none" stroke="#250aa2" d="M3416.39,-2855.59C3330.98,-2795.46 3049.72,-2584.53 2927.45,-2333.78 2812.08,-2097.17 2926.27,-1996.97 2841.45,-1747.78 2777.17,-1558.93 2639.49,-1358.81 2589.27,-1289.3"/>
<polygon fill="#250aa2" stroke="#250aa2" points="2592.03,-1287.14 2583.32,-1281.11 2586.37,-1291.26 2592.03,-1287.14"/>
</g>
<!-- at_contacts_flutter&#45;&gt;at_lookup -->
<g id="edge44" class="edge">
<title>at_contacts_flutter&#45;&gt;at_lookup</title>
<path fill="none" stroke="#94d42d" d="M3420.71,-2855.68C3344.26,-2792.02 3073.12,-2560.77 2889.45,-2333.78 2736.13,-2144.28 2594.26,-1884.49 2550.36,-1801.44"/>
<polygon fill="#94d42d" stroke="#94d42d" points="2553.25,-1799.42 2545.49,-1792.21 2547.06,-1802.69 2553.25,-1799.42"/>
</g>
<!-- at_contacts_flutter&#45;&gt;at_utils -->
<g id="edge45" class="edge">
<title>at_contacts_flutter&#45;&gt;at_utils</title>
<path fill="none" stroke="#75e849" d="M3446.06,-2855.73C3463.74,-2789.44 3527.16,-2542.12 3547.45,-2333.78 3574.02,-2061 3496.27,-1982.9 3355.45,-1747.78 3088.61,-1302.22 2602.94,-879.1 2480.87,-776.37"/>
<polygon fill="#75e849" stroke="#75e849" points="2482.95,-773.55 2473.04,-769.8 2478.45,-778.91 2482.95,-773.55"/>
</g>
<!-- at_contacts_group_flutter -->
<g id="node13" class="node">
<title>at_contacts_group_flutter</title>
<polygon fill="none" stroke="#dae1d2" points="3749.45,-3402.78 3551.45,-3402.78 3551.45,-3366.78 3749.45,-3366.78 3749.45,-3402.78"/>
<text text-anchor="middle" x="3650.45" y="-3381.08" font-family="Times,serif" font-size="14.00">at_contacts_group_flutter</text>
</g>
<!-- at_contacts_group_flutter&#45;&gt;at_client_mobile -->
<g id="edge46" class="edge">
<title>at_contacts_group_flutter&#45;&gt;at_client_mobile</title>
<path fill="none" stroke="#d9577c" d="M3635.04,-3366.57C3582.04,-3306.37 3406.16,-3097.64 3325.45,-2891.78 3242.4,-2679.95 3228.32,-2400.24 3225.94,-2312.97"/>
<polygon fill="#d9577c" stroke="#d9577c" points="3229.43,-2312.76 3225.69,-2302.84 3222.43,-2312.93 3229.43,-2312.76"/>
</g>
<!-- at_contacts_group_flutter&#45;&gt;at_common_flutter -->
<g id="edge47" class="edge">
<title>at_contacts_group_flutter&#45;&gt;at_common_flutter</title>
<path fill="none" stroke="#bf681f" d="M3653.89,-3366.43C3666.64,-3299.03 3708.59,-3048.38 3669.45,-2847.78 3627,-2630.24 3500.21,-2390.47 3456.48,-2312.11"/>
<polygon fill="#bf681f" stroke="#bf681f" points="3459.28,-2309.96 3451.33,-2302.96 3453.18,-2313.39 3459.28,-2309.96"/>
</g>
<!-- at_contacts_group_flutter&#45;&gt;at_commons -->
<g id="edge48" class="edge">
<title>at_contacts_group_flutter&#45;&gt;at_commons</title>
<path fill="none" stroke="#7eceb0" d="M3716.55,-3366.69C3885.53,-3319.78 4337.78,-3173.31 4590.45,-2891.78 4783.72,-2676.42 4828.45,-2575.14 4828.45,-2285.78 4828.45,-2285.78 4828.45,-2285.78 4828.45,-1261.78 4828.45,-748.16 2914.49,-331.51 2541.89,-255.26"/>
<polygon fill="#7eceb0" stroke="#7eceb0" points="2542.58,-251.83 2532.08,-253.26 2541.18,-258.69 2542.58,-251.83"/>
</g>
<!-- at_contacts_group_flutter&#45;&gt;at_contact -->
<g id="edge49" class="edge">
<title>at_contacts_group_flutter&#45;&gt;at_contact</title>
<path fill="none" stroke="#250aa2" d="M3633.48,-3366.66C3541.32,-3272.62 3097.59,-2805.75 2894.45,-2333.78 2789.62,-2090.22 2861.02,-2001.02 2782.45,-1747.78 2726.11,-1566.19 2622.05,-1361.4 2584.46,-1289.99"/>
<polygon fill="#250aa2" stroke="#250aa2" points="2587.37,-1288.02 2579.6,-1280.81 2581.18,-1291.29 2587.37,-1288.02"/>
</g>
<!-- at_contacts_group_flutter&#45;&gt;at_contacts_flutter -->
<g id="edge50" class="edge">
<title>at_contacts_group_flutter&#45;&gt;at_contacts_flutter</title>
<path fill="none" stroke="#1267b5" d="M3643.38,-3366.55C3612.55,-3291.48 3489.83,-2992.6 3452.37,-2901.36"/>
<polygon fill="#1267b5" stroke="#1267b5" points="3455.56,-2899.92 3448.52,-2892 3449.08,-2902.58 3455.56,-2899.92"/>
</g>
<!-- at_contacts_group_flutter&#45;&gt;at_utils -->
<g id="edge51" class="edge">
<title>at_contacts_group_flutter&#45;&gt;at_utils</title>
<path fill="none" stroke="#75e849" d="M3725.35,-3366.7C3902.16,-3322.24 4346.67,-3185.37 4561.45,-2891.78 4723.31,-2670.52 4676.45,-2559.92 4676.45,-2285.78 4676.45,-2285.78 4676.45,-2285.78 4676.45,-1772.78 4676.45,-777.35 2812.9,-749.63 2497.53,-752.07"/>
<polygon fill="#75e849" stroke="#75e849" points="2497.35,-748.57 2487.38,-752.16 2497.42,-755.57 2497.35,-748.57"/>
</g>
<!-- at_cram -->
<g id="node14" class="node">
<title>at_cram</title>
<polygon fill="none" stroke="#c89a29" points="2080.45,-3402.78 2006.45,-3402.78 2006.45,-3366.78 2080.45,-3366.78 2080.45,-3402.78"/>
<text text-anchor="middle" x="2043.45" y="-3381.08" font-family="Times,serif" font-size="14.00">at_cram</text>
</g>
<!-- at_daemon_cli -->
<g id="node15" class="node">
<title>at_daemon_cli</title>
<polygon fill="none" stroke="#8e17d5" points="1376.95,-3402.78 1259.95,-3402.78 1259.95,-3366.78 1376.95,-3366.78 1376.95,-3402.78"/>
<text text-anchor="middle" x="1318.45" y="-3381.08" font-family="Times,serif" font-size="14.00">at_daemon_cli</text>
</g>
<!-- at_daemon_cli&#45;&gt;at_client -->
<g id="edge52" class="edge">
<title>at_daemon_cli&#45;&gt;at_client</title>
<path fill="none" stroke="#61d4fc" d="M1299.93,-3366.42C1238.42,-3307.31 1040.97,-3105.67 973.45,-2891.78 966.04,-2868.29 882.39,-2380.01 980.45,-2258.78 1257.16,-1916.69 2777.19,-1797.86 3071.2,-1777.93"/>
<polygon fill="#61d4fc" stroke="#61d4fc" points="3071.79,-1781.4 3081.54,-1777.24 3071.32,-1774.41 3071.79,-1781.4"/>
</g>
<!-- at_daemon_cli&#45;&gt;at_commons -->
<g id="edge57" class="edge">
<title>at_daemon_cli&#45;&gt;at_commons</title>
<path fill="none" stroke="#7eceb0" d="M1292.38,-3366.71C1157.86,-3277.26 536.77,-2846.96 232.45,-2333.78 -17.05,-1913.03 -37.13,-1691.38 143.45,-1236.78 246.29,-977.87 285.71,-888.38 517.45,-733.78 1163.51,-302.76 2157.81,-250.01 2416.3,-243.63"/>
<polygon fill="#7eceb0" stroke="#7eceb0" points="2416.71,-247.12 2426.62,-243.39 2416.55,-240.13 2416.71,-247.12"/>
</g>
<!-- at_daemon_core -->
<g id="node17" class="node">
<title>at_daemon_core</title>
<polygon fill="none" stroke="#c16272" points="1119.95,-2302.78 988.95,-2302.78 988.95,-2266.78 1119.95,-2266.78 1119.95,-2302.78"/>
<text text-anchor="middle" x="1054.45" y="-2281.08" font-family="Times,serif" font-size="14.00">at_daemon_core</text>
</g>
<!-- at_daemon_cli&#45;&gt;at_daemon_core -->
<g id="edge54" class="edge">
<title>at_daemon_cli&#45;&gt;at_daemon_core</title>
<path fill="none" stroke="#c16272" d="M1297.4,-3366.67C1233.26,-3307.61 1042.4,-3104.13 977.45,-2891.78 911.33,-2675.58 1002.84,-2398.4 1040.23,-2312.41"/>
<polygon fill="#c16272" stroke="#c16272" points="1043.5,-2313.67 1044.4,-2303.11 1037.11,-2310.8 1043.5,-2313.67"/>
</g>
<!-- at_daemon_cli&#45;&gt;at_daemon_core -->
<g id="edge58" class="edge">
<title>at_daemon_cli&#45;&gt;at_daemon_core</title>
<path fill="none" stroke="#c16272" stroke-dasharray="1,5" d="M1304.66,-3366.67C1251.26,-3307.61 1060.4,-3104.13 995.45,-2891.78 929.4,-2675.8 1020.65,-2398.96 1047.7,-2312.67"/>
<polygon fill="#c16272" stroke="#c16272" points="1051.04,-2313.7 1050.66,-2303.11 1044.36,-2311.62 1051.04,-2313.7"/>
</g>
<!-- at_daemon_server -->
<g id="node19" class="node">
<title>at_daemon_server</title>
<polygon fill="none" stroke="#4bd261" points="1299.45,-2891.78 1153.45,-2891.78 1153.45,-2855.78 1299.45,-2855.78 1299.45,-2891.78"/>
<text text-anchor="middle" x="1226.45" y="-2870.08" font-family="Times,serif" font-size="14.00">at_daemon_server</text>
</g>
<!-- at_daemon_cli&#45;&gt;at_daemon_server -->
<g id="edge55" class="edge">
<title>at_daemon_cli&#45;&gt;at_daemon_server</title>
<path fill="none" stroke="#4bd261" d="M1312.69,-3366.55C1293.91,-3291.71 1239.97,-2994.41 1228.14,-2902.2"/>
<polygon fill="#4bd261" stroke="#4bd261" points="1231.58,-2901.51 1226.91,-2892 1224.63,-2902.34 1231.58,-2901.51"/>
</g>
<!-- at_daemon_cli&#45;&gt;at_daemon_server -->
<g id="edge59" class="edge">
<title>at_daemon_cli&#45;&gt;at_daemon_server</title>
<path fill="none" stroke="#4bd261" stroke-dasharray="1,5" d="M1317.99,-3366.55C1309.7,-3291.63 1256.07,-2993.81 1234.61,-2901.92"/>
<polygon fill="#4bd261" stroke="#4bd261" points="1237.96,-2900.9 1232.21,-2892 1231.16,-2902.54 1237.96,-2900.9"/>
</g>
<!-- at_daemon_cli&#45;&gt;at_onboarding_cli -->
<g id="edge53" class="edge">
<title>at_daemon_cli&#45;&gt;at_onboarding_cli</title>
<path fill="none" stroke="#514d2d" d="M1354.36,-3366.69C1514.76,-3290.39 2165.63,-2980.77 2343.4,-2896.21"/>
<polygon fill="#514d2d" stroke="#514d2d" points="2344.95,-2899.34 2352.48,-2891.89 2341.95,-2893.02 2344.95,-2899.34"/>
</g>
<!-- at_daemon_cli&#45;&gt;at_utils -->
<g id="edge56" class="edge">
<title>at_daemon_cli&#45;&gt;at_utils</title>
<path fill="none" stroke="#75e849" d="M1319.73,-3366.69C1327.26,-3264.71 1365.45,-2726.05 1365.45,-2285.78 1365.45,-2285.78 1365.45,-2285.78 1365.45,-1772.78 1365.45,-1190.65 2204.69,-844.01 2408.33,-768.47"/>
<polygon fill="#75e849" stroke="#75e849" points="2409.64,-771.71 2417.82,-764.97 2407.23,-765.15 2409.64,-771.71"/>
</g>
<!-- at_daemon_client -->
<g id="node16" class="node">
<title>at_daemon_client</title>
<polygon fill="none" stroke="#dbe812" points="1135.45,-2891.78 995.45,-2891.78 995.45,-2855.78 1135.45,-2855.78 1135.45,-2891.78"/>
<text text-anchor="middle" x="1065.45" y="-2870.08" font-family="Times,serif" font-size="14.00">at_daemon_client</text>
</g>
<!-- at_daemon_client&#45;&gt;at_daemon_core -->
<g id="edge60" class="edge">
<title>at_daemon_client&#45;&gt;at_daemon_core</title>
<path fill="none" stroke="#c16272" d="M1062.64,-2855.53C1055.6,-2772.66 1048.71,-2415.31 1051.9,-2313.15"/>
<polygon fill="#c16272" stroke="#c16272" points="1055.4,-2313.15 1052.29,-2303.03 1048.41,-2312.88 1055.4,-2313.15"/>
</g>
<!-- at_daemon_client&#45;&gt;at_daemon_core -->
<g id="edge61" class="edge">
<title>at_daemon_client&#45;&gt;at_daemon_core</title>
<path fill="none" stroke="#c16272" stroke-dasharray="1,5" d="M1067.61,-2855.53C1071.55,-2772.66 1065.04,-2415.31 1058.03,-2313.15"/>
<polygon fill="#c16272" stroke="#c16272" points="1061.5,-2312.73 1057.26,-2303.03 1054.52,-2313.26 1061.5,-2312.73"/>
</g>
<!-- at_daemon_core&#45;&gt;at_commons -->
<g id="edge63" class="edge">
<title>at_daemon_core&#45;&gt;at_commons</title>
<path fill="none" stroke="#7eceb0" d="M988.85,-2268.83C822.77,-2227.06 386.35,-2091.95 209.45,-1791.78 84.19,-1579.22 77.48,-1451.8 198.45,-1236.78 679.07,-382.44 2099.89,-261.68 2416.45,-245.27"/>
<polygon fill="#7eceb0" stroke="#7eceb0" points="2417,-248.74 2426.81,-244.75 2416.65,-241.75 2417,-248.74"/>
</g>
<!-- at_daemon_core&#45;&gt;at_utils -->
<g id="edge62" class="edge">
<title>at_daemon_core&#45;&gt;at_utils</title>
<path fill="none" stroke="#75e849" d="M988.7,-2268.05C825,-2224.95 400.29,-2087.84 232.45,-1791.78 110.8,-1577.19 77.72,-1428.88 232.45,-1236.78 520.26,-879.45 2118.11,-771.87 2407.5,-755.21"/>
<polygon fill="#75e849" stroke="#75e849" points="2407.84,-758.69 2417.63,-754.63 2407.45,-751.7 2407.84,-758.69"/>
</g>
<!-- at_daemon_desktop -->
<g id="node18" class="node">
<title>at_daemon_desktop</title>
<polygon fill="none" stroke="#89d485" points="1241.95,-3402.78 1084.95,-3402.78 1084.95,-3366.78 1241.95,-3366.78 1241.95,-3402.78"/>
<text text-anchor="middle" x="1163.45" y="-3381.08" font-family="Times,serif" font-size="14.00">at_daemon_desktop</text>
</g>
<!-- at_daemon_server&#45;&gt;at_client -->
<g id="edge64" class="edge">
<title>at_daemon_server&#45;&gt;at_client</title>
<path fill="none" stroke="#61d4fc" d="M1228.94,-2855.57C1241.52,-2775.04 1305.45,-2432.06 1503.45,-2258.78 1995.44,-1828.21 2858.05,-1780.52 3071.6,-1775.37"/>
<polygon fill="#61d4fc" stroke="#61d4fc" points="3071.93,-1778.86 3081.85,-1775.14 3071.78,-1771.86 3071.93,-1778.86"/>
</g>
<!-- at_daemon_server&#45;&gt;at_daemon_core -->
<g id="edge65" class="edge">
<title>at_daemon_server&#45;&gt;at_daemon_core</title>
<path fill="none" stroke="#c16272" d="M1218.91,-2855.53C1189.11,-2772.58 1084.03,-2414.59 1059.33,-2312.84"/>
<polygon fill="#c16272" stroke="#c16272" points="1062.72,-2311.96 1057.02,-2303.03 1055.91,-2313.56 1062.72,-2311.96"/>
</g>
<!-- at_daemon_server&#45;&gt;at_daemon_core -->
<g id="edge68" class="edge">
<title>at_daemon_server&#45;&gt;at_daemon_core</title>
<path fill="none" stroke="#c16272" stroke-dasharray="1,5" d="M1223.88,-2855.53C1205.05,-2772.5 1100.15,-2413.87 1065.32,-2312.53"/>
<polygon fill="#c16272" stroke="#c16272" points="1068.6,-2311.3 1061.99,-2303.03 1062,-2313.62 1068.6,-2311.3"/>
</g>
<!-- at_daemon_server&#45;&gt;at_onboarding_cli -->
<g id="edge67" class="edge">
<title>at_daemon_server&#45;&gt;at_onboarding_cli</title>
<path fill="none" stroke="#514d2d" d="M1240.61,-2891.83C1280.93,-2941.58 1402.38,-3080.2 1540.45,-3129.28 1856.21,-3241.51 2019.61,-3321.01 2294.45,-3129.28 2369.68,-3076.8 2384.87,-2957.06 2387.82,-2902.19"/>
<polygon fill="#514d2d" stroke="#514d2d" points="2391.32,-2902.26 2388.26,-2892.12 2384.32,-2901.96 2391.32,-2902.26"/>
</g>
<!-- at_server_spec -->
<g id="node40" class="node">
<title>at_server_spec</title>
<polygon fill="none" stroke="#e6f023" points="366.45,-1791.78 244.45,-1791.78 244.45,-1755.78 366.45,-1755.78 366.45,-1791.78"/>
<text text-anchor="middle" x="305.45" y="-1770.08" font-family="Times,serif" font-size="14.00">at_server_spec</text>
</g>
<!-- at_daemon_server&#45;&gt;at_server_spec -->
<g id="edge66" class="edge">
<title>at_daemon_server&#45;&gt;at_server_spec</title>
<path fill="none" stroke="#e6f023" d="M1228.66,-2855.76C1237.75,-2778.81 1265.59,-2458.54 1129.45,-2258.78 941.39,-1982.82 539.64,-1841.59 376.51,-1793.83"/>
<polygon fill="#e6f023" stroke="#e6f023" points="377.16,-1790.38 366.58,-1790.96 375.21,-1797.1 377.16,-1790.38"/>
</g>
<!-- at_dump_atKeys -->
<g id="node20" class="node">
<title>at_dump_atKeys</title>
<polygon fill="none" stroke="#80b159" points="1831.95,-3402.78 1698.95,-3402.78 1698.95,-3366.78 1831.95,-3366.78 1831.95,-3402.78"/>
<text text-anchor="middle" x="1765.45" y="-3381.08" font-family="Times,serif" font-size="14.00">at_dump_atKeys</text>
</g>
<!-- at_pkam -->
<g id="node34" class="node">
<title>at_pkam</title>
<polygon fill="none" stroke="#d549ec" points="1803.95,-2891.78 1726.95,-2891.78 1726.95,-2855.78 1803.95,-2855.78 1803.95,-2891.78"/>
<text text-anchor="middle" x="1765.45" y="-2870.08" font-family="Times,serif" font-size="14.00">at_pkam</text>
</g>
<!-- at_dump_atKeys&#45;&gt;at_pkam -->
<g id="edge69" class="edge">
<title>at_dump_atKeys&#45;&gt;at_pkam</title>
<path fill="none" stroke="#d549ec" stroke-dasharray="1,5" d="M1765.45,-3366.55C1765.45,-3291.71 1765.45,-2994.41 1765.45,-2902.2"/>
<polygon fill="#d549ec" stroke="#d549ec" points="1768.95,-2902 1765.45,-2892 1761.95,-2902 1768.95,-2902"/>
</g>
<!-- at_events_flutter -->
<g id="node21" class="node">
<title>at_events_flutter</title>
<polygon fill="none" stroke="#5b74f7" points="3704.95,-3935.78 3567.95,-3935.78 3567.95,-3899.78 3704.95,-3899.78 3704.95,-3935.78"/>
<text text-anchor="middle" x="3636.45" y="-3914.08" font-family="Times,serif" font-size="14.00">at_events_flutter</text>
</g>
<!-- at_events_flutter&#45;&gt;at_client -->
<g id="edge70" class="edge">
<title>at_events_flutter&#45;&gt;at_client</title>
<path fill="none" stroke="#61d4fc" d="M3705.17,-3915.93C3968.84,-3909.14 4896.6,-3850.9 4804.45,-3366.78 4700.09,-2818.5 4638.96,-2619.93 4213.45,-2258.78 3872.89,-1969.72 3332.33,-1824.58 3168.84,-1785.69"/>
<polygon fill="#61d4fc" stroke="#61d4fc" points="3169.61,-1782.28 3159.08,-1783.39 3168.01,-1789.09 3169.61,-1782.28"/>
</g>
<!-- at_events_flutter&#45;&gt;at_client_mobile -->
<g id="edge71" class="edge">
<title>at_events_flutter&#45;&gt;at_client_mobile</title>
<path fill="none" stroke="#d9577c" d="M3569.82,-3899.7C3410.67,-3854.9 3009.91,-3717.33 2851.45,-3433.78 2724.4,-3206.42 2776.08,-3097.08 2851.45,-2847.78 2922.79,-2611.81 3129.38,-2384.21 3200.81,-2310.52"/>
<polygon fill="#d9577c" stroke="#d9577c" points="3203.58,-2312.68 3208.06,-2303.08 3198.57,-2307.79 3203.58,-2312.68"/>
</g>
<!-- at_events_flutter&#45;&gt;at_common_flutter -->
<g id="edge72" class="edge">
<title>at_events_flutter&#45;&gt;at_common_flutter</title>
<path fill="none" stroke="#bf681f" d="M3642.47,-3899.53C3663.73,-3837.57 3735.29,-3620.02 3758.45,-3433.78 3815.89,-2971.83 3527.13,-2434.52 3456.67,-2311.67"/>
<polygon fill="#bf681f" stroke="#bf681f" points="3459.65,-2309.83 3451.62,-2302.92 3453.59,-2313.33 3459.65,-2309.83"/>
</g>
<!-- at_events_flutter&#45;&gt;at_commons -->
<g id="edge73" class="edge">
<title>at_events_flutter&#45;&gt;at_commons</title>
<path fill="none" stroke="#7eceb0" d="M3705.31,-3908.11C3908.19,-3879.14 4510.95,-3767.79 4854.45,-3433.78 5048.29,-3245.29 5094.45,-3145.15 5094.45,-2874.78 5094.45,-2874.78 5094.45,-2874.78 5094.45,-1261.78 5094.45,-1014.97 5106.84,-897.83 4922.45,-733.78 4552.09,-404.25 2886.88,-271.22 2542.07,-246.96"/>
<polygon fill="#7eceb0" stroke="#7eceb0" points="2542.23,-243.47 2532.01,-246.26 2541.75,-250.45 2542.23,-243.47"/>
</g>
<!-- at_events_flutter&#45;&gt;at_contact -->
<g id="edge74" class="edge">
<title>at_events_flutter&#45;&gt;at_contact</title>
<path fill="none" stroke="#250aa2" d="M3569.76,-3899.73C3408.6,-3854.68 2997.77,-3716.11 2814.45,-3433.78 2678.3,-3224.08 2751.45,-3124.79 2751.45,-2874.78 2751.45,-2874.78 2751.45,-2874.78 2751.45,-2283.78 2751.45,-1883.11 2614.38,-1407.35 2578.8,-1290.61"/>
<polygon fill="#250aa2" stroke="#250aa2" points="2582.15,-1289.57 2575.87,-1281.03 2575.45,-1291.62 2582.15,-1289.57"/>
</g>
<!-- at_events_flutter&#45;&gt;at_contacts_flutter -->
<g id="edge75" class="edge">
<title>at_events_flutter&#45;&gt;at_contacts_flutter</title>
<path fill="none" stroke="#1267b5" d="M3623.17,-3899.67C3577.71,-3839.88 3428.32,-3632.97 3378.45,-3433.78 3328.3,-3233.44 3403.98,-2982.67 3431.84,-2901.46"/>
<polygon fill="#1267b5" stroke="#1267b5" points="3435.15,-2902.59 3435.13,-2891.99 3428.54,-2900.28 3435.15,-2902.59"/>
</g>
<!-- at_events_flutter&#45;&gt;at_contacts_group_flutter -->
<g id="edge76" class="edge">
<title>at_events_flutter&#45;&gt;at_contacts_group_flutter</title>
<path fill="none" stroke="#dae1d2" d="M3636.9,-3899.71C3638.93,-3822.78 3647.23,-3507.92 3649.73,-3412.99"/>
<polygon fill="#dae1d2" stroke="#dae1d2" points="3653.24,-3412.87 3650,-3402.78 3646.24,-3412.68 3653.24,-3412.87"/>
</g>
<!-- at_location_flutter -->
<g id="node25" class="node">
<title>at_location_flutter</title>
<polygon fill="none" stroke="#283e9c" points="3533.45,-3402.78 3387.45,-3402.78 3387.45,-3366.78 3533.45,-3366.78 3533.45,-3402.78"/>
<text text-anchor="middle" x="3460.45" y="-3381.08" font-family="Times,serif" font-size="14.00">at_location_flutter</text>
</g>
<!-- at_events_flutter&#45;&gt;at_location_flutter -->
<g id="edge77" class="edge">
<title>at_events_flutter&#45;&gt;at_location_flutter</title>
<path fill="none" stroke="#283e9c" d="M3630.79,-3899.71C3605.24,-3822.63 3500.51,-3506.64 3469.28,-3412.41"/>
<polygon fill="#283e9c" stroke="#283e9c" points="3472.55,-3411.17 3466.09,-3402.78 3465.91,-3413.37 3472.55,-3411.17"/>
</g>
<!-- at_events_flutter&#45;&gt;at_lookup -->
<g id="edge78" class="edge">
<title>at_events_flutter&#45;&gt;at_lookup</title>
<path fill="none" stroke="#94d42d" d="M3567.89,-3902.7C3395.13,-3863.29 2941.23,-3734.43 2737.45,-3433.78 2719.02,-3406.58 2607.56,-2291.37 2603.45,-2258.78 2581.47,-2084.66 2551.26,-1875.88 2540.48,-1802.16"/>
<polygon fill="#94d42d" stroke="#94d42d" points="2543.89,-1801.29 2538.97,-1791.9 2536.96,-1802.3 2543.89,-1801.29"/>
</g>
<!-- at_events_flutter&#45;&gt;at_utils -->
<g id="edge79" class="edge">
<title>at_events_flutter&#45;&gt;at_utils</title>
<path fill="none" stroke="#75e849" d="M3705.28,-3911.7C3912.37,-3892.43 4533.11,-3804.77 4821.45,-3433.78 5137.54,-3027.07 4980.45,-2800.87 4980.45,-2285.78 4980.45,-2285.78 4980.45,-2285.78 4980.45,-1772.78 4980.45,-1518.35 4972.63,-1402.34 4779.45,-1236.78 4414.83,-924.29 2789.72,-779.94 2497.53,-756.29"/>
<polygon fill="#75e849" stroke="#75e849" points="2497.56,-752.79 2487.31,-755.47 2497,-759.76 2497.56,-752.79"/>
</g>
<!-- at_follows_flutter -->
<g id="node22" class="node">
<title>at_follows_flutter</title>
<polygon fill="none" stroke="#13b24b" points="3535.45,-3935.78 3395.45,-3935.78 3395.45,-3899.78 3535.45,-3899.78 3535.45,-3935.78"/>
<text text-anchor="middle" x="3465.45" y="-3914.08" font-family="Times,serif" font-size="14.00">at_follows_flutter</text>
</g>
<!-- at_follows_flutter&#45;&gt;at_client -->
<g id="edge80" class="edge">
<title>at_follows_flutter&#45;&gt;at_client</title>
<path fill="none" stroke="#61d4fc" d="M3516.23,-3899.67C3757.15,-3815.28 4765.62,-3424.16 4580.45,-2847.78 4481.95,-2541.18 4406.26,-2464.43 4158.45,-2258.78 3831.31,-1987.28 3326.58,-1831.68 3169.09,-1787.76"/>
<polygon fill="#61d4fc" stroke="#61d4fc" points="3169.79,-1784.32 3159.22,-1785.03 3167.93,-1791.07 3169.79,-1784.32"/>
</g>
<!-- at_follows_flutter&#45;&gt;at_client_mobile -->
<g id="edge81" class="edge">
<title>at_follows_flutter&#45;&gt;at_client_mobile</title>
<path fill="none" stroke="#d9577c" d="M3413.67,-3899.62C3278.34,-3851.62 2914.9,-3701.6 2775.45,-3433.78 2551.04,-3002.76 3078.42,-2433.5 3200.79,-2310.04"/>
<polygon fill="#d9577c" stroke="#d9577c" points="3203.35,-2312.43 3207.93,-2302.88 3198.39,-2307.49 3203.35,-2312.43"/>
</g>
<!-- at_follows_flutter&#45;&gt;at_commons -->
<g id="edge82" class="edge">
<title>at_follows_flutter&#45;&gt;at_commons</title>
<path fill="none" stroke="#7eceb0" d="M3535.74,-3904.33C3725.18,-3867.27 4252.1,-3740.58 4549.45,-3433.78 4933.03,-3037.99 5018.45,-2836.93 5018.45,-2285.78 5018.45,-2285.78 5018.45,-2285.78 5018.45,-1261.78 5018.45,-1020.72 5067.44,-901.64 4894.45,-733.78 4542.69,-392.44 2886.09,-268.79 2542.1,-246.59"/>
<polygon fill="#7eceb0" stroke="#7eceb0" points="2542.27,-243.09 2532.07,-245.95 2541.82,-250.08 2542.27,-243.09"/>
</g>
<!-- at_follows_flutter&#45;&gt;at_lookup -->
<g id="edge83" class="edge">
<title>at_follows_flutter&#45;&gt;at_lookup</title>
<path fill="none" stroke="#94d42d" d="M3415.1,-3899.61C3280.45,-3850.83 2910.97,-3697.64 2743.45,-3433.78 2697.55,-3361.48 2560.33,-2012.27 2539.2,-1802.17"/>
<polygon fill="#94d42d" stroke="#94d42d" points="2542.66,-1801.61 2538.17,-1792.01 2535.69,-1802.31 2542.66,-1801.61"/>
</g>
<!-- at_server_status -->
<g id="node41" class="node">
<title>at_server_status</title>
<polygon fill="none" stroke="#320113" points="2483.45,-2302.78 2349.45,-2302.78 2349.45,-2266.78 2483.45,-2266.78 2483.45,-2302.78"/>
<text text-anchor="middle" x="2416.45" y="-2281.08" font-family="Times,serif" font-size="14.00">at_server_status</text>
</g>
<!-- at_follows_flutter&#45;&gt;at_server_status -->
<g id="edge84" class="edge">
<title>at_follows_flutter&#45;&gt;at_server_status</title>
<path fill="none" stroke="#320113" d="M3399.27,-3899.7C3237.59,-3854.28 2821.33,-3714.39 2623.45,-3433.78 2555.99,-3338.12 2441.56,-2478.98 2420.01,-2313.34"/>
<polygon fill="#320113" stroke="#320113" points="2423.43,-2312.51 2418.67,-2303.04 2416.48,-2313.41 2423.43,-2312.51"/>
</g>
<!-- at_follows_flutter&#45;&gt;at_utils -->
<g id="edge85" class="edge">
<title>at_follows_flutter&#45;&gt;at_utils</title>
<path fill="none" stroke="#75e849" d="M3533.9,-3899.69C3805.22,-3827.48 4790.45,-3520.79 4790.45,-2874.78 4790.45,-2874.78 4790.45,-2874.78 4790.45,-1772.78 4790.45,-1533.86 4906.94,-1416.44 4749.45,-1236.78 4436.65,-879.94 2792.22,-771.8 2497.65,-755.18"/>
<polygon fill="#75e849" stroke="#75e849" points="2497.53,-751.66 2487.35,-754.6 2497.14,-758.65 2497.53,-751.66"/>
</g>
<!-- at_hive_recovery -->
<g id="node23" class="node">
<title>at_hive_recovery</title>
<polygon fill="none" stroke="#f0efbc" points="1680.95,-3402.78 1543.95,-3402.78 1543.95,-3366.78 1680.95,-3366.78 1680.95,-3402.78"/>
<text text-anchor="middle" x="1612.45" y="-3381.08" font-family="Times,serif" font-size="14.00">at_hive_recovery</text>
</g>
<!-- at_hive_recovery&#45;&gt;at_persistence_secondary_server -->
<g id="edge86" class="edge">
<title>at_hive_recovery&#45;&gt;at_persistence_secondary_server</title>
<path fill="none" stroke="#9760d3" d="M1603.75,-3366.48C1572.94,-3304.3 1468.69,-3085.46 1427.45,-2891.78 1368.75,-2616.12 1521.65,-2507.69 1389.45,-2258.78 1257.38,-2010.11 935.29,-1850.48 809.74,-1795.83"/>
<polygon fill="#9760d3" stroke="#9760d3" points="810.91,-1792.52 800.34,-1791.78 808.13,-1798.95 810.91,-1792.52"/>
</g>
<!-- at_invitation_flutter -->
<g id="node24" class="node">
<title>at_invitation_flutter</title>
<polygon fill="none" stroke="#b653c9" points="4049.45,-2891.78 3891.45,-2891.78 3891.45,-2855.78 4049.45,-2855.78 4049.45,-2891.78"/>
<text text-anchor="middle" x="3970.45" y="-2870.08" font-family="Times,serif" font-size="14.00">at_invitation_flutter</text>
</g>
<!-- at_invitation_flutter&#45;&gt;at_client_mobile -->
<g id="edge87" class="edge">
<title>at_invitation_flutter&#45;&gt;at_client_mobile</title>
<path fill="none" stroke="#d9577c" d="M3948.56,-2855.53C3842.01,-2771.57 3377.86,-2405.86 3255.25,-2309.25"/>
<polygon fill="#d9577c" stroke="#d9577c" points="3257.37,-2306.47 3247.34,-2303.03 3253.03,-2311.96 3257.37,-2306.47"/>
</g>
<!-- at_invitation_flutter&#45;&gt;at_common_flutter -->
<g id="edge88" class="edge">
<title>at_invitation_flutter&#45;&gt;at_common_flutter</title>
<path fill="none" stroke="#bf681f" d="M3954.9,-2855.53C3879.63,-2771.99 3552.96,-2409.51 3463.93,-2310.72"/>
<polygon fill="#bf681f" stroke="#bf681f" points="3466.29,-2308.11 3457,-2303.03 3461.09,-2312.8 3466.29,-2308.11"/>
</g>
<!-- at_invitation_flutter&#45;&gt;at_commons -->
<g id="edge89" class="edge">
<title>at_invitation_flutter&#45;&gt;at_commons</title>
<path fill="none" stroke="#7eceb0" d="M3965.78,-2855.73C3947.86,-2789.44 3883.32,-2542.12 3859.45,-2333.78 3831.16,-2086.87 3845.45,-2023.3 3845.45,-1774.78 3845.45,-1774.78 3845.45,-1774.78 3845.45,-1261.78 3845.45,-602.33 2810,-318.75 2542.11,-256.41"/>
<polygon fill="#7eceb0" stroke="#7eceb0" points="2542.69,-252.96 2532.16,-254.12 2541.12,-259.78 2542.69,-252.96"/>
</g>
<!-- at_invitation_flutter&#45;&gt;at_lookup -->
<g id="edge90" class="edge">
<title>at_invitation_flutter&#45;&gt;at_lookup</title>
<path fill="none" stroke="#94d42d" d="M3934.3,-2855.62C3808,-2794.8 3377.39,-2579.83 3069.45,-2333.78 2954.3,-2241.76 2643.85,-1895.54 2558.45,-1799.57"/>
<polygon fill="#94d42d" stroke="#94d42d" points="2560.83,-1796.98 2551.57,-1791.83 2555.6,-1801.63 2560.83,-1796.98"/>
</g>
<!-- at_invitation_flutter&#45;&gt;at_utils -->
<g id="edge91" class="edge">
<title>at_invitation_flutter&#45;&gt;at_utils</title>
<path fill="none" stroke="#75e849" d="M3970.52,-2855.7C3970.17,-2781.04 3962.23,-2477.39 3859.45,-2258.78 3511.75,-1519.21 2664.55,-900.56 2485.88,-775.74"/>
<polygon fill="#75e849" stroke="#75e849" points="2487.61,-772.68 2477.4,-769.84 2483.61,-778.42 2487.61,-772.68"/>
</g>
<!-- at_location_flutter&#45;&gt;at_client -->
<g id="edge92" class="edge">
<title>at_location_flutter&#45;&gt;at_client</title>
<path fill="none" stroke="#61d4fc" d="M3526.48,-3366.76C3776.54,-3300.59 4646.15,-3053.84 4543.45,-2847.78 4235.05,-2228.98 3380.86,-1872.92 3168.65,-1792.39"/>
<polygon fill="#61d4fc" stroke="#61d4fc" points="3169.63,-1789.02 3159.03,-1788.76 3167.16,-1795.57 3169.63,-1789.02"/>
</g>
<!-- at_location_flutter&#45;&gt;at_client_mobile -->
<g id="edge93" class="edge">
<title>at_location_flutter&#45;&gt;at_client_mobile</title>
<path fill="none" stroke="#d9577c" d="M3450.35,-3366.69C3414.61,-3305.22 3293.93,-3088.49 3249.45,-2891.78 3200.02,-2673.14 3216.2,-2399.04 3223.06,-2312.94"/>
<polygon fill="#d9577c" stroke="#d9577c" points="3226.55,-2313.19 3223.88,-2302.94 3219.57,-2312.62 3226.55,-2313.19"/>
</g>
<!-- at_location_flutter&#45;&gt;at_common_flutter -->
<g id="edge94" class="edge">
<title>at_location_flutter&#45;&gt;at_common_flutter</title>
<path fill="none" stroke="#bf681f" d="M3470.39,-3366.69C3505.49,-3305.18 3623.67,-3088.35 3662.45,-2891.78 3708.67,-2657.5 3524.57,-2393.07 3461.76,-2311.25"/>
<polygon fill="#bf681f" stroke="#bf681f" points="3464.29,-2308.8 3455.4,-2303.04 3458.76,-2313.09 3464.29,-2308.8"/>
</g>
<!-- at_location_flutter&#45;&gt;at_commons -->
<g id="edge95" class="edge">
<title>at_location_flutter&#45;&gt;at_commons</title>
<path fill="none" stroke="#7eceb0" d="M3512.6,-3366.66C3711.96,-3300.43 4423.02,-3056.43 4590.45,-2891.78 4801.46,-2684.26 4866.45,-2581.73 4866.45,-2285.78 4866.45,-2285.78 4866.45,-2285.78 4866.45,-1261.78 4866.45,-1026.87 4994.8,-912.58 4842.45,-733.78 4531.22,-368.5 2885.13,-263.8 2542.11,-245.81"/>
<polygon fill="#7eceb0" stroke="#7eceb0" points="2542.28,-242.31 2532.11,-245.29 2541.92,-249.3 2542.28,-242.31"/>
</g>
<!-- at_location_flutter&#45;&gt;at_contact -->
<g id="edge96" class="edge">
<title>at_location_flutter&#45;&gt;at_contact</title>
<path fill="none" stroke="#250aa2" d="M3431.86,-3366.77C3341.35,-3311.3 3059.36,-3125.7 2927.45,-2891.78 2675.22,-2444.47 2883.7,-2247.49 2765.45,-1747.78 2722.31,-1565.49 2621.64,-1361.91 2584.52,-1290.36"/>
<polygon fill="#250aa2" stroke="#250aa2" points="2587.45,-1288.4 2579.72,-1281.16 2581.24,-1291.64 2587.45,-1288.4"/>
</g>
<!-- at_location_flutter&#45;&gt;at_contacts_flutter -->
<g id="edge97" class="edge">
<title>at_location_flutter&#45;&gt;at_contacts_flutter</title>
<path fill="none" stroke="#1267b5" d="M3459.81,-3366.55C3457.01,-3291.71 3445.92,-2994.41 3442.47,-2902.2"/>
<polygon fill="#1267b5" stroke="#1267b5" points="3445.96,-2901.86 3442.09,-2892 3438.97,-2902.12 3445.96,-2901.86"/>
</g>
<!-- at_location_flutter&#45;&gt;at_lookup -->
<g id="edge98" class="edge">
<title>at_location_flutter&#45;&gt;at_lookup</title>
<path fill="none" stroke="#94d42d" d="M3430.85,-3366.69C3336.96,-3310.99 3043.03,-3124.76 2889.45,-2891.78 2727.07,-2645.44 2778.36,-2540.1 2689.45,-2258.78 2634.4,-2084.58 2568.18,-1875.12 2544.98,-1801.74"/>
<polygon fill="#94d42d" stroke="#94d42d" points="2548.22,-1800.4 2541.87,-1791.92 2541.55,-1802.51 2548.22,-1800.4"/>
</g>
<!-- at_location_flutter&#45;&gt;at_utils -->
<g id="edge99" class="edge">
<title>at_location_flutter&#45;&gt;at_utils</title>
<path fill="none" stroke="#75e849" d="M3514.24,-3366.69C3714.67,-3302.03 4414.12,-3067.07 4561.45,-2891.78 4740.18,-2679.12 4714.45,-2563.56 4714.45,-2285.78 4714.45,-2285.78 4714.45,-2285.78 4714.45,-1772.78 4714.45,-1534.31 4844.3,-1418.96 4690.45,-1236.78 4391.97,-883.33 2786.3,-772.5 2497.1,-755.28"/>
<polygon fill="#75e849" stroke="#75e849" points="2497.17,-751.78 2486.98,-754.68 2496.76,-758.77 2497.17,-751.78"/>
</g>
<!-- at_login_flutter -->
<g id="node26" class="node">
<title>at_login_flutter</title>
<polygon fill="none" stroke="#7ceee7" points="4533.95,-3935.78 4408.95,-3935.78 4408.95,-3899.78 4533.95,-3899.78 4533.95,-3935.78"/>
<text text-anchor="middle" x="4471.45" y="-3914.08" font-family="Times,serif" font-size="14.00">at_login_flutter</text>
</g>
<!-- at_login_flutter&#45;&gt;at_client -->
<g id="edge100" class="edge">
<title>at_login_flutter&#45;&gt;at_client</title>
<path fill="none" stroke="#61d4fc" d="M4518.7,-3899.73C4667.96,-3842.77 5114.72,-3646.65 5032.45,-3366.78 4863.68,-2792.65 4736.8,-2630 4267.45,-2258.78 3901.35,-1969.21 3336.65,-1823.75 3168.98,-1785.34"/>
<polygon fill="#61d4fc" stroke="#61d4fc" points="3169.73,-1781.92 3159.2,-1783.12 3168.18,-1788.75 3169.73,-1781.92"/>
</g>
<!-- at_login_flutter&#45;&gt;at_client_mobile -->
<g id="edge101" class="edge">
<title>at_login_flutter&#45;&gt;at_client_mobile</title>
<path fill="none" stroke="#d9577c" d="M4408.93,-3908.29C4221.87,-3879.49 3662.03,-3767.92 3378.45,-3433.78 3082.98,-3085.63 3191.33,-2451.74 3219.56,-2313.05"/>
<polygon fill="#d9577c" stroke="#d9577c" points="3223.07,-2313.39 3221.67,-2302.89 3216.21,-2311.97 3223.07,-2313.39"/>
</g>
<!-- at_login_flutter&#45;&gt;at_commons -->
<g id="edge102" class="edge">
<title>at_login_flutter&#45;&gt;at_commons</title>
<path fill="none" stroke="#7eceb0" d="M4517.77,-3899.65C4643.92,-3850.21 4993.72,-3694 5136.45,-3433.78 5256.15,-3215.54 5170.45,-3123.68 5170.45,-2874.78 5170.45,-2874.78 5170.45,-2874.78 5170.45,-1261.78 5170.45,-1007.72 5147.9,-894.87 4951.45,-733.78 4563.64,-415.75 2888.1,-273.57 2542.1,-247.32"/>
<polygon fill="#7eceb0" stroke="#7eceb0" points="2542.25,-243.82 2532.02,-246.56 2541.73,-250.8 2542.25,-243.82"/>
</g>
<!-- at_login_flutter&#45;&gt;at_server_status -->
<g id="edge103" class="edge">
<title>at_login_flutter&#45;&gt;at_server_status</title>
<path fill="none" stroke="#320113" d="M4408.82,-3900.95C4228.51,-3853.25 3697.84,-3697.68 3333.45,-3433.78 2862.86,-3092.96 2503.72,-2449.77 2430.26,-2312.12"/>
<polygon fill="#320113" stroke="#320113" points="2433.25,-2310.28 2425.47,-2303.09 2427.07,-2313.57 2433.25,-2310.28"/>
</g>
<!-- at_login_flutter&#45;&gt;at_utils -->
<g id="edge104" class="edge">
<title>at_login_flutter&#45;&gt;at_utils</title>
<path fill="none" stroke="#75e849" d="M4514.8,-3899.72C4635.27,-3849.67 4974.03,-3690.42 5108.45,-3433.78 5223.83,-3213.49 5132.45,-3123.45 5132.45,-2874.78 5132.45,-2874.78 5132.45,-2874.78 5132.45,-1772.78 5132.45,-1495.78 5040.09,-1397.43 4814.45,-1236.78 4417.62,-954.24 2789.94,-785.38 2497.54,-757.04"/>
<polygon fill="#75e849" stroke="#75e849" points="2497.61,-753.53 2487.32,-756.05 2496.94,-760.49 2497.61,-753.53"/>
</g>
<!-- at_lookup&#45;&gt;at_chops -->
<g id="edge107" class="edge">
<title>at_lookup&#45;&gt;at_chops</title>
<path fill="none" stroke="#8fb4d4" d="M2532.79,-1755.55C2516.9,-1680.63 2453.71,-1382.81 2434.21,-1290.92"/>
<polygon fill="#8fb4d4" stroke="#8fb4d4" points="2437.6,-1290.05 2432.1,-1281 2430.76,-1291.51 2437.6,-1290.05"/>
</g>
<!-- at_lookup&#45;&gt;at_commons -->
<g id="edge106" class="edge">
<title>at_lookup&#45;&gt;at_commons</title>
<path fill="none" stroke="#7eceb0" d="M2535.71,-1755.35C2533.02,-1691.8 2523.54,-1466.57 2516.45,-1280.78 2508.61,-1075.3 2485.38,-412.14 2480.4,-269.83"/>
<polygon fill="#7eceb0" stroke="#7eceb0" points="2483.89,-269.66 2480.04,-259.78 2476.9,-269.9 2483.89,-269.66"/>
</g>
<!-- at_lookup&#45;&gt;at_utils -->
<g id="edge105" class="edge">
<title>at_lookup&#45;&gt;at_utils</title>
<path fill="none" stroke="#75e849" d="M2535.03,-1755.5C2525.15,-1635.59 2466.86,-927.73 2454.68,-779.85"/>
<polygon fill="#75e849" stroke="#75e849" points="2458.16,-779.49 2453.85,-769.81 2451.19,-780.07 2458.16,-779.49"/>
</g>
<!-- at_notify_flutter -->
<g id="node28" class="node">
<title>at_notify_flutter</title>
<polygon fill="none" stroke="#19e4c3" points="4381.95,-2891.78 4250.95,-2891.78 4250.95,-2855.78 4381.95,-2855.78 4381.95,-2891.78"/>
<text text-anchor="middle" x="4316.45" y="-2870.08" font-family="Times,serif" font-size="14.00">at_notify_flutter</text>
</g>
<!-- at_notify_flutter&#45;&gt;at_client -->
<g id="edge108" class="edge">
<title>at_notify_flutter&#45;&gt;at_client</title>
<path fill="none" stroke="#61d4fc" d="M4297.66,-2855.53C4160.02,-2729.16 3307.99,-1946.95 3146.76,-1798.93"/>
<polygon fill="#61d4fc" stroke="#61d4fc" points="3148.93,-1796.17 3139.19,-1791.98 3144.19,-1801.33 3148.93,-1796.17"/>
</g>
<!-- at_notify_flutter&#45;&gt;at_client_mobile -->
<g id="edge109" class="edge">
<title>at_notify_flutter&#45;&gt;at_client_mobile</title>
<path fill="none" stroke="#d9577c" d="M4284.68,-2855.68C4128.36,-2771.58 3441.31,-2401.91 3266.18,-2307.69"/>
<polygon fill="#d9577c" stroke="#d9577c" points="3267.75,-2304.56 3257.28,-2302.9 3264.43,-2310.72 3267.75,-2304.56"/>
</g>
<!-- at_notify_flutter&#45;&gt;at_common_flutter -->
<g id="edge110" class="edge">
<title>at_notify_flutter&#45;&gt;at_common_flutter</title>
<path fill="none" stroke="#bf681f" d="M4290.74,-2855.53C4165.35,-2771.41 3618.28,-2404.4 3475.59,-2308.68"/>
<polygon fill="#bf681f" stroke="#bf681f" points="3477.42,-2305.69 3467.16,-2303.03 3473.52,-2311.5 3477.42,-2305.69"/>
</g>
<!-- at_notify_flutter&#45;&gt;at_commons -->
<g id="edge111" class="edge">
<title>at_notify_flutter&#45;&gt;at_commons</title>
<path fill="none" stroke="#7eceb0" d="M4314.6,-2855.58C4307.5,-2788.73 4281.8,-2539.61 4270.45,-2333.78 4256.77,-2085.63 4256.45,-2023.3 4256.45,-1774.78 4256.45,-1774.78 4256.45,-1774.78 4256.45,-1261.78 4256.45,-454.33 2858.68,-277.59 2542.5,-247.94"/>
<polygon fill="#7eceb0" stroke="#7eceb0" points="2542.43,-244.42 2532.15,-246.99 2541.79,-251.39 2542.43,-244.42"/>
</g>
<!-- at_onboarding_cli&#45;&gt;at_auth -->
<g id="edge112" class="edge">
<title>at_onboarding_cli&#45;&gt;at_auth</title>
<path fill="none" stroke="#0f9477" d="M2392.8,-2855.53C2413.71,-2772.58 2503.97,-2414.59 2529.63,-2312.84"/>
<polygon fill="#0f9477" stroke="#0f9477" points="2533.05,-2313.58 2532.1,-2303.03 2526.26,-2311.87 2533.05,-2313.58"/>
</g>
<!-- at_onboarding_cli&#45;&gt;at_chops -->
<g id="edge113" class="edge">
<title>at_onboarding_cli&#45;&gt;at_chops</title>
<path fill="none" stroke="#8fb4d4" d="M2385.75,-2855.62C2375.4,-2788.89 2338.28,-2540.19 2326.45,-2333.78 2302.58,-1917.39 2398.14,-1412.47 2422.78,-1290.99"/>
<polygon fill="#8fb4d4" stroke="#8fb4d4" points="2426.24,-1291.55 2424.82,-1281.05 2419.38,-1290.15 2426.24,-1291.55"/>
</g>
<!-- at_onboarding_cli&#45;&gt;at_client -->
<g id="edge114" class="edge">
<title>at_onboarding_cli&#45;&gt;at_client</title>
<path fill="none" stroke="#61d4fc" d="M2399.95,-2855.53C2483.86,-2729.66 3001.53,-1953.15 3103.15,-1800.73"/>
<polygon fill="#61d4fc" stroke="#61d4fc" points="3106.34,-1802.25 3108.98,-1791.98 3100.52,-1798.36 3106.34,-1802.25"/>
</g>
<!-- at_onboarding_cli&#45;&gt;at_commons -->
<g id="edge115" class="edge">
<title>at_onboarding_cli&#45;&gt;at_commons</title>
<path fill="none" stroke="#7eceb0" d="M2384.62,-2855.44C2362.33,-2753.15 2250.45,-2217.62 2250.45,-1774.78 2250.45,-1774.78 2250.45,-1774.78 2250.45,-1261.78 2250.45,-857.83 2423.87,-385.26 2468.88,-269.4"/>
<polygon fill="#7eceb0" stroke="#7eceb0" points="2472.21,-270.48 2472.6,-259.89 2465.69,-267.93 2472.21,-270.48"/>
</g>
<!-- at_onboarding_cli&#45;&gt;at_lookup -->
<g id="edge116" class="edge">
<title>at_onboarding_cli&#45;&gt;at_lookup</title>
<path fill="none" stroke="#94d42d" d="M2383.73,-2855.49C2364.49,-2782.4 2295.06,-2491.76 2340.45,-2258.78 2376.29,-2074.78 2482.1,-1872.25 2521.47,-1801.17"/>
<polygon fill="#94d42d" stroke="#94d42d" points="2524.76,-1802.47 2526.57,-1792.03 2518.64,-1799.06 2524.76,-1802.47"/>
</g>
<!-- at_onboarding_cli&#45;&gt;at_persistence_secondary_server -->
<g id="edge119" class="edge">
<title>at_onboarding_cli&#45;&gt;at_persistence_secondary_server</title>
<path fill="none" stroke="#9760d3" d="M2363.17,-2855.75C2175.96,-2729.64 1006.13,-1941.62 792.07,-1797.42"/>
<polygon fill="#9760d3" stroke="#9760d3" points="793.97,-1794.48 783.72,-1791.8 790.06,-1800.29 793.97,-1794.48"/>
</g>
<!-- at_onboarding_cli&#45;&gt;at_server_status -->
<g id="edge117" class="edge">
<title>at_onboarding_cli&#45;&gt;at_server_status</title>
<path fill="none" stroke="#320113" d="M2389.27,-2855.53C2393.23,-2772.66 2410.27,-2415.31 2415.14,-2313.15"/>
<polygon fill="#320113" stroke="#320113" points="2418.65,-2313.18 2415.63,-2303.03 2411.65,-2312.85 2418.65,-2313.18"/>
</g>
<!-- at_onboarding_cli&#45;&gt;at_utils -->
<g id="edge118" class="edge">
<title>at_onboarding_cli&#45;&gt;at_utils</title>
<path fill="none" stroke="#75e849" d="M2385.65,-2855.62C2374.88,-2788.89 2335.96,-2540.19 2319.45,-2333.78 2300.01,-2090.66 2245.12,-1477.31 2285.45,-1236.78 2315.91,-1055.09 2406.51,-850.36 2439.9,-778.98"/>
<polygon fill="#75e849" stroke="#75e849" points="2443.13,-780.34 2444.22,-769.81 2436.8,-777.36 2443.13,-780.34"/>
</g>
<!-- at_onboarding_flutter -->
<g id="node30" class="node">
<title>at_onboarding_flutter</title>
<polygon fill="none" stroke="#a801a6" points="4096.45,-3402.78 3926.45,-3402.78 3926.45,-3366.78 4096.45,-3366.78 4096.45,-3402.78"/>
<text text-anchor="middle" x="4011.45" y="-3381.08" font-family="Times,serif" font-size="14.00">at_onboarding_flutter</text>
</g>
<!-- at_onboarding_flutter&#45;&gt;at_auth -->
<g id="edge127" class="edge">
<title>at_onboarding_flutter&#45;&gt;at_auth</title>
<path fill="none" stroke="#0f9477" d="M3987.07,-3366.6C3898.22,-3303.91 3583.64,-3081.26 3328.45,-2891.78 3028,-2668.69 2670.3,-2390.31 2566.21,-2309.04"/>
<polygon fill="#0f9477" stroke="#0f9477" points="2568.36,-2306.28 2558.32,-2302.88 2564.05,-2311.79 2568.36,-2306.28"/>
</g>
<!-- at_onboarding_flutter&#45;&gt;at_backupkey_flutter -->
<g id="edge120" class="edge">
<title>at_onboarding_flutter&#45;&gt;at_backupkey_flutter</title>
<path fill="none" stroke="#590b92" d="M4016.15,-3366.55C4036.61,-3291.63 4117.94,-2993.81 4143.04,-2901.92"/>
<polygon fill="#590b92" stroke="#590b92" points="4146.49,-2902.57 4145.75,-2892 4139.74,-2900.72 4146.49,-2902.57"/>
</g>
<!-- at_onboarding_flutter&#45;&gt;at_client -->
<g id="edge121" class="edge">
<title>at_onboarding_flutter&#45;&gt;at_client</title>
<path fill="none" stroke="#61d4fc" d="M4059.27,-3366.73C4209.6,-3310.06 4657.14,-3116.22 4561.45,-2847.78 4326.03,-2187.32 3392.95,-1859.4 3168.97,-1789.28"/>
<polygon fill="#61d4fc" stroke="#61d4fc" points="3169.74,-1785.85 3159.15,-1786.23 3167.66,-1792.54 3169.74,-1785.85"/>
</g>
<!-- at_onboarding_flutter&#45;&gt;at_client_mobile -->
<g id="edge122" class="edge">
<title>at_onboarding_flutter&#45;&gt;at_client_mobile</title>
<path fill="none" stroke="#d9577c" d="M3972.6,-3366.69C3858.13,-3314.22 3520.02,-3143.54 3358.45,-2891.78 3233.63,-2697.28 3224.61,-2403.14 3224.96,-2312.99"/>
<polygon fill="#d9577c" stroke="#d9577c" points="3228.47,-2312.83 3225.05,-2302.8 3221.47,-2312.77 3228.47,-2312.83"/>
</g>
<!-- at_onboarding_flutter&#45;&gt;at_commons -->
<g id="edge123" class="edge">
<title>at_onboarding_flutter&#45;&gt;at_commons</title>
<path fill="none" stroke="#7eceb0" d="M4042.19,-3366.76C4199.21,-3277.37 4904.45,-2844.77 4904.45,-2285.78 4904.45,-2285.78 4904.45,-2285.78 4904.45,-1261.78 4904.45,-1026.56 5023.21,-910.91 4868.45,-733.78 4549.21,-368.38 2886.87,-263.7 2542.1,-245.78"/>
<polygon fill="#7eceb0" stroke="#7eceb0" points="2542.21,-242.28 2532.04,-245.26 2541.85,-249.27 2542.21,-242.28"/>
</g>
<!-- at_onboarding_flutter&#45;&gt;at_server_status -->
<g id="edge124" class="edge">
<title>at_onboarding_flutter&#45;&gt;at_server_status</title>
<path fill="none" stroke="#320113" d="M3986.72,-3366.75C3803.61,-3240.7 2659.94,-2453.4 2449.66,-2308.63"/>
<polygon fill="#320113" stroke="#320113" points="2451.4,-2305.59 2441.18,-2302.8 2447.43,-2311.35 2451.4,-2305.59"/>
</g>
<!-- at_sync_ui_flutter -->
<g id="node42" class="node">
<title>at_sync_ui_flutter</title>
<polygon fill="none" stroke="#27d02d" points="3873.45,-2891.78 3731.45,-2891.78 3731.45,-2855.78 3873.45,-2855.78 3873.45,-2891.78"/>
<text text-anchor="middle" x="3802.45" y="-2870.08" font-family="Times,serif" font-size="14.00">at_sync_ui_flutter</text>
</g>
<!-- at_onboarding_flutter&#45;&gt;at_sync_ui_flutter -->
<g id="edge125" class="edge">
<title>at_onboarding_flutter&#45;&gt;at_sync_ui_flutter</title>
<path fill="none" stroke="#27d02d" d="M4004.38,-3366.55C3973.55,-3291.48 3850.83,-2992.6 3813.37,-2901.36"/>
<polygon fill="#27d02d" stroke="#27d02d" points="3816.56,-2899.92 3809.52,-2892 3810.08,-2902.58 3816.56,-2899.92"/>
</g>
<!-- at_onboarding_flutter&#45;&gt;at_utils -->
<g id="edge126" class="edge">
<title>at_onboarding_flutter&#45;&gt;at_utils</title>
<path fill="none" stroke="#75e849" d="M4042.6,-3366.7C4139.88,-3311.72 4440.47,-3128.98 4590.45,-2891.78 4739.44,-2656.14 4752.45,-2564.57 4752.45,-2285.78 4752.45,-2285.78 4752.45,-2285.78 4752.45,-1772.78 4752.45,-1534.1 4875.2,-1417.62 4719.45,-1236.78 4413.82,-881.9 2790.03,-772.24 2497.59,-755.25"/>
<polygon fill="#75e849" stroke="#75e849" points="2497.55,-751.74 2487.37,-754.66 2497.15,-758.73 2497.55,-751.74"/>
</g>
<!-- at_persistence_root_server -->
<g id="node31" class="node">
<title>at_persistence_root_server</title>
<polygon fill="none" stroke="#831d2e" points="593.95,-1791.78 384.95,-1791.78 384.95,-1755.78 593.95,-1755.78 593.95,-1791.78"/>
<text text-anchor="middle" x="489.45" y="-1770.08" font-family="Times,serif" font-size="14.00">at_persistence_root_server</text>
</g>
<!-- at_persistence_root_server&#45;&gt;at_commons -->
<g id="edge128" class="edge">
<title>at_persistence_root_server&#45;&gt;at_commons</title>
<path fill="none" stroke="#7eceb0" d="M491.86,-1755.42C502.08,-1685.88 546.44,-1422.32 654.45,-1236.78 808.99,-971.3 871.82,-902.59 1128.45,-733.78 1573.41,-441.09 2215.4,-295.17 2416.67,-254.72"/>
<polygon fill="#7eceb0" stroke="#7eceb0" points="2417.65,-258.09 2426.77,-252.7 2416.28,-251.23 2417.65,-258.09"/>
</g>
<!-- at_persistence_root_server&#45;&gt;at_persistence_spec -->
<g id="edge130" class="edge">
<title>at_persistence_root_server&#45;&gt;at_persistence_spec</title>
<path fill="none" stroke="#3bfcef" d="M500.14,-1755.55C546.89,-1680.25 733.43,-1379.78 789.46,-1289.53"/>
<polygon fill="#3bfcef" stroke="#3bfcef" points="792.46,-1291.34 794.76,-1281 786.51,-1287.65 792.46,-1291.34"/>
</g>
<!-- at_persistence_root_server&#45;&gt;at_utils -->
<g id="edge129" class="edge">
<title>at_persistence_root_server&#45;&gt;at_utils</title>
<path fill="none" stroke="#75e849" d="M490.49,-1755.3C495.88,-1680.7 527.16,-1385.89 690.45,-1236.78 959.06,-991.48 2160.42,-797.26 2407.81,-759.45"/>
<polygon fill="#75e849" stroke="#75e849" points="2408.52,-762.89 2417.88,-757.92 2407.46,-755.97 2408.52,-762.89"/>
</g>
<!-- redis -->
<g id="node48" class="node">
<title>redis</title>
<polygon fill="none" stroke="#5cceca" points="2283.45,-3935.78 2229.45,-3935.78 2229.45,-3899.78 2283.45,-3899.78 2283.45,-3935.78"/>
<text text-anchor="middle" x="2256.45" y="-3914.08" font-family="Times,serif" font-size="14.00">redis</text>
</g>
<!-- at_persistence_root_server&#45;&gt;redis -->
<g id="edge131" class="edge">
<title>at_persistence_root_server&#45;&gt;redis</title>
<path fill="none" stroke="#5cceca" d="M491.45,-1792.27C510.14,-1952.88 658.78,-3170.89 896.45,-3433.78 1275.39,-3852.93 2042.1,-3908.42 2219.31,-3915.69"/>
<polygon fill="#5cceca" stroke="#5cceca" points="2219.3,-3919.19 2229.43,-3916.08 2219.57,-3912.2 2219.3,-3919.19"/>
</g>
<!-- at_persistence_secondary_server&#45;&gt;at_commons -->
<g id="edge132" class="edge">
<title>at_persistence_secondary_server&#45;&gt;at_commons</title>
<path fill="none" stroke="#7eceb0" d="M749.56,-1755.74C714.65,-1686.35 593.63,-1420.08 690.45,-1236.78 1060.53,-536.14 2143.43,-301.88 2416.41,-253.14"/>
<polygon fill="#7eceb0" stroke="#7eceb0" points="2417.29,-256.53 2426.53,-251.35 2416.08,-249.64 2417.29,-256.53"/>
</g>
<!-- at_persistence_secondary_server&#45;&gt;at_persistence_spec -->
<g id="edge134" class="edge">
<title>at_persistence_secondary_server&#45;&gt;at_persistence_spec</title>
<path fill="none" stroke="#3bfcef" d="M760.04,-1755.55C766.95,-1680.71 794.4,-1383.41 802.92,-1291.2"/>
<polygon fill="#3bfcef" stroke="#3bfcef" points="806.43,-1291.28 803.86,-1281 799.45,-1290.63 806.43,-1291.28"/>
</g>
<!-- at_persistence_secondary_server&#45;&gt;at_utils -->
<g id="edge133" class="edge">
<title>at_persistence_secondary_server&#45;&gt;at_utils</title>
<path fill="none" stroke="#75e849" d="M749.84,-1755.65C715,-1683.69 592.17,-1401.79 717.45,-1236.78 934.51,-950.87 2157.59,-788.51 2407.75,-758.04"/>
<polygon fill="#75e849" stroke="#75e849" points="2408.42,-761.49 2417.93,-756.81 2407.58,-754.54 2408.42,-761.49"/>
</g>
<!-- at_policy -->
<g id="node35" class="node">
<title>at_policy</title>
<polygon fill="none" stroke="#c13414" points="2586.45,-3935.78 2506.45,-3935.78 2506.45,-3899.78 2586.45,-3899.78 2586.45,-3935.78"/>
<text text-anchor="middle" x="2546.45" y="-3914.08" font-family="Times,serif" font-size="14.00">at_policy</text>
</g>
<!-- at_policy&#45;&gt;at_cli_commons -->
<g id="edge136" class="edge">
<title>at_policy&#45;&gt;at_cli_commons</title>
<path fill="none" stroke="#c99192" d="M2539.93,-3899.71C2510.43,-3822.55 2389.41,-3506 2353.53,-3412.13"/>
<polygon fill="#c99192" stroke="#c99192" points="2356.79,-3410.87 2349.95,-3402.78 2350.25,-3413.37 2356.79,-3410.87"/>
</g>
<!-- at_policy&#45;&gt;at_client -->
<g id="edge135" class="edge">
<title>at_policy&#45;&gt;at_client</title>
<path fill="none" stroke="#61d4fc" d="M2506.18,-3900.6C2324.79,-3827.34 1589.87,-3526.28 1531.45,-3433.78 1392.37,-3213.57 1431.27,-3088.18 1531.45,-2847.78 1820.67,-2153.69 2836.7,-1849.06 3071.68,-1787.01"/>
<polygon fill="#61d4fc" stroke="#61d4fc" points="3072.85,-1790.32 3081.64,-1784.4 3071.08,-1783.55 3072.85,-1790.32"/>
</g>
<!-- at_policy&#45;&gt;at_utils -->
<g id="edge137" class="edge">
<title>at_policy&#45;&gt;at_utils</title>
<path fill="none" stroke="#75e849" d="M2546.3,-3899.68C2545.17,-3798.8 2536.13,-3271.32 2468.45,-2847.78 2431.3,-2615.3 2369.11,-2567.45 2340.45,-2333.78 2281.09,-1849.79 2306.24,-1721.69 2357.45,-1236.78 2376.05,-1060.65 2426.61,-853.19 2445.34,-779.99"/>
<polygon fill="#75e849" stroke="#75e849" points="2448.76,-780.74 2447.87,-770.19 2441.98,-779 2448.76,-780.74"/>
</g>
<!-- at_repl -->
<g id="node36" class="node">
<title>at_repl</title>
<polygon fill="none" stroke="#1494d0" points="1988.45,-3402.78 1922.45,-3402.78 1922.45,-3366.78 1988.45,-3366.78 1988.45,-3402.78"/>
<text text-anchor="middle" x="1955.45" y="-3381.08" font-family="Times,serif" font-size="14.00">at_repl</text>
</g>
<!-- at_repl&#45;&gt;at_client -->
<g id="edge138" class="edge">
<title>at_repl&#45;&gt;at_client</title>
<path fill="none" stroke="#61d4fc" d="M1958.6,-3366.4C1983.2,-3231.39 2145.41,-2352.79 2217.45,-2258.78 2447.72,-1958.24 2919.36,-1822.86 3071.78,-1785.77"/>
<polygon fill="#61d4fc" stroke="#61d4fc" points="3072.87,-1789.11 3081.77,-1783.37 3071.23,-1782.3 3072.87,-1789.11"/>
</g>
<!-- at_repl&#45;&gt;at_commons -->
<g id="edge139" class="edge">
<title>at_repl&#45;&gt;at_commons</title>
<path fill="none" stroke="#7eceb0" d="M1941.46,-3366.57C1862.84,-3268.04 1479.45,-2763.12 1479.45,-2285.78 1479.45,-2285.78 1479.45,-2285.78 1479.45,-1261.78 1479.45,-713.7 2225.48,-352.2 2428.8,-263.85"/>
<polygon fill="#7eceb0" stroke="#7eceb0" points="2430.28,-267.03 2438.07,-259.85 2427.5,-260.6 2430.28,-267.03"/>
</g>
<!-- at_repl&#45;&gt;at_onboarding_cli -->
<g id="edge140" class="edge">
<title>at_repl&#45;&gt;at_onboarding_cli</title>
<path fill="none" stroke="#514d2d" d="M1970.1,-3366.55C2034.36,-3291.02 2291.32,-2988.96 2367.23,-2899.72"/>
<polygon fill="#514d2d" stroke="#514d2d" points="2369.99,-2901.88 2373.8,-2892 2364.65,-2897.35 2369.99,-2901.88"/>
</g>
<!-- at_repl&#45;&gt;at_utils -->
<g id="edge141" class="edge">
<title>at_repl&#45;&gt;at_utils</title>
<path fill="none" stroke="#75e849" d="M1955.78,-3366.68C1957.7,-3264.64 1967.45,-2725.67 1967.45,-2285.78 1967.45,-2285.78 1967.45,-2285.78 1967.45,-1772.78 1967.45,-1335.67 2335.21,-886.38 2430.25,-777.57"/>
<polygon fill="#75e849" stroke="#75e849" points="2432.89,-779.87 2436.86,-770.05 2427.63,-775.25 2432.89,-779.87"/>
</g>
<!-- at_root_server -->
<g id="node37" class="node">
<title>at_root_server</title>
<polygon fill="none" stroke="#9dd431" points="363.95,-2302.78 244.95,-2302.78 244.95,-2266.78 363.95,-2266.78 363.95,-2302.78"/>
<text text-anchor="middle" x="304.45" y="-2281.08" font-family="Times,serif" font-size="14.00">at_root_server</text>
</g>
<!-- at_root_server&#45;&gt;at_commons -->
<g id="edge142" class="edge">
<title>at_root_server&#45;&gt;at_commons</title>
<path fill="none" stroke="#7eceb0" d="M295.8,-2266.48C246.04,-2164.55 3.7,-1633.16 152.45,-1236.78 255.17,-963.03 328.95,-889.45 576.45,-733.78 1213.49,-333.08 2165.47,-258.37 2416.79,-245.36"/>
<polygon fill="#7eceb0" stroke="#7eceb0" points="2417.02,-248.85 2426.83,-244.86 2416.67,-241.86 2417.02,-248.85"/>
</g>
<!-- at_root_server&#45;&gt;at_persistence_root_server -->
<g id="edge145" class="edge">
<title>at_root_server&#45;&gt;at_persistence_root_server</title>
<path fill="none" stroke="#831d2e" d="M310.71,-2266.55C337.97,-2191.55 446.41,-1893.2 479.69,-1801.64"/>
<polygon fill="#831d2e" stroke="#831d2e" points="483.06,-1802.59 483.19,-1792 476.48,-1800.2 483.06,-1802.59"/>
</g>
<!-- at_root_server&#45;&gt;at_server_spec -->
<g id="edge144" class="edge">
<title>at_root_server&#45;&gt;at_server_spec</title>
<path fill="none" stroke="#e6f023" d="M304.48,-2266.55C304.63,-2191.71 305.21,-1894.41 305.4,-1802.2"/>
<polygon fill="#e6f023" stroke="#e6f023" points="308.9,-1802 305.42,-1792 301.9,-1801.99 308.9,-1802"/>
</g>
<!-- at_root_server&#45;&gt;at_utils -->
<g id="edge143" class="edge">
<title>at_root_server&#45;&gt;at_utils</title>
<path fill="none" stroke="#75e849" d="M293.92,-2266.45C229.19,-2157.51 -103.17,-1561.26 171.45,-1236.78 475.96,-876.98 2113.94,-771.27 2407.42,-755.1"/>
<polygon fill="#75e849" stroke="#75e849" points="2407.88,-758.58 2417.68,-754.54 2407.5,-751.59 2407.88,-758.58"/>
</g>
<!-- at_secondary -->
<g id="node38" class="node">
<title>at_secondary</title>
<polygon fill="none" stroke="#1b8948" points="492.45,-2302.78 382.45,-2302.78 382.45,-2266.78 492.45,-2266.78 492.45,-2302.78"/>
<text text-anchor="middle" x="437.45" y="-2281.08" font-family="Times,serif" font-size="14.00">at_secondary</text>
</g>
<!-- at_secondary&#45;&gt;at_chops -->
<g id="edge148" class="edge">
<title>at_secondary&#45;&gt;at_chops</title>
<path fill="none" stroke="#8fb4d4" d="M470.76,-2266.71C706.49,-2145.94 2121.4,-1421.08 2385.88,-1285.58"/>
<polygon fill="#8fb4d4" stroke="#8fb4d4" points="2387.85,-1288.51 2395.16,-1280.83 2384.66,-1282.28 2387.85,-1288.51"/>
</g>
<!-- at_secondary&#45;&gt;at_commons -->
<g id="edge146" class="edge">
<title>at_secondary&#45;&gt;at_commons</title>
<path fill="none" stroke="#7eceb0" d="M422.65,-2266.61C371.97,-2206.52 205.4,-1998.11 149.45,-1791.78 144.33,-1772.9 149.03,-1767.33 149.45,-1747.78 154.34,-1520.51 83.72,-1446.49 171.45,-1236.78 289.29,-955.08 377.72,-891.06 639.45,-733.78 1262.11,-359.6 2171.36,-266.03 2416.57,-247.02"/>
<polygon fill="#7eceb0" stroke="#7eceb0" points="2417.02,-250.5 2426.73,-246.25 2416.49,-243.52 2417.02,-250.5"/>
</g>
<!-- at_secondary&#45;&gt;at_lookup -->
<g id="edge149" class="edge">
<title>at_secondary&#45;&gt;at_lookup</title>
<path fill="none" stroke="#94d42d" d="M492.51,-2270.42C789.13,-2198.49 2193.98,-1857.82 2484,-1787.49"/>
<polygon fill="#94d42d" stroke="#94d42d" points="2484.95,-1790.87 2493.84,-1785.11 2483.3,-1784.06 2484.95,-1790.87"/>
</g>
<!-- at_secondary&#45;&gt;at_persistence_secondary_server -->
<g id="edge152" class="edge">
<title>at_secondary&#45;&gt;at_persistence_secondary_server</title>
<path fill="none" stroke="#9760d3" d="M448.31,-2266.55C495.8,-2191.25 685.29,-1890.78 742.21,-1800.53"/>
<polygon fill="#9760d3" stroke="#9760d3" points="745.21,-1802.32 747.59,-1792 739.29,-1798.59 745.21,-1802.32"/>
</g>
<!-- at_secondary&#45;&gt;at_persistence_spec -->
<g id="edge151" class="edge">
<title>at_secondary&#45;&gt;at_persistence_spec</title>
<path fill="none" stroke="#3bfcef" d="M443.23,-2266.59C465.75,-2199.81 549.95,-1951.11 623.45,-1747.78 686.84,-1572.4 767.19,-1362.95 795.24,-1290.2"/>
<polygon fill="#3bfcef" stroke="#3bfcef" points="798.51,-1291.45 798.84,-1280.86 791.98,-1288.93 798.51,-1291.45"/>
</g>
<!-- at_secondary&#45;&gt;at_server_spec -->
<g id="edge150" class="edge">
<title>at_secondary&#45;&gt;at_server_spec</title>
<path fill="none" stroke="#e6f023" d="M432.98,-2266.55C413.55,-2191.63 336.32,-1893.81 312.49,-1801.92"/>
<polygon fill="#e6f023" stroke="#e6f023" points="315.81,-1800.8 309.92,-1792 309.04,-1802.56 315.81,-1800.8"/>
</g>
<!-- at_secondary&#45;&gt;at_utils -->
<g id="edge147" class="edge">
<title>at_secondary&#45;&gt;at_utils</title>
<path fill="none" stroke="#75e849" d="M424.37,-2266.77C343.76,-2159.75 -73.42,-1573.22 198.45,-1236.78 491.35,-874.3 2116.5,-770.78 2407.76,-755.04"/>
<polygon fill="#75e849" stroke="#75e849" points="2408.14,-758.52 2417.94,-754.49 2407.76,-751.53 2408.14,-758.52"/>
</g>
<!-- at_secondary_proxy -->
<g id="node39" class="node">
<title>at_secondary_proxy</title>
<polygon fill="none" stroke="#35c7f7" points="1066.45,-3402.78 908.45,-3402.78 908.45,-3366.78 1066.45,-3366.78 1066.45,-3402.78"/>
<text text-anchor="middle" x="987.45" y="-3381.08" font-family="Times,serif" font-size="14.00">at_secondary_proxy</text>
</g>
<!-- at_secondary_proxy&#45;&gt;at_commons -->
<g id="edge153" class="edge">
<title>at_secondary_proxy&#45;&gt;at_commons</title>
<path fill="none" stroke="#7eceb0" d="M970.75,-3366.74C878.91,-3272.2 430.88,-2799.46 190.45,-2333.78 -33.64,-1899.75 -64.95,-1687.44 123.45,-1236.78 227.43,-988.05 241.22,-887.83 462.45,-733.78 1118.76,-276.75 2152.83,-243.12 2416.59,-242.26"/>
<polygon fill="#7eceb0" stroke="#7eceb0" points="2416.75,-245.76 2426.75,-242.25 2416.74,-238.76 2416.75,-245.76"/>
</g>
<!-- at_secondary_proxy&#45;&gt;at_lookup -->
<g id="edge155" class="edge">
<title>at_secondary_proxy&#45;&gt;at_lookup</title>
<path fill="none" stroke="#94d42d" d="M983.76,-3366.44C956.95,-3238.71 797.18,-2443.31 934.45,-2258.78 1130.39,-1995.36 2228.83,-1819.84 2483.65,-1782.31"/>
<polygon fill="#94d42d" stroke="#94d42d" points="2484.37,-1785.74 2493.76,-1780.83 2483.36,-1778.81 2484.37,-1785.74"/>
</g>
<!-- at_secondary_proxy&#45;&gt;at_utils -->
<g id="edge154" class="edge">
<title>at_secondary_proxy&#45;&gt;at_utils</title>
<path fill="none" stroke="#75e849" d="M1004.06,-3366.47C1060.12,-3306.76 1242.51,-3101.44 1308.45,-2891.78 1389.3,-2634.72 1327.45,-2555.24 1327.45,-2285.78 1327.45,-2285.78 1327.45,-2285.78 1327.45,-1772.78 1327.45,-1178.45 2199.83,-839.89 2408.16,-767.51"/>
<polygon fill="#75e849" stroke="#75e849" points="2409.54,-770.73 2417.86,-764.17 2407.26,-764.12 2409.54,-770.73"/>
</g>
<!-- at_server_spec&#45;&gt;at_commons -->
<g id="edge156" class="edge">
<title>at_server_spec&#45;&gt;at_commons</title>
<path fill="none" stroke="#7eceb0" d="M312.7,-1755.47C360.28,-1644.21 639.28,-1024.83 1071.45,-733.78 1532.04,-423.58 2209.31,-288.49 2416.77,-252.84"/>
<polygon fill="#7eceb0" stroke="#7eceb0" points="2417.6,-256.25 2426.87,-251.12 2416.42,-249.35 2417.6,-256.25"/>
</g>
<!-- at_server_status&#45;&gt;at_commons -->
<g id="edge157" class="edge">
<title>at_server_status&#45;&gt;at_commons</title>
<path fill="none" stroke="#7eceb0" d="M2413.67,-2266.41C2403.67,-2203.08 2369.6,-1978.51 2358.45,-1791.78 2330.4,-1322.1 2337.99,-1200.76 2395.45,-733.78 2417.34,-555.84 2458.86,-344.11 2473.86,-270"/>
<polygon fill="#7eceb0" stroke="#7eceb0" points="2477.32,-270.58 2475.88,-260.08 2470.46,-269.19 2477.32,-270.58"/>
</g>
<!-- at_server_status&#45;&gt;at_lookup -->
<g id="edge159" class="edge">
<title>at_server_status&#45;&gt;at_lookup</title>
<path fill="none" stroke="#94d42d" d="M2420.51,-2266.55C2438.17,-2191.63 2508.39,-1893.81 2530.05,-1801.92"/>
<polygon fill="#94d42d" stroke="#94d42d" points="2533.5,-1802.53 2532.39,-1792 2526.69,-1800.93 2533.5,-1802.53"/>
</g>
<!-- at_server_status&#45;&gt;at_utils -->
<g id="edge158" class="edge">
<title>at_server_status&#45;&gt;at_utils</title>
<path fill="none" stroke="#75e849" d="M2413.83,-2266.47C2399.07,-2166.59 2328.28,-1653.69 2365.45,-1236.78 2381.13,-1060.89 2428.26,-853.28 2445.79,-780.02"/>
<polygon fill="#75e849" stroke="#75e849" points="2449.21,-780.74 2448.15,-770.2 2442.41,-779.11 2449.21,-780.74"/>
</g>
<!-- at_sync_ui_flutter&#45;&gt;at_client -->
<g id="edge160" class="edge">
<title>at_sync_ui_flutter&#45;&gt;at_client</title>
<path fill="none" stroke="#61d4fc" d="M3798.64,-2855.55C3781.45,-2780.31 3706.17,-2474.54 3572.45,-2258.78 3446.81,-2056.05 3228,-1864.07 3149.51,-1798.53"/>
<polygon fill="#61d4fc" stroke="#61d4fc" points="3151.43,-1795.57 3141.5,-1791.87 3146.95,-1800.96 3151.43,-1795.57"/>
</g>
<!-- at_sync_ui_flutter&#45;&gt;at_client_mobile -->
<g id="edge161" class="edge">
<title>at_sync_ui_flutter&#45;&gt;at_client_mobile</title>
<path fill="none" stroke="#d9577c" d="M3785.49,-2855.53C3703.3,-2771.91 3346.36,-2408.78 3249.68,-2310.42"/>
<polygon fill="#d9577c" stroke="#d9577c" points="3251.91,-2307.7 3242.41,-2303.03 3246.92,-2312.61 3251.91,-2307.7"/>
</g>
<!-- at_sync_ui_flutter&#45;&gt;at_common_flutter -->
<g id="edge162" class="edge">
<title>at_sync_ui_flutter&#45;&gt;at_common_flutter</title>
<path fill="none" stroke="#bf681f" d="M3791.84,-2855.53C3740.62,-2772.24 3518.89,-2411.69 3457.34,-2311.62"/>
<polygon fill="#bf681f" stroke="#bf681f" points="3460.28,-2309.71 3452.06,-2303.03 3454.32,-2313.38 3460.28,-2309.71"/>
</g>
<!-- at_theme_flutter -->
<g id="node43" class="node">
<title>at_theme_flutter</title>
<polygon fill="none" stroke="#2ec850" points="4534.45,-2891.78 4400.45,-2891.78 4400.45,-2855.78 4534.45,-2855.78 4534.45,-2891.78"/>
<text text-anchor="middle" x="4467.45" y="-2870.08" font-family="Times,serif" font-size="14.00">at_theme_flutter</text>
</g>
<!-- at_theme_flutter&#45;&gt;at_client_mobile -->
<g id="edge163" class="edge">
<title>at_theme_flutter&#45;&gt;at_client_mobile</title>
<path fill="none" stroke="#d9577c" d="M4431.29,-2855.68C4253.06,-2771.45 3468.85,-2400.81 3270.93,-2307.27"/>
<polygon fill="#d9577c" stroke="#d9577c" points="3272.22,-2304.01 3261.69,-2302.9 3269.23,-2310.34 3272.22,-2304.01"/>
</g>
<!-- at_theme_flutter&#45;&gt;at_common_flutter -->
<g id="edge164" class="edge">
<title>at_theme_flutter&#45;&gt;at_common_flutter</title>
<path fill="none" stroke="#bf681f" d="M4437.58,-2855.68C4290.79,-2771.71 3646.44,-2403.06 3480.52,-2308.13"/>
<polygon fill="#bf681f" stroke="#bf681f" points="3482.05,-2304.97 3471.63,-2303.04 3478.58,-2311.05 3482.05,-2304.97"/>
</g>
<!-- at_theme_flutter&#45;&gt;at_commons -->
<g id="edge165" class="edge">
<title>at_theme_flutter&#45;&gt;at_commons</title>
<path fill="none" stroke="#7eceb0" d="M4466.11,-2855.69C4458.26,-2753.72 4418.45,-2215.08 4418.45,-1774.78 4418.45,-1774.78 4418.45,-1774.78 4418.45,-1261.78 4418.45,-393.45 2875.91,-263.44 2542.5,-245.48"/>
<polygon fill="#7eceb0" stroke="#7eceb0" points="2542.24,-241.96 2532.07,-244.94 2541.87,-248.95 2542.24,-241.96"/>
</g>
<!-- at_theme_flutter&#45;&gt;at_utils -->
<g id="edge166" class="edge">
<title>at_theme_flutter&#45;&gt;at_utils</title>
<path fill="none" stroke="#75e849" d="M4465.32,-2855.75C4455.19,-2780.06 4406.65,-2468.66 4270.45,-2258.78 3761.54,-1474.56 2716.21,-892.22 2494.39,-774.6"/>
<polygon fill="#75e849" stroke="#75e849" points="2495.83,-771.4 2485.35,-769.82 2492.55,-777.58 2495.83,-771.4"/>
</g>
<!-- at_utils&#45;&gt;at_commons -->
<g id="edge167" class="edge">
<title>at_utils&#45;&gt;at_commons</title>
<path fill="none" stroke="#7eceb0" d="M2453.36,-733.58C2457.33,-658.89 2473.1,-362.18 2478,-270.14"/>
<polygon fill="#7eceb0" stroke="#7eceb0" points="2481.5,-270.14 2478.54,-259.96 2474.51,-269.76 2481.5,-270.14"/>
</g>
<!-- at_ve_doctor -->
<g id="node45" class="node">
<title>at_ve_doctor</title>
<polygon fill="none" stroke="#193e4e" points="2205.95,-3402.78 2098.95,-3402.78 2098.95,-3366.78 2205.95,-3366.78 2205.95,-3402.78"/>
<text text-anchor="middle" x="2152.45" y="-3381.08" font-family="Times,serif" font-size="14.00">at_ve_doctor</text>
</g>
<!-- at_ve_doctor&#45;&gt;at_server_status -->
<g id="edge168" class="edge">
<title>at_ve_doctor&#45;&gt;at_server_status</title>
<path fill="none" stroke="#320113" d="M2156.6,-3366.53C2186.77,-3241.04 2372.45,-2468.79 2409.88,-2313.11"/>
<polygon fill="#320113" stroke="#320113" points="2413.38,-2313.53 2412.31,-2302.98 2406.57,-2311.89 2413.38,-2313.53"/>
</g>
<!-- base2e15 -->
<g id="node46" class="node">
<title>base2e15</title>
<polygon fill="none" stroke="#2bcf07" points="2487.95,-3935.78 2402.95,-3935.78 2402.95,-3899.78 2487.95,-3899.78 2487.95,-3935.78"/>
<text text-anchor="middle" x="2445.45" y="-3914.08" font-family="Times,serif" font-size="14.00">base2e15</text>
</g>
<!-- dart_utf7 -->
<g id="node47" class="node">
<title>dart_utf7</title>
<polygon fill="none" stroke="#f889f9" points="2384.95,-3935.78 2301.95,-3935.78 2301.95,-3899.78 2384.95,-3899.78 2384.95,-3935.78"/>
<text text-anchor="middle" x="2343.45" y="-3914.08" font-family="Times,serif" font-size="14.00">dart_utf7</text>
</g>
</g>
</svg>
